<svg height="480pt" viewBox="-8 0 480 480" width="480pt" xmlns="http://www.w3.org/2000/svg"><path d="m328 40v104h-192v-104c0-17.671875 14.328125-32 32-32h128c17.671875 0 32 14.328125 32 32zm0 0" fill="#ffeb99"/><path d="m64 408c17.671875 0 32 14.328125 32 32s-14.328125 32-32 32h-32v-64zm0 0" fill="#64c37d"/><path d="m368 160v16h-272v-16c.027344-8.824219 7.175781-15.972656 16-16h240c8.824219.027344 15.972656 7.175781 16 16zm0 0" fill="#898890"/><path d="m128 376h40v24h-40zm0 0" fill="#787680"/><path d="m296 376h40v24h-40zm0 0" fill="#787680"/><path d="m429.199219 210.558594-10.878907 136c-1.300781 16.621094-15.167968 29.445312-31.839843 29.441406h-308.960938c-16.671875.003906-30.539062-12.820312-31.839843-29.441406l-10.878907-136c-.714843-8.890625 2.316407-17.679688 8.363281-24.242188 6.042969-6.558594 14.554688-10.300781 23.476563-10.316406h330.71875c8.921875.015625 17.433594 3.757812 23.476563 10.316406 6.046874 6.5625 9.078124 15.351563 8.363281 24.242188zm0 0" fill="#bdfdff"/><path d="m336 320c.011719 8.488281-3.355469 16.636719-9.359375 22.640625s-14.152344 9.371094-22.640625 9.359375h-144c-17.671875 0-32-14.328125-32-32zm0 0" fill="#e0e0e2"/><path d="m256 96c0 13.253906-10.746094 24-24 24s-24-10.746094-24-24 10.746094-24 24-24 24 10.746094 24 24zm0 0" fill="#d80027"/><path d="m304 280c0-22.089844-32.234375-40-72-40s-72 17.910156-72 40 32.234375 40 72 40 72-17.910156 72-40zm0 0" fill="#cd2a00"/><path d="m302.480469 218.078125c7.917969 6.960937 3.597656 24.800781-9.441407 40.800781-.640624.800782-1.359374 1.679688-2.078124 2.480469-14.640626 16.480469-33.199219 24-41.441407 16.71875-7.121093-6.238281-4.320312-21.277344 5.679688-35.839844 1.800781-2.589843 3.753906-5.074219 5.839843-7.4375 7.242188-8.746093 16.8125-15.261719 27.601563-18.800781l10.480469.078125c1.238281.445313 2.378906 1.125 3.359375 2zm0 0" fill="#ab2300"/><path d="m232 64c-17.671875 0-32 14.328125-32 32s14.328125 32 32 32 32-14.328125 32-32-14.328125-32-32-32zm0 48c-7.230469.019531-13.570312-4.828125-15.445312-11.8125s1.179687-14.355469 7.445312-17.964844v13.777344h16v-13.777344c6.265625 3.609375 9.320312 10.980469 7.445312 17.964844s-8.214843 11.832031-15.445312 11.8125zm0 0"/><path d="m224 32h16v16h-16zm0 0"/><path d="m193.066406 44.578125 13.851563-8 7.996093 13.847656-13.847656 8zm0 0"/><path d="m172.574219 70.925781 8-13.855469 13.855469 8-8 13.855469zm0 0"/><path d="m168 88h16v16h-16zm0 0"/><path d="m280 88h16v16h-16zm0 0"/><path d="m269.570312 65.070312 13.855469-8 8 13.855469-13.855469 8.003907zm0 0"/><path d="m249.070312 50.429688 7.996094-13.847657 13.847656 8-7.996093 13.847657zm0 0"/><path d="m440 312h-2.855469l8.0625-100.800781c.894531-11.128907-2.90625-22.125-10.476562-30.328125-7.574219-8.203125-18.230469-12.871094-29.394531-12.871094h-29.335938v-8c0-13.253906-10.746094-24-24-24h-16v-96c-.027344-22.082031-17.917969-39.9726562-40-40h-128c-22.082031.0273438-39.972656 17.917969-40 40v96h-16c-13.253906 0-24 10.746094-24 24v8h-13.335938c-11.164062 0-21.820312 4.667969-29.394531 12.871094-7.570312 8.203125-11.371093 19.199218-10.476562 30.328125l10.871093 136c1.769532 20.738281 19.066407 36.703125 39.878907 36.800781h34.457031v16c0 4.417969 3.582031 8 8 8h40c4.417969 0 8-3.582031 8-8v-16h112v16c0 4.417969 3.582031 8 8 8h40c4.417969 0 8-3.582031 8-8v-16h50.457031c20.8125-.09375 38.109375-16.0625 39.871094-36.800781l1.535156-19.199219h4.136719c4.417969 0 8 3.582031 8 8v88c0 4.417969-3.582031 8-8 8h-336.800781c-3.828125-18.613281-20.199219-31.976562-39.199219-32h-32c-4.417969 0-8 3.582031-8 8v8h-24v16h24v16h-24v16h24v8c0 4.417969 3.582031 8 8 8h32c19-.023438 35.371094-13.386719 39.199219-32h336.800781c13.253906 0 24-10.746094 24-24v-88c0-13.253906-10.746094-24-24-24zm-296-272c0-13.253906 10.746094-24 24-24h128c13.253906 0 24 10.746094 24 24v96h-176zm-40 120c0-4.417969 3.582031-8 8-8h240c4.417969 0 8 3.582031 8 8v8h-256zm40 200v8h-24v-8zm-6.632812-32h189.265624c-3.402343 9.582031-12.464843 15.988281-22.632812 16h-144c-10.167969-.011719-19.230469-6.417969-22.632812-16zm30.632812-48c0-15.136719 26.289062-32 64-32 3.542969 0 7.007812.148438 10.398438.441406-6.878907 14.78125-6.398438 28.320313 1.839843 35.550782 11.058594 9.777343 31.402344 4 48.800781-13.230469 1.871094 2.722656 2.898438 5.933593 2.960938 9.238281 0 15.136719-26.289062 32-64 32s-64-16.863281-64-32zm118.832031-26.257812-.0625.066406c-.554687.6875-1.167969 1.4375-1.800781 2.152344-13.183594 14.839843-27.015625 18.832031-30.191406 16-2.320313-2.03125-1.96875-12.207032 6.964844-25.242188 1.636718-2.332031 3.394531-4.578125 5.273437-6.71875 13.183594-14.839844 27-18.808594 30.183594-16 2.746093 2.398438 1.570312 15.105469-10.367188 29.742188zm49.167969 114.257812h-16v-8h24v8zm-56 0v-8h24v8zm-112 0h-8v-8h24v8zm32-8h24v8h-24zm40 0h24v8h-24zm-80 32h-24v-8h24zm168 0h-24v-8h24zm90.398438-46.089844c-1.058594 12.453125-11.445313 22.035156-23.941407 22.089844h-34.457031v-8h24v-16h-48.207031c5.292969-6.882812 8.175781-15.316406 8.207031-24 0-4.417969-3.582031-8-8-8h-44c11.636719-6.613281 19.15625-18.644531 20-32-.167969-8.078125-3.210938-15.835938-8.585938-21.871094 9.984376-14.542968 13.226563-29.234375 9.019532-39.25l21.222656-21.222656-11.3125-11.3125-21.929688 21.929688c-12.527343-3.519532-30.398437 4.320312-45.316406 21.09375-1.265625 1.402343-2.402344 2.832031-3.488281 4.199218-6.488281-1.015625-13.042969-1.539062-19.609375-1.566406-44.855469 0-80 21.089844-80 48 .84375 13.355469 8.363281 25.386719 20 32h-44c-4.417969 0-8 3.582031-8 8 .03125 8.683594 2.914062 17.117188 8.207031 24h-48.207031v16h24v8h-18.457031c-12.496094-.054688-22.882813-9.636719-23.941407-22.089844l-10.882812-136c-.53125-6.679687 1.75-13.277344 6.296875-18.199218 4.550781-4.921876 10.949219-7.714844 17.648437-7.710938h330.671876c6.699218 0 13.09375 2.796875 17.636718 7.71875 4.542969 4.921875 6.824219 11.515625 6.292969 18.191406zm-354.398438 118.089844h-24v-48h24c13.253906 0 24 10.746094 24 24s-10.746094 24-24 24zm0 0"/><path d="m80 208h24v16h-24zm0 0"/><path d="m120 208h16v16h-16zm0 0"/><path d="m48 424h16v32h-16zm0 0"/></svg>