<?xml version="1.0" encoding="iso-8859-1"?>
<!-- Generator: Adobe Illustrator 19.0.0, SVG Export Plug-In . SVG Version: 6.00 Build 0)  -->
<svg version="1.1" id="Capa_1" xmlns="http://www.w3.org/2000/svg" xmlns:xlink="http://www.w3.org/1999/xlink" x="0px" y="0px"
	 viewBox="0 0 496.04 496.04" style="enable-background:new 0 0 496.04 496.04;" xml:space="preserve">
<g>
	<rect x="8.02" y="48.04" style="fill:#FFA64D;" width="480" height="40"/>
	<rect x="24.02" y="88.04" style="fill:#FFA64D;" width="48" height="24"/>
	<rect x="24.02" y="464.04" style="fill:#FFA64D;" width="48" height="24"/>
	<rect x="424.02" y="88.04" style="fill:#FFA64D;" width="48" height="24"/>
	<rect x="424.02" y="464.04" style="fill:#FFA64D;" width="48" height="24"/>
	<path style="fill:#FFA64D;" d="M368.02,284.816V256.04c0-66.272-53.728-120-120-120s-120,53.728-120,120v28.776
		c0,33.16-11.288,65.328-32,91.224c0,0,40,48,152,48c2.712,0,5.376-0.032,8-0.08l16-0.688c93.776-6.16,128-47.232,128-47.232
		C379.308,350.144,368.02,317.976,368.02,284.816z"/>
</g>
<g>
	<path style="fill:#333333;" d="M496.02,24.8L248.82,0.08L248.02,0l-248,24.8v71.24h16v400h64v-400h140.448
		c-2.752,4.728-4.448,10.144-4.448,16c0,6.968,2.304,13.376,6.104,18.64c-58.208,12.008-102.104,63.656-102.104,125.36v28.776
		c0,31.216-10.744,61.84-30.248,86.232l-4.08,5.104l4.176,5.016c1.416,1.696,29.72,34.52,102.336,46.52
		c1.888,29.176,26.168,52.352,55.816,52.352c29.656,0,53.944-23.192,55.816-52.392c72.704-12.04,101.016-44.912,102.328-46.488
		l4.176-5.016l-4.08-5.104c-19.496-24.384-30.24-55.008-30.24-86.224V256.04c0-61.704-43.896-113.352-102.104-125.36
		c3.8-5.264,6.104-11.672,6.104-18.64c0-5.856-1.696-11.272-4.448-16H416.02v400h64v-400h16V24.8z M64.02,480.04h-32v-384h32V480.04
		z M360.02,256.04v28.776c0,32.408,10.376,64.248,29.352,90.44c-11.768,10.264-47.368,35.4-117.872,40.032l1.048,15.968
		c5.16-0.336,10.064-0.824,14.888-1.36c-2.872,19.264-19.368,34.144-39.416,34.144c-20.032,0-36.52-14.848-39.4-34.088
		c12.056,1.328,25.16,2.088,39.4,2.088c2.768,0,5.488-0.024,8.168-0.08l-0.328-16c-2.576,0.056-5.184,0.08-7.84,0.08
		c-86.272,0-128.384-29.488-141.352-40.792c18.976-26.192,29.352-58.024,29.352-90.432V256.04c0-61.76,50.24-112,112-112
		S360.02,194.28,360.02,256.04z M264.02,112.04c0,8.824-7.176,16-16,16c-8.824,0-16-7.176-16-16s7.176-16,16-16
		C256.844,96.04,264.02,103.216,264.02,112.04z M464.02,480.04h-32v-384h32V480.04z M16.02,80.04v-16h16v-16h-16v-8.76l232-23.2
		l232,23.2v8.76h-16v16h16v16H16.02z"/>
	<path style="fill:#333333;" d="M152.412,247.32l15.936,1.448c3.688-40.784,38.688-72.728,79.672-72.728v-16
		C198.844,160.04,156.844,198.376,152.412,247.32z"/>
	<rect x="152.02" y="264.04" style="fill:#333333;" width="16" height="16"/>
	<rect x="48.02" y="48.04" style="fill:#333333;" width="400" height="16"/>
</g>
<g>
</g>
<g>
</g>
<g>
</g>
<g>
</g>
<g>
</g>
<g>
</g>
<g>
</g>
<g>
</g>
<g>
</g>
<g>
</g>
<g>
</g>
<g>
</g>
<g>
</g>
<g>
</g>
<g>
</g>
</svg>
