<svg height="499pt" viewBox="-1 0 499 499.838" width="499pt" xmlns="http://www.w3.org/2000/svg"><path d="m444.417969 7.839844h-153.6875c-17.535157 0-33.679688 9.566406-42.101563 24.949218l-51.929687 94.855469c-5.703125 10.425781-15.070313 18.363281-26.289063 22.273438l-133.808594 46.6875c-19.269531 6.730469-32.183593 24.90625-32.183593 45.320312v141.914063c0 26.511718 21.488281 48 48 48h392c26.511719 0 48-21.488282 48-48v-328c0-26.515625-21.488281-48-48-48zm0 0" fill="#8d7bd4"/><path d="m444.417969 415.839844h-392c-26.511719 0-48-21.488282-48-48v16c0 26.511718 21.488281 48 48 48h392c26.511719 0 48-21.488282 48-48v-16c0 26.511718-21.488281 48-48 48zm0 0" fill="#826ec8"/><path d="m444.417969 7.839844h-153.6875c-17.535157 0-33.679688 9.566406-42.101563 24.949218l-51.929687 94.855469c-5.703125 10.425781-15.070313 18.363281-26.289063 22.273438l-133.808594 46.6875c-19.269531 6.730469-32.183593 24.90625-32.183593 45.320312v16c0-20.414062 12.914062-38.589843 32.183593-45.320312l133.800782-46.6875c11.214844-3.910157 20.585937-11.847657 26.289062-22.273438l51.925782-94.855469c8.425781-15.382812 24.570312-24.949218 42.113281-24.949218h153.6875c26.511719 0 48 21.484375 48 48v-16c0-26.515625-21.488281-48-48-48zm0 0" fill="#968cd2"/><path d="m444.417969 435.839844h-392c-28.671875 0-52-23.328125-52-52v-141.914063c0-22.085937 14.007812-41.816406 34.871093-49.097656l133.800782-46.6875c10.304687-3.589844 18.855468-10.839844 24.097656-20.414063l51.925781-94.855468c9.128907-16.679688 26.601563-27.03125 45.609375-27.03125h153.695313c28.671875 0 52 23.324218 52 52v328c0 28.671875-23.328125 52-52 52zm-153.695313-424c-16.078125 0-30.863281 8.757812-38.589844 22.871094l-51.929687 94.855468c-6.183594 11.3125-16.304687 19.878906-28.480469 24.128906l-133.800781 46.6875c-17.648437 6.160157-29.503906 22.855469-29.503906 41.542969v141.914063c0 24.261718 19.738281 44 44 44h392c24.257812 0 44-19.738282 44-44v-328c0-24.265625-19.742188-44-44-44zm0 0" fill="#785ae6"/><path d="m68.417969 399.839844c-17.671875 0-32-14.328125-32-32v-114.546875c0-13.605469 8.609375-25.726563 21.457031-30.214844l123.054688-42.9375c18.707031-6.527344 34.320312-19.75 43.832031-37.125l47.378906-86.539063c5.613281-10.261718 16.375-16.636718 28.070313-16.636718h128.207031c17.671875 0 32 14.324218 32 32v312c0 8.839844-7.160157 16-16 16zm0 0" fill="#968cd2"/><path d="m68.417969 383.839844c-8.839844 0-16-7.160156-16-16v-114.546875c0-6.800781 4.304687-12.863281 10.730469-15.101563l123.054687-42.945312c22.441406-7.832032 41.183594-23.710938 52.601563-44.558594l45.085937-82.371094c4.207031-7.695312 12.28125-12.476562 21.054687-12.476562h123.472657c8.839843 0 16 7.15625 16 16v312zm0 0" fill="#a99be0"/><g fill="#785ae6"><path d="m293.589844 97.007812 24.003906-24 5.65625 5.65625-24.003906 24.003907zm0 0"/><path d="m349.589844 97.007812 24-24 5.65625 5.65625-24 24.003907zm0 0"/><path d="m405.589844 97.011719 24-24.003907 5.65625 5.65625-24 24.003907zm0 0"/><path d="m237.589844 153.007812 24.003906-24 5.65625 5.65625-24.003906 24zm0 0"/><path d="m293.589844 153.007812 24-24 5.65625 5.65625-24 24zm0 0"/><path d="m265.589844 106.667969 5.65625-5.65625 24.003906 24.003906-5.65625 5.65625zm0 0"/><path d="m321.589844 106.671875 5.65625-5.660156 24 24.003906-5.65625 5.65625zm0 0"/><path d="m349.589844 153.007812 24-24 5.65625 5.65625-24 24.003907zm0 0"/><path d="m405.589844 153.007812 24-24 5.65625 5.65625-24 24.003907zm0 0"/><path d="m377.589844 106.671875 5.65625-5.660156 24 24.003906-5.65625 5.65625zm0 0"/><path d="m181.589844 217.007812 24-24 5.65625 5.65625-24 24zm0 0"/><path d="m237.589844 217.007812 24-24 5.65625 5.65625-24 24zm0 0"/><path d="m293.589844 217.007812 24-24 5.65625 5.65625-24 24zm0 0"/><path d="m265.589844 170.667969 5.65625-5.65625 24 24.003906-5.65625 5.65625zm0 0"/><path d="m321.589844 170.667969 5.65625-5.65625 24 24.003906-5.65625 5.65625zm0 0"/><path d="m349.589844 217.007812 24-24 5.65625 5.65625-24 24zm0 0"/><path d="m405.589844 217.007812 24-24 5.65625 5.65625-24 24.003907zm0 0"/><path d="m377.589844 170.671875 5.65625-5.660156 24 24.003906-5.65625 5.65625zm0 0"/><path d="m69.589844 273.007812 24.003906-24.003906 5.65625 5.65625-24.003906 24.003906zm0 0"/><path d="m125.589844 273.007812 24-24.003906 5.65625 5.65625-24 24.003906zm0 0"/><path d="m97.589844 226.667969 5.65625-5.65625 24.003906 24-5.65625 5.65625zm0 0"/><path d="m153.589844 226.667969 5.65625-5.65625 24 24-5.65625 5.65625zm0 0"/><path d="m181.589844 273.007812 24-24.003906 5.65625 5.65625-24 24.003906zm0 0"/><path d="m237.589844 273.007812 24-24 5.65625 5.65625-24 24zm0 0"/><path d="m209.589844 226.667969 5.65625-5.65625 24 24-5.65625 5.660156zm0 0"/><path d="m293.589844 273.007812 24-24 5.65625 5.65625-24 24zm0 0"/><path d="m265.589844 226.667969 5.65625-5.65625 24 24-5.65625 5.660156zm0 0"/><path d="m321.589844 226.667969 5.65625-5.65625 24 24.003906-5.65625 5.65625zm0 0"/><path d="m349.589844 273.007812 24-24 5.65625 5.65625-24 24zm0 0"/><path d="m405.585938 273.007812 24.003906-24 5.65625 5.65625-24 24zm0 0"/><path d="m377.589844 226.667969 5.65625-5.65625 24 24.003906-5.65625 5.65625zm0 0"/><path d="m69.589844 337.007812 24-24.003906 5.65625 5.65625-24 24.003906zm0 0"/><path d="m125.589844 337.007812 24-24.003906 5.65625 5.65625-24 24.003906zm0 0"/><path d="m97.589844 290.667969 5.65625-5.65625 24 24-5.65625 5.65625zm0 0"/><path d="m153.589844 290.667969 5.65625-5.65625 24 24-5.65625 5.65625zm0 0"/><path d="m181.589844 337.007812 24-24.003906 5.65625 5.65625-24 24.003906zm0 0"/><path d="m237.589844 337.007812 24-24.003906 5.65625 5.65625-24 24.003906zm0 0"/><path d="m209.589844 290.667969 5.65625-5.65625 24 24-5.65625 5.65625zm0 0"/><path d="m293.585938 337.007812 24.003906-24 5.65625 5.65625-24 24zm0 0"/><path d="m265.589844 290.667969 5.65625-5.65625 24 24-5.65625 5.660156zm0 0"/><path d="m321.589844 290.667969 5.65625-5.65625 24 24-5.65625 5.660156zm0 0"/><path d="m349.585938 337.007812 24.003906-24 5.65625 5.65625-24 24zm0 0"/><path d="m405.585938 337.007812 24.003906-24 5.65625 5.65625-24 24zm0 0"/><path d="m377.585938 290.667969 5.660156-5.65625 24 24.003906-5.65625 5.65625zm0 0"/><path d="m97.589844 346.667969 5.65625-5.65625 24 24-5.65625 5.65625zm0 0"/><path d="m153.589844 346.667969 5.65625-5.65625 24 24-5.65625 5.65625zm0 0"/><path d="m209.589844 346.667969 5.65625-5.65625 24 24-5.65625 5.65625zm0 0"/><path d="m265.585938 346.667969 5.660156-5.65625 24 24-5.65625 5.65625zm0 0"/><path d="m321.585938 346.667969 5.660156-5.65625 24 24-5.65625 5.660156zm0 0"/><path d="m377.585938 346.667969 5.660156-5.65625 24 24-5.65625 5.660156zm0 0"/><path d="m272.140625 60.46875c-.65625 0-1.3125-.160156-1.921875-.496094-1.9375-1.0625-2.648438-3.496094-1.582031-5.429687 6.308593-11.535157 18.414062-18.703125 31.574219-18.703125 2.207031 0 4 1.789062 4 4 0 2.207031-1.792969 4-4 4-10.230469 0-19.640626 5.574218-24.558594 14.550781-.738282 1.328125-2.097656 2.078125-3.511719 2.078125zm0 0"/><path d="m102.953125 403.839844h-34.535156c-19.847657 0-36-16.152344-36-36v-114.546875c0-15.285157 9.695312-28.949219 24.144531-33.992188l123.054688-42.941406c17.800781-6.210937 32.585937-18.738281 41.640624-35.273437l29.097657-53.152344c1.054687-1.9375 3.496093-2.664063 5.429687-1.582032 1.9375 1.054688 2.648438 3.496094 1.59375 5.429688l-29.105468 53.152344c-10 18.28125-26.351563 32.121094-46.023438 38.984375l-123.054688 42.9375c-11.230468 3.917969-18.777343 14.542969-18.777343 26.4375v114.546875c0 15.4375 12.5625 28 28 28h34.535156c2.210937 0 4 1.789062 4 4 0 2.207031-1.78125 4-4 4zm0 0"/><path d="m194.898438 403.839844h-40.359376c-2.207031 0-4-1.792969-4-4 0-2.210938 1.792969-4 4-4h40.359376c2.207031 0 4 1.789062 4 4 0 2.207031-1.792969 4-4 4zm0 0"/><path d="m444.417969 403.839844h-203.183594c-2.207031 0-4-1.792969-4-4 0-2.210938 1.792969-4 4-4h203.183594c6.617187 0 12-5.386719 12-12 0-2.210938 1.792969-4 4-4 2.210937 0 4 1.789062 4 4 0 11.023437-8.96875 20-20 20zm0 0"/><path d="m460.417969 75.839844c-2.207031 0-4-1.792969-4-4 0-15.441406-12.558594-28-28-28h-79.941407c-2.210937 0-4-1.792969-4-4 0-2.210938 1.78125-4 4-4h79.941407c19.847656 0 36 16.148437 36 36 0 2.207031-1.789063 4-4 4zm0 0"/></g><path d="m435.964844 179.839844c-2.058594 0-4.058594.253906-5.984375.679687-4.761719-14.304687-18.089844-24.679687-33.96875-24.679687-13.023438 0-24.328125 7-30.632813 17.375-2.992187-.808594-6.078125-1.375-9.328125-1.375-19.863281 0-35.960937 16.117187-35.960937 36 0 19.878906 16.097656 36 35.960937 36 13.023438 0 24.328125-7 30.632813-17.378906 2.992187.808593 6.078125 1.378906 9.328125 1.378906 6.09375 0 11.742187-1.65625 16.765625-4.335938 5.035156 7.4375 13.539062 12.335938 23.1875 12.335938 15.445312 0 27.964844-12.539063 27.964844-28 0-15.464844-12.519532-28-27.964844-28zm0 0" fill="#aad2ff"/><path d="m356.050781 187.839844c3.25 0 6.328125.566406 9.320313 1.375 6.3125-10.375 17.617187-17.375 30.640625-17.375 15.878906 0 29.207031 10.375 33.96875 24.679687 1.925781-.425781 3.925781-.679687 5.984375-.679687 12.644531 0 23.214844 8.460937 26.671875 20 .757812-2.554688 1.292969-5.203125 1.292969-8 0-15.464844-12.519532-28-27.964844-28-2.058594 0-4.058594.253906-5.984375.679687-4.761719-14.304687-18.089844-24.679687-33.96875-24.679687-13.023438 0-24.328125 7-30.632813 17.375-2.992187-.808594-6.078125-1.375-9.328125-1.375-19.863281 0-35.960937 16.117187-35.960937 36 0 2.757812.378906 5.414062.960937 8 3.648438-16.019532 17.894531-28 35-28zm0 0" fill="#bee6ff"/><path d="m356.050781 247.839844c-22.03125 0-39.960937-17.945313-39.960937-40 0-22.058594 17.929687-40 39.960937-40 2.410157 0 4.847657.261718 7.519531.832031 7.519532-10.59375 19.441407-16.832031 32.433594-16.832031 15.984375 0 30.261719 9.589844 36.535156 24.191406 19-2.160156 35.390626 13.023438 35.390626 31.808594 0 17.644531-14.34375 32-31.964844 32-9.464844 0-18.347656-4.167969-24.394532-11.3125-7.335937 3.199218-14.527343 4.285156-23.09375 2.488281-7.503906 10.582031-19.425781 16.824219-32.425781 16.824219zm0-72c-17.625 0-31.960937 14.351562-31.960937 32 0 17.644531 14.335937 32 31.960937 32 11.167969 0 21.335938-5.777344 27.207031-15.457032.921876-1.519531 2.746094-2.257812 4.464844-1.785156 3.144532.839844 5.777344 1.242188 8.28125 1.242188 5.0625 0 10.078125-1.304688 14.886719-3.867188 1.816406-.949218 4.046875-.40625 5.191406 1.289063 4.480469 6.625 11.90625 10.578125 19.871094 10.578125 13.21875 0 23.96875-10.769532 23.96875-24 0-13.234375-10.75-24-23.96875-24-1.652344 0-3.335937.191406-5.132813.582031-2.035156.441406-4.007812-.703125-4.65625-2.648437-4.367187-13.128907-16.496093-21.945313-30.167968-21.945313-11.160156 0-21.328125 5.777344-27.21875 15.457031-.910156 1.511719-2.742188 2.25-4.453125 1.785156-3.128907-.839843-5.761719-1.230468-8.273438-1.230468zm0 0" fill="#785ae6"/><path d="m472.21875 321.007812c0-20.738281 10.351562-41.464843 15.535156-67.386718 5.175782-25.917969-20.710937-57.015625-51.773437-57.015625-31.066407 0-35.914063 15.550781-51.449219 15.550781s-20.375-15.550781-51.449219-15.550781c-31.070312 0-56.949219 31.105469-51.773437 57.015625 5.175781 25.921875 15.535156 46.648437 15.535156 67.386718 0 20.734376-10.351562 41.460938-15.535156 67.382813-5.175782 25.917969 20.710937 57.015625 51.773437 57.015625 31.066407 0 35.914063-15.550781 51.449219-15.550781s20.375 15.550781 51.449219 15.550781c31.070312 0 56.949219-31.105469 51.773437-57.015625-5.175781-25.921875-15.535156-46.648437-15.535156-67.382813zm0 0" fill="#ffe885"/><path d="m487.363281 386.671875c-4.855469 21.324219-26.433593 41.40625-51.382812 41.40625-31.066407 0-35.914063-15.550781-51.449219-15.550781s-20.375 15.550781-51.449219 15.550781c-24.960937 0-46.535156-20.070313-51.382812-41.40625-.121094.582031-.273438 1.132813-.390625 1.71875-5.175782 25.917969 20.710937 57.015625 51.773437 57.015625 31.066407 0 35.914063-15.550781 51.449219-15.550781s20.375 15.550781 51.449219 15.550781c31.070312 0 56.949219-31.105469 51.773437-57.015625-.117187-.585937-.261718-1.136719-.390625-1.71875zm0 0" fill="#f0dc78"/><path d="m281.699219 255.34375c4.855469-21.328125 26.433593-41.410156 51.382812-41.410156 31.066407 0 35.914063 15.550781 51.449219 15.550781s20.375-15.550781 51.449219-15.550781c24.957031 0 46.535156 20.074218 51.382812 41.410156.121094-.585938.273438-1.136719.390625-1.722656 5.175782-25.917969-20.710937-57.015625-51.773437-57.015625-31.066407 0-35.914063 15.550781-51.449219 15.550781s-20.375-15.550781-51.449219-15.550781c-31.070312 0-56.949219 31.105469-51.773437 57.015625.117187.585937.269531 1.136718.390625 1.722656zm0 0" fill="#fffa96"/><path d="m435.980469 449.40625c-19.28125 0-29.128907-5.710938-37.035157-10.296875-5.0625-2.933594-9.054687-5.253906-14.414062-5.253906s-9.359375 2.320312-14.425781 5.253906c-7.910157 4.59375-17.75 10.296875-37.023438 10.296875-16.285156 0-32.710937-8.167969-43.917969-21.832031-10.105468-12.320313-14.402343-26.886719-11.785156-39.96875 2.082032-10.40625 4.929688-19.824219 7.679688-28.925781 4-13.21875 7.777344-25.707032 7.777344-37.671876 0-11.96875-3.777344-24.457031-7.777344-37.671874-2.75-9.105469-5.597656-18.523438-7.679688-28.929688-2.617187-13.082031 1.679688-27.648438 11.785156-39.96875 11.207032-13.671875 27.632813-21.832031 43.917969-21.832031 2.207031 0 4 1.792969 4 4s-1.792969 4-4 4c-13.917969 0-28.03125 7.066406-37.734375 18.90625-8.457031 10.308593-12.234375 22.765625-10.128906 33.328125 2.007812 10.03125 4.800781 19.253906 7.496094 28.175781 4.167968 13.796875 8.121094 26.832031 8.121094 39.992187 0 13.15625-3.945313 26.183594-8.121094 39.988282-2.695313 8.921875-5.488282 18.152344-7.496094 28.179687-2.113281 10.558594 1.671875 23.015625 10.128906 33.328125 9.703125 11.839844 23.816406 18.902344 37.734375 18.902344 17.121094 0 25.5625-4.894531 33.007813-9.214844 5.617187-3.257812 10.921875-6.335937 18.441406-6.335937 7.503906 0 12.816406 3.078125 18.433594 6.335937 7.445312 4.320313 15.886718 9.214844 33.015625 9.214844 13.910156 0 28.023437-7.0625 37.726562-18.902344 8.457031-10.304687 12.230469-22.769531 10.128907-33.328125-2.007813-10.035156-4.800782-19.257812-7.496094-28.179687-4.167969-13.796875-8.121094-26.832032-8.121094-39.988282 0-13.128906 4.007812-26.402343 7.886719-39.242187.640625-2.113281 2.882812-3.304687 4.984375-2.671875 2.121094.640625 3.3125 2.871094 2.671875 4.984375-3.878907 12.839844-7.542969 24.976563-7.542969 36.929687 0 11.964844 3.777344 24.453126 7.777344 37.671876 2.75 9.101562 5.597656 18.519531 7.679687 28.925781 2.613281 13.082031-1.679687 27.65625-11.785156 39.976562-11.207031 13.664063-27.625 21.824219-43.910156 21.824219zm0 0" fill="#785ae6"/><path d="m384.539062 216.15625c-7.503906 0-12.816406-3.070312-18.425781-6.328125-1.558593-.902344-3.183593-1.847656-4.949219-2.773437-1.953124-1.023438-2.714843-3.449219-1.679687-5.402344 1.023437-1.964844 3.453125-2.695313 5.398437-1.679688 1.863282.984375 3.59375 1.984375 5.25 2.945313 5.054688 2.929687 9.046876 5.246093 14.40625 5.246093 5.359376 0 9.351563-2.316406 14.414063-5.253906 3.523437-2.039062 7.515625-4.359375 12.617187-6.273437 2.046876-.757813 4.375.273437 5.152344 2.335937.785156 2.074219-.261718 4.378906-2.335937 5.152344-4.480469 1.679688-8.007813 3.722656-11.414063 5.703125-5.625 3.25-10.929687 6.328125-18.433594 6.328125zm0 0" fill="#785ae6"/><path d="m487.761719 257.621094c-.261719 0-.527344-.023438-.789063-.078125-2.167968-.433594-3.578125-2.535157-3.144531-4.703125 1.96875-9.84375-1.097656-21.179688-8.402344-31.105469-8.582031-11.679687-21.65625-19.488281-34.957031-20.886719-2.195312-.234375-3.792969-2.203125-3.554688-4.394531.234376-2.199219 2.105469-3.800781 4.402344-3.558594 15.503906 1.632813 30.664063 10.648438 40.558594 24.101563 8.632812 11.738281 12.199219 25.378906 9.800781 37.417968-.386719 1.894532-2.046875 3.207032-3.914062 3.207032zm0 0" fill="#785ae6"/><path d="m447.945312 263.839844c0-11.046875-8.941406-20-19.972656-20-11.035156 0-19.976562 8.953125-19.976562 20 0 11.042968 8.941406 20 19.976562 20 11.03125 0 19.972656-8.957032 19.972656-20zm0 0" fill="#f0dc78"/><path d="m344.074219 239.839844c0 6.621094-5.367188 11.988281-11.992188 11.988281-6.621093 0-11.992187-5.367187-11.992187-11.988281 0-6.625 5.371094-11.992188 11.992187-11.992188 6.625 0 11.992188 5.367188 11.992188 11.992188zm0 0" fill="#f0dc78"/><path d="m463.929688 143.839844c0-11.046875-8.941407-20-19.976563-20-11.03125 0-19.972656 8.953125-19.972656 20 0 11.042968 8.941406 20 19.972656 20 11.035156 0 19.976563-8.957032 19.976563-20zm0 0" fill="#aad2ff"/><path d="m443.953125 139.839844c8.1875 0 15.210937 4.941406 18.289063 12 1.074218-2.457032 1.6875-5.152344 1.6875-8 0-11.050782-8.941407-20-19.976563-20-11.03125 0-19.972656 8.949218-19.972656 20 0 2.847656.613281 5.542968 1.6875 8 3.078125-7.058594 10.101562-12 18.285156-12zm0 0" fill="#bee6ff"/><path d="m368.042969 111.839844c0 6.621094-5.367188 11.988281-11.992188 11.988281-6.621093 0-11.992187-5.367187-11.992187-11.988281 0-6.625 5.371094-11.992188 11.992187-11.992188 6.625 0 11.992188 5.367188 11.992188 11.992188zm0 0" fill="#aad2ff"/><path d="m356.050781 107.839844c5.207031 0 9.601563 3.351562 11.257813 8 .445312-1.257813.734375-2.59375.734375-4 0-6.625-5.367188-12-11.984375-12-6.625 0-11.984375 5.375-11.984375 12 0 1.40625.289062 2.742187.738281 4 1.636719-4.648438 6.03125-8 11.238281-8zm0 0" fill="#bee6ff"/><path d="m356.050781 127.839844c-8.816406 0-15.984375-7.179688-15.984375-16 0-8.824219 7.167969-16 15.984375-16 8.816407 0 15.984375 7.175781 15.984375 16 0 8.820312-7.167968 16-15.984375 16zm0-24c-4.40625 0-7.984375 3.589844-7.984375 8 0 4.40625 3.578125 8 7.984375 8 4.410157 0 7.984375-3.59375 7.984375-8 0-4.410156-3.574218-8-7.984375-8zm0 0" fill="#785ae6"/><path d="m443.953125 287.839844c-8.820313 0-15.980469 7.15625-15.980469 16v-24c0-8.84375-7.152344-16-15.984375-16s-15.984375 7.15625-15.984375 16v-16c0-8.84375-7.152344-16-15.984375-16-8.824219 0-15.984375 7.15625-15.984375 16v16c0-8.84375-7.152344-16-15.984375-16-8.824219 0-15.984375 7.15625-15.984375 16v80c0-13.257813-10.734375-24-23.976562-24-4.414063 0-7.992188 3.582031-7.992188 8v36.117187c0 12.730469 5.050782 24.9375 14.042969 33.945313l17.917969 17.945312 23.976562 23.765625v40.226563h87.902344v-40.234375l12.554688-29.296875c2.261718-5.671875 3.429687-11.71875 3.429687-17.824219v-104.644531c.015625-8.84375-7.144531-16-15.96875-16zm0 0" fill="#ffb4be"/><path d="m356.050781 479.839844h87.902344v16h-87.902344zm0 0" fill="#f0a0aa"/><path d="m380.027344 263.839844c8.824218 0 15.984375 7.15625 15.984375 16v-16c0-8.84375-7.152344-16-15.984375-16-8.824219 0-15.984375 7.15625-15.984375 16v16c0-8.84375 7.160156-16 15.984375-16zm0 0" fill="#ffc8d2"/><path d="m443.953125 287.839844c-8.820313 0-15.980469 7.15625-15.980469 16v16c0-8.84375 7.148438-16 15.980469-16 8.824219 0 15.984375 7.15625 15.984375 16v-16c0-8.84375-7.160156-16-15.984375-16zm0 0" fill="#ffc8d2"/><path d="m411.996094 279.839844c8.824218 0 15.984375 7.15625 15.984375 16v-16c0-8.84375-7.152344-16-15.984375-16-8.832032 0-15.984375 7.15625-15.984375 16v16c0-8.84375 7.152343-16 15.984375-16zm0 0" fill="#ffc8d2"/><path d="m348.058594 279.839844c8.824218 0 15.984375 7.15625 15.984375 16v-16c0-8.84375-7.152344-16-15.984375-16-8.824219 0-15.984375 7.15625-15.984375 16v16c.007812-8.84375 7.160156-16 15.984375-16zm0 0" fill="#ffc8d2"/><path d="m308.105469 351.839844c13.242187 0 23.976562 10.742187 23.976562 24v-16c0-13.257813-10.734375-24-23.976562-24-4.414063 0-7.992188 3.582031-7.992188 8v16c0-4.417969 3.578125-8 7.992188-8zm0 0" fill="#ffc8d2"/><path d="m364.53125 339.839844c-2.207031 0-4-1.792969-4-4v-53.859375c0-2.207031 1.792969-4 4-4s4 1.792969 4 4v53.859375c0 2.207031-1.792969 4-4 4zm0 0" fill="#f09696"/><path d="m332.5625 395.839844c-2.207031 0-4-1.792969-4-4v-29.859375c0-2.207031 1.792969-4 4-4s4 1.792969 4 4v29.859375c0 2.207031-1.792969 4-4 4zm0 0" fill="#f09696"/><path d="m396.492188 339.839844c-2.210938 0-4-1.792969-4-4v-53.859375c0-2.207031 1.789062-4 4-4 2.207031 0 4 1.792969 4 4v53.859375c0 2.207031-1.792969 4-4 4zm0 0" fill="#f09696"/><path d="m428.460938 339.839844c-2.210938 0-4-1.792969-4-4v-29.859375c0-2.207031 1.789062-4 4-4 2.207031 0 4 1.792969 4 4v29.859375c0 2.207031-1.792969 4-4 4zm0 0" fill="#f09696"/><path d="m459.929688 335.742188c-2.207032 0-4-1.792969-4-4v-27.902344c0-6.617188-5.375-12-11.976563-12-6.605469 0-11.980469 5.382812-11.980469 12 0 2.207031-1.792968 4-4 4-2.210937 0-4-1.792969-4-4v-24c0-6.617188-5.378906-12-11.984375-12-6.609375 0-11.984375 5.382812-11.984375 12 0 2.207031-1.792968 4-4 4-2.207031 0-4-1.792969-4-4v-16c0-6.617188-5.375-12-11.976562-12-6.609375 0-11.984375 5.382812-11.984375 12v16c0 2.207031-1.792969 4-4 4s-4-1.792969-4-4c0-6.617188-5.375-12-11.984375-12-6.597656 0-11.976563 5.382812-11.976563 12 0 2.207031-1.792969 4-4 4s-4-1.792969-4-4c0-11.027344 8.960938-20 19.976563-20 4.496094 0 8.640625 1.496094 11.984375 4 0-11.027344 8.96875-20 19.984375-20s19.976562 8.972656 19.976562 20c3.34375-2.515625 7.496094-4 11.984375-4 11.015625 0 19.984375 8.972656 19.984375 20v8c3.34375-2.515625 7.496094-4 11.980469-4 11.019531 0 19.976563 8.972656 19.976563 20v27.902344c0 2.214843-1.78125 4-4 4zm0 0" fill="#785ae6"/><path d="m443.953125 499.839844h-87.902344c-2.207031 0-4-1.792969-4-4v-38.570313l-40.71875-40.542969c-9.816406-9.824218-15.21875-22.878906-15.21875-36.769531v-36.117187c0-6.617188 5.386719-12 11.992188-12 8.3125 0 15.792969 3.644531 20.914062 9.421875.734375-.871094 1.839844-1.421875 3.0625-1.421875 2.207031 0 4 1.789062 4 4v16c0 2.207031-1.792969 4-4 4s-4-1.792969-4-4c0-11.027344-8.960937-20-19.976562-20-2.199219 0-3.992188 1.789062-3.992188 4v36.117187c0 11.753907 4.570313 22.808594 12.875 31.113281l41.871094 41.695313c.757813.753906 1.183594 1.777344 1.183594 2.839844v36.234375h79.902343v-36.234375c0-.542969.113282-1.078125.320313-1.574219l12.554687-29.304688c2.046876-5.136718 3.101563-10.632812 3.101563-16.257812v-44.527344c0-2.207031 1.792969-4 4-4 2.210937 0 4 1.792969 4 4v44.527344c0 6.640625-1.246094 13.136719-3.703125 19.3125l-12.273438 28.640625v39.417969c.007813 2.207031-1.773437 4-3.992187 4zm0 0" fill="#785ae6"/><path d="m332.082031 325.046875c-2.207031 0-4-1.792969-4-4v-18c0-2.207031 1.792969-4 4-4s4 1.792969 4 4v18c0 2.207031-1.792969 4-4 4zm0 0" fill="#785ae6"/><path d="m443.953125 167.839844c-13.214844 0-23.972656-10.769532-23.972656-24 0-13.234375 10.757812-24 23.972656-24 13.21875 0 23.976563 10.765625 23.976563 24 0 13.230468-10.75 24-23.976563 24zm0-40c-8.8125 0-15.972656 7.175781-15.972656 16 0 8.820312 7.167969 16 15.972656 16 8.808594 0 15.976563-7.179688 15.976563-16 0-8.824219-7.160157-16-15.976563-16zm0 0" fill="#785ae6"/><path d="m40.417969 107.839844 11.3125 20.6875 20.6875 11.3125-20.6875 11.308594-11.3125 20.691406-11.3125-20.691406-20.6875-11.308594 20.6875-11.3125zm0 0" fill="#ffe885"/><path d="m29.105469 136.527344 11.3125-12.6875 11.3125 12.6875 20.6875 3.3125-20.6875-11.3125-11.3125-20.6875-11.3125 20.6875-20.6875 11.3125zm0 0" fill="#fffa96"/><path d="m128.417969 3.839844 16.96875 31.03125 31.03125 16.96875-31.03125 16.964844-16.96875 31.035156-16.96875-31.035156-31.03125-16.964844 31.03125-16.96875zm0 0" fill="#ffe885"/><path d="m111.449219 50.871094 16.96875-31.03125 16.96875 31.03125 24.410156.96875h6.621094l-31.03125-16.96875-16.96875-31.03125-16.96875 31.03125-31.03125 16.96875h6.625zm0 0" fill="#fffa96"/><path d="m40.417969 175.839844c-1.464844 0-2.808594-.800782-3.503907-2.082032l-10.75-19.65625-19.664062-10.757812c-1.28125-.699219-2.082031-2.042969-2.082031-3.503906 0-1.464844.800781-2.808594 2.082031-3.503906l19.65625-10.753907 10.75-19.65625c1.402344-2.566406 5.617188-2.566406 7.015625 0l10.753906 19.65625 19.65625 10.753907c1.285157.695312 2.085938 2.039062 2.085938 3.503906 0 1.460937-.800781 2.804687-2.078125 3.503906l-19.65625 10.75-10.761719 19.664062c-.695313 1.28125-2.039063 2.082032-3.503906 2.082032zm-23.664063-36 14.273438 7.804687c.671875.371094 1.222656.921875 1.589844 1.59375l7.800781 14.265625 7.808593-14.273437c.367188-.671875.921876-1.222657 1.59375-1.59375l14.261719-7.796875-14.269531-7.808594c-.671875-.371094-1.226562-.921875-1.59375-1.59375l-7.800781-14.261719-7.808594 14.269531c-.367187.671876-.917969 1.226563-1.589844 1.59375zm0 0" fill="#785ae6"/><path d="m128.417969 103.839844c-1.464844 0-2.808594-.800782-3.503907-2.082032l-16.414062-30-30-16.40625c-1.28125-.707031-2.082031-2.050781-2.082031-3.511718 0-1.464844.800781-2.808594 2.082031-3.503906l30-16.410157 16.40625-30c1.402344-2.566406 5.617188-2.566406 7.015625 0l16.410156 30 30 16.410157c1.285157.695312 2.085938 2.039062 2.085938 3.503906 0 1.460937-.800781 2.804687-2.078125 3.503906l-30 16.414062-16.410156 30c-.703126 1.28125-2.046876 2.082032-3.511719 2.082032zm-39.664063-52 24.617188 13.460937c.671875.371094 1.222656.921875 1.59375 1.59375l13.453125 24.609375 13.464843-24.617187c.367188-.671875.921876-1.226563 1.59375-1.59375l24.605469-13.453125-24.613281-13.464844c-.671875-.367188-1.226562-.921875-1.59375-1.59375l-13.457031-24.605469-13.464844 24.613281c-.367187.671876-.917969 1.226563-1.589844 1.59375zm0 0" fill="#785ae6"/></svg>