<svg height="453pt" viewBox="0 0 453 453.46" width="453pt" xmlns="http://www.w3.org/2000/svg"><path d="m66.574219 377.667969s6.816406 25.316406 26.441406 26.492187c0 0-26.199219 9.050782-26.640625 28.402344 0 0-5.160156-27.140625-25.851562-28.117188 0 .003907 24.101562-3.648437 26.050781-26.777343zm0 0" fill="#d7e057"/><path d="m66.371094 435.5625c-1.425782 0-2.667969-1.011719-2.945313-2.433594-.046875-.246094-4.988281-24.835937-23.042969-25.683594-1.542968-.074218-2.777343-1.300781-2.855468-2.839843-.082032-1.542969 1.019531-2.890625 2.546875-3.121094.882812-.136719 21.789062-3.632813 23.507812-24.066406.125-1.449219 1.269531-2.601563 2.71875-2.734375 1.464844-.121094 2.789063.796875 3.167969 2.203125.0625.234375 6.519531 23.253906 23.726562 24.285156 1.425782.085937 2.59375 1.167969 2.792969 2.582031.195313 1.417969-.636719 2.777344-1.988281 3.246094-.242188.085938-24.238281 8.621094-24.625 25.636719-.035156 1.535156-1.21875 2.792969-2.75 2.921875-.085938 0-.167969.003906-.253906.003906zm-15.480469-31.457031c7.757813 3.9375 12.457031 11.492187 15.175781 17.753906 4.050782-8.042969 11.878906-13.574219 17.894532-16.855469-8.269532-3.683594-13.566407-11.300781-16.667969-17.445312-3.585938 8.722656-10.542969 13.738281-16.402344 16.546875zm0 0" fill="#3a312a"/><path d="m23.175781 411.628906s4.820313 17.910156 18.703125 18.738282c0 0-18.53125 6.402343-18.84375 20.089843 0 0-3.648437-19.199219-18.285156-19.886719 0 0 17.046875-2.582031 18.425781-18.941406zm0 0" fill="#d7e057"/><path d="m23.03125 453.460938c-1.425781 0-2.671875-1.015626-2.945312-2.441407-.03125-.160156-3.40625-16.882812-15.476563-17.453125-1.542969-.074218-2.777344-1.300781-2.855469-2.839844-.082031-1.542968 1.019532-2.890624 2.546875-3.121093.59375-.09375 14.726563-2.488281 15.882813-16.230469.125-1.449219 1.273437-2.605469 2.722656-2.734375 1.445312-.125 2.785156.796875 3.164062 2.203125.042969.160156 4.453126 15.839844 15.988282 16.53125 1.425781.085938 2.597656 1.167969 2.789062 2.585938.195313 1.417968-.640625 2.773437-1.992187 3.242187-.160157.058594-16.5625 5.90625-16.824219 17.324219-.03125 1.535156-1.21875 2.796875-2.75 2.921875-.082031.007812-.167969.011719-.25.011719zm-9.035156-23.058594c4.214844 2.667968 7.046875 6.792968 8.894531 10.5625 2.75-4.464844 7.03125-7.746094 10.726563-9.945313-4.574219-2.539062-7.769532-6.699219-9.878907-10.449219-2.347656 4.574219-6.03125 7.75-9.742187 9.832032zm0 0" fill="#3a312a"/><path d="m23.175781 358.3125s4.820313 17.910156 18.703125 18.742188c0 0-18.53125 6.402343-18.84375 20.089843 0 0-3.648437-19.199219-18.285156-19.886719 0 0 17.046875-2.582031 18.425781-18.945312zm0 0" fill="#d7e057"/><g fill="#3a312a"><path d="m23.03125 400.144531c-1.425781 0-2.671875-1.015625-2.945312-2.441406-.03125-.164063-3.40625-16.882813-15.476563-17.449219-1.542969-.074218-2.777344-1.304687-2.855469-2.84375-.082031-1.542968 1.019532-2.890625 2.546875-3.121094.59375-.09375 14.726563-2.488281 15.882813-16.226562.125-1.453125 1.273437-2.605469 2.722656-2.738281 1.445312-.121094 2.785156.800781 3.164062 2.207031.042969.15625 4.453126 15.835938 15.988282 16.527344 1.425781.085937 2.597656 1.167968 2.789062 2.585937.195313 1.417969-.640625 2.777344-1.992187 3.242188-.160157.058593-16.5625 5.90625-16.824219 17.324219-.03125 1.535156-1.21875 2.796874-2.75 2.921874-.082031.007813-.167969.011719-.25.011719zm-9.035156-23.054687c4.214844 2.667968 7.046875 6.789062 8.894531 10.558594 2.75-4.460938 7.027344-7.742188 10.726563-9.945313-4.574219-2.539063-7.769532-6.699219-9.878907-10.445313-2.347656 4.570313-6.03125 7.75-9.742187 9.832032zm0 0"/><path d="m362.84375 326h-271.226562c-23.921876 0-43.386719-19.464844-43.386719-43.386719v-61.722656c0-1.65625 1.34375-3 3-3s3 1.34375 3 3v61.722656c0 20.613281 16.773437 37.386719 37.386719 37.386719h271.222656c20.617187 0 37.390625-16.773438 37.390625-37.386719v-63.613281c0-1.65625 1.34375-3 3-3 1.652343 0 3 1.34375 3 3v63.613281c0 23.921875-19.464844 43.386719-43.386719 43.386719zm0 0"/><path d="m274.84375 406h-95.222656c-23.925782 0-43.386719-19.464844-43.386719-43.386719v-69.574219c0-1.660156 1.34375-3 3-3s3 1.339844 3 3v69.574219c0 20.613281 16.773437 37.386719 37.386719 37.386719h95.222656c20.613281 0 37.386719-16.773438 37.386719-37.386719v-71.613281c0-1.65625 1.34375-3 3-3s3 1.34375 3 3v71.613281c0 23.921875-19.464844 43.386719-43.386719 43.386719zm0 0"/></g><path d="m213.230469 240.359375v163.640625h28v-322.179688c-1.378907.121094-2.78125.179688-4.199219.179688h-19.601562c-1.417969 0-2.820313-.058594-4.199219-.179688zm0 0" fill="#87796f"/><path d="m241.230469 407h-28c-1.65625 0-3-1.34375-3-3v-163.640625c0-1.660156 1.34375-3 3-3s3 1.339844 3 3v160.640625h22v-316.015625c-.398438.007813-.796875.015625-1.199219.015625h-19.601562c-.398438 0-.800782-.003906-1.199219-.015625v127.324219c0 1.65625-1.34375 3-3 3s-3-1.34375-3-3v-130.488282c0-.839843.355469-1.644531.972656-2.210937.621094-.570313 1.457031-.851563 2.289063-.777344 1.28125.113281 2.605468.167969 3.9375.167969h19.601562c1.332031 0 2.65625-.054688 3.941406-.167969.839844-.078125 1.667969.207031 2.289063.777344.617187.566406.972656 1.371094.972656 2.210937v322.179688c-.003906 1.65625-1.347656 3-3.003906 3zm0 0" fill="#3a312a"/><path d="m69.628906 146.460938v97.738281h-35.238281v-95.378907c4.460937 3.757813 10.179687 5.578126 16.421875 5.578126 7.417969 0 14.117188-2.597657 18.816406-7.9375zm0 0" fill="#87796f"/><path d="m69.628906 247.199219h-35.238281c-1.65625 0-3-1.339844-3-3v-95.378907c0-1.167968.679687-2.226562 1.734375-2.71875 1.058594-.488281 2.304688-.328124 3.199219.425782 3.785156 3.1875 8.792969 4.871094 14.488281 4.871094 6.851562 0 12.582031-2.390626 16.566406-6.921876.824219-.9375 2.144532-1.261718 3.308594-.824218 1.167969.441406 1.941406 1.558594 1.941406 2.808594v97.738281c0 1.660156-1.34375 3-3 3zm-32.238281-6h29.238281v-88.230469c-4.464844 2.890625-9.894531 4.433594-15.816406 4.433594-4.921875 0-9.46875-1.035156-13.421875-3.03125zm0 0" fill="#3a312a"/><path d="m76.574219 124.75c0 20.140625-11.539063 29.65625-25.769531 29.65625-14.230469 0-25.769532-9.519531-25.769532-29.65625 0-20.140625 20.417969-42.300781 25.769532-42.300781 5.347656 0 25.769531 22.160156 25.769531 42.300781zm0 0" fill="#d7e057"/><path d="m50.804688 157.40625c-17.476563 0-28.769532-12.816406-28.769532-32.65625 0-20.625 20.640625-45.300781 28.769532-45.300781 8.125 0 28.769531 24.671875 28.769531 45.300781 0 19.839844-11.292969 32.65625-28.769531 32.65625zm0-71.941406c-4.402344 1.023437-22.769532 20.828125-22.769532 39.289062 0 16.691406 8.511719 26.65625 22.769532 26.65625 14.257812 0 22.769531-9.964844 22.769531-26.65625 0-18.457031-18.371094-38.265625-22.769531-39.289062zm0 0" fill="#3a312a"/><path d="m3.230469 244.195312c.613281 25.757813 21.667969 46.453126 47.574219 46.453126s46.960937-20.695313 47.574218-46.453126zm0 0" fill="#f16c7a"/><path d="m50.804688 293.652344c-27.238282 0-49.929688-22.15625-50.574219-49.382813-.019531-.808593.289062-1.589843.855469-2.167969.5625-.578124 1.335937-.902343 2.144531-.902343h95.144531c.808594 0 1.582031.324219 2.148438.902343.5625.578126.871093 1.359376.851562 2.167969-.644531 27.226563-23.332031 49.382813-50.570312 49.382813zm-44.394532-46.457032c2.117188 22.574219 21.417969 40.457032 44.394532 40.457032 22.972656 0 42.277343-17.882813 44.390624-40.457032zm0 0" fill="#3a312a"/><path d="m156.589844 226.460938v97.738281h-35.238282v-95.359375c4.460938 3.738281 10.160157 5.558594 16.398438 5.558594 7.441406 0 14.121094-2.597657 18.839844-7.9375zm0 0" fill="#87796f"/><path d="m156.589844 327.199219h-35.238282c-1.65625 0-3-1.339844-3-3v-95.359375c0-1.164063.675782-2.226563 1.734376-2.71875 1.054687-.492188 2.300781-.328125 3.195312.421875 3.789062 3.175781 8.792969 4.859375 14.46875 4.859375 6.851562 0 12.589844-2.394532 16.59375-6.925782.824219-.9375 2.148438-1.257812 3.308594-.820312 1.167968.441406 1.9375 1.558594 1.9375 2.804688v97.742187c0 1.65625-1.34375 2.996094-3 2.996094zm-32.238282-6h29.238282v-88.210938c-4.457032 2.90625-9.824219 4.414063-15.839844 4.414063-4.90625 0-9.449219-1.035156-13.398438-3.023438zm0 0" fill="#3a312a"/><path d="m163.523438 204.75c0 20.140625-11.535157 29.65625-25.765626 29.65625-14.230468 0-25.769531-9.519531-25.769531-29.65625 0-20.140625 20.421875-42.300781 25.769531-42.300781 5.34375 0 25.765626 22.160156 25.765626 42.300781zm0 0" fill="#d7e057"/><path d="m137.753906 237.40625c-17.476562 0-28.765625-12.816406-28.765625-32.65625 0-20.625 20.640625-45.300781 28.765625-45.300781s28.769532 24.671875 28.769532 45.300781c0 19.839844-11.292969 32.65625-28.769532 32.65625zm0-71.941406c-4.398437 1.023437-22.765625 20.832031-22.765625 39.289062 0 16.691406 8.511719 26.65625 22.765625 26.65625 14.257813 0 22.769532-9.964844 22.769532-26.65625 0-18.460937-18.367188-38.269531-22.769532-39.289062zm0 0" fill="#3a312a"/><path d="m90.183594 324.195312c.609375 25.757813 21.667968 46.453126 47.574218 46.453126s46.960938-20.695313 47.574219-46.453126zm0 0" fill="#f16c7a"/><path d="m137.753906 373.652344c-27.238281 0-49.925781-22.15625-50.570312-49.382813-.019532-.808593.289062-1.589843.851562-2.167969.566406-.578124 1.339844-.902343 2.148438-.902343h95.144531c.808594 0 1.582031.324219 2.148437.902343.5625.578126.871094 1.359376.851563 2.167969-.644531 27.226563-23.332031 49.382813-50.574219 49.382813zm-44.394531-46.457032c2.121094 22.574219 21.417969 40.457032 44.394531 40.457032 22.976563 0 42.277344-17.882813 44.394532-40.457032zm0 0" fill="#3a312a"/><path d="m333.53125 226.460938v97.738281h-35.21875v-95.359375c4.457031 3.738281 10.160156 5.558594 16.398438 5.558594 7.417968 0 14.121093-2.597657 18.820312-7.9375zm0 0" fill="#87796f"/><path d="m333.53125 327.199219h-35.21875c-1.65625 0-3-1.339844-3-3v-95.359375c0-1.164063.675781-2.226563 1.730469-2.71875 1.054687-.492188 2.300781-.328125 3.195312.421875 3.789063 3.175781 8.792969 4.859375 14.472657 4.859375 6.851562 0 12.582031-2.394532 16.566406-6.921875.828125-.9375 2.148437-1.265625 3.3125-.824219 1.167968.441406 1.941406 1.558594 1.941406 2.804688v97.742187c0 1.65625-1.34375 2.996094-3 2.996094zm-32.21875-6h29.21875v-88.234375c-4.46875 2.890625-9.898438 4.433594-15.820312 4.433594-4.90625 0-9.453126-1.03125-13.398438-3.019532zm0 0" fill="#3a312a"/><path d="m340.476562 204.75c0 20.140625-11.539062 29.65625-25.769531 29.65625s-25.769531-9.519531-25.769531-29.65625c0-20.140625 20.421875-42.300781 25.769531-42.300781 5.347657 0 25.769531 22.160156 25.769531 42.300781zm0 0" fill="#d7e057"/><path d="m314.707031 237.40625c-17.476562 0-28.769531-12.816406-28.769531-32.65625 0-20.625 20.640625-45.300781 28.769531-45.300781 8.125 0 28.769531 24.671875 28.769531 45.300781 0 19.839844-11.292968 32.65625-28.769531 32.65625zm0-71.941406c-4.402343 1.023437-22.769531 20.828125-22.769531 39.289062 0 16.691406 8.511719 26.65625 22.769531 26.65625 14.253907 0 22.769531-9.964844 22.769531-26.65625 0-18.457031-18.367187-38.265625-22.769531-39.289062zm0 0" fill="#3a312a"/><path d="m267.132812 324.195312c.613282 25.757813 21.667969 46.453126 47.574219 46.453126s46.960938-20.695313 47.574219-46.453126zm0 0" fill="#f16c7a"/><path d="m314.707031 373.652344c-27.242187 0-49.929687-22.15625-50.574219-49.382813-.019531-.808593.289063-1.589843.855469-2.167969.5625-.578124 1.335938-.902343 2.144531-.902343h95.144532c.808594 0 1.582031.324219 2.148437.902343.5625.578126.871094 1.359376.851563 2.167969-.644532 27.226563-23.332032 49.382813-50.570313 49.382813zm-44.394531-46.457032c2.117188 22.574219 21.417969 40.457032 44.394531 40.457032 22.972657 0 42.277344-17.882813 44.390625-40.457032zm0 0" fill="#3a312a"/><path d="m179.65625 404c.613281 25.757812 21.667969 46.457031 47.574219 46.457031s46.960937-20.695312 47.574219-46.457031zm0 0" fill="#d7e057"/><path d="m227.230469 453.457031c-27.238281 0-49.925781-22.15625-50.574219-49.386719-.015625-.804687.289062-1.585937.855469-2.164062.5625-.578125 1.335937-.902344 2.144531-.902344h95.148438c.808593 0 1.582031.324219 2.144531.902344.566406.578125.875 1.359375.855469 2.164062-.644532 27.230469-23.332032 49.386719-50.574219 49.386719zm-44.394531-46.457031c2.117187 22.570312 21.417968 40.453125 44.394531 40.453125 22.976562 0 42.277343-17.882813 44.394531-40.453125zm0 0" fill="#3a312a"/><path d="m420.492188 146.441406v97.757813h-35.242188v-95.378907c4.460938 3.757813 10.179688 5.578126 16.402344 5.578126 7.4375 0 14.136718-2.597657 18.839844-7.957032zm0 0" fill="#87796f"/><path d="m420.492188 247.199219h-35.242188c-1.65625 0-3-1.339844-3-3v-95.378907c0-1.167968.679688-2.226562 1.734375-2.71875 1.058594-.488281 2.304687-.328124 3.199219.425782 3.785156 3.1875 8.789062 4.871094 14.46875 4.871094 6.867187 0 12.601562-2.398438 16.582031-6.9375.828125-.941407 2.148437-1.269532 3.3125-.828126 1.167969.4375 1.945313 1.558594 1.945313 2.808594v97.757813c0 1.660156-1.34375 3-3 3zm-32.242188-6h29.242188v-88.238281c-4.46875 2.894531-9.90625 4.441406-15.839844 4.441406-4.914063 0-9.457032-1.035156-13.402344-3.03125zm0 0" fill="#3a312a"/><path d="m427.425781 124.75c0 20.140625-11.535156 29.65625-25.765625 29.65625-14.234375 0-25.769531-9.519531-25.769531-29.65625 0-20.140625 20.421875-42.300781 25.769531-42.300781 5.34375 0 25.765625 22.160156 25.765625 42.300781zm0 0" fill="#d7e057"/><path d="m401.65625 157.40625c-17.476562 0-28.765625-12.816406-28.765625-32.65625 0-20.625 20.640625-45.300781 28.765625-45.300781s28.769531 24.671875 28.769531 45.300781c0 19.839844-11.292969 32.65625-28.769531 32.65625zm0-71.941406c-4.398438 1.023437-22.765625 20.832031-22.765625 39.289062 0 16.691406 8.511719 26.65625 22.765625 26.65625 14.257812 0 22.769531-9.964844 22.769531-26.65625 0-18.460937-18.367187-38.269531-22.769531-39.289062zm0 0" fill="#3a312a"/><path d="m354.085938 244.195312c.609374 25.757813 21.667968 46.453126 47.574218 46.453126s46.960938-20.695313 47.574219-46.453126zm0 0" fill="#f16c7a"/><path d="m401.65625 293.652344c-27.238281 0-49.925781-22.15625-50.570312-49.382813-.019532-.808593.289062-1.589843.851562-2.167969.566406-.578124 1.339844-.902343 2.148438-.902343h95.144531c.808593 0 1.582031.324219 2.144531.902343.566406.578126.875 1.359376.855469 2.167969-.644531 27.226563-23.332031 49.382813-50.574219 49.382813zm-44.390625-46.457032c2.117187 22.574219 21.417969 40.457032 44.390625 40.457032 22.976562 0 42.277344-17.882813 44.394531-40.457032zm0 0" fill="#3a312a"/><path d="m178.648438 3h-42.417969c0 16.015625 12.984375 29 29 29h124c16.015625 0 29-12.984375 29-29zm0 0" fill="#f16c7a"/><path d="m289.230469 35h-124c-17.644531 0-32-14.355469-32-32 0-1.65625 1.34375-3 3-3h42.417969c1.65625 0 3 1.34375 3 3s-1.34375 3-3 3h-39.246094c1.492187 12.929688 12.507812 23 25.828125 23h124c13.324219 0 24.335937-10.070312 25.828125-23h-109.90625c-1.65625 0-3-1.34375-3-3s1.34375-3 3-3h113.078125c1.65625 0 3 1.34375 3 3 0 17.644531-14.355469 32-32 32zm0 0" fill="#3a312a"/><path d="m287.03125 32h-119.601562c0 27.613281 22.386718 50 50 50h19.601562c27.613281 0 50-22.382812 50-50zm0 0" fill="#d7e057"/><path d="m237.03125 85h-19.601562c-29.222657 0-53-23.777344-53-53 0-1.65625 1.34375-3 3-3h119.601562c1.65625 0 3 1.34375 3 3 0 29.226562-23.773438 53-53 53zm-66.507812-50c1.550781 24.523438 21.996093 44 46.90625 44h19.601562c24.90625 0 45.351562-19.476562 46.90625-44zm0 0" fill="#3a312a"/><path d="m315.050781 6c-1.480469 12.921875-12.5 23-25.820312 23h-30c13.320312 0 24.339843-10.078125 25.820312-23zm0 0" fill="#d34e5c"/><path d="m283.929688 35c-1.539063 24.519531-22 44-46.898438 44h-19.601562c-1.757813 0-3.480469-.101562-5.199219-.300781 22.5-2.480469 40.261719-20.898438 41.699219-43.699219zm0 0" fill="#b9c239"/></svg>