<svg id="Sponge" height="512" viewBox="0 0 64 64" width="512" xmlns="http://www.w3.org/2000/svg"><path d="m3 53h58v8h-58z" fill="#b39a7c"/><rect fill="#ffda44" height="22" rx="4" width="30" x="17" y="3"/><circle cx="5" cy="34" fill="#bdfdff" r="2"/><circle cx="44" cy="32" fill="#bdfdff" r="2"/><g fill="#ff9811"><path d="m28 25h-6a3 3 0 0 1 6 0z"/><path d="m17 11a3 3 0 0 1 0 6z"/><path d="m29 3h6a3 3 0 0 1 -6 0z"/><circle cx="27" cy="17" r="2"/><circle cx="24" cy="8" r="2"/><path d="m39.99 10.85a2 2 0 1 1 -2.14-1.84 1.988 1.988 0 0 1 2.14 1.84z"/><path d="m47 11v6a3 3 0 0 1 0-6z"/><path d="m37.99 19.85a2 2 0 1 1 -2.14-1.84 1.988 1.988 0 0 1 2.14 1.84z"/></g><path d="m59 51a5.8 5.8 0 0 1 -.35 2 5.987 5.987 0 0 1 -10.83 1.01 3 3 0 0 1 -5.82-1.01h-22v3a2.006 2.006 0 0 1 -2 2 2.015 2.015 0 0 1 -2-2v-2a2.015 2.015 0 0 1 -2 2 2.006 2.006 0 0 1 -2-2v-1h-5a5 5 0 0 1 3-9 4.932 4.932 0 0 1 2.03.44 7.99 7.99 0 0 1 13.12-5.56 7.987 7.987 0 0 1 13.36-.52 8.926 8.926 0 0 1 8.32 1.79 5.069 5.069 0 0 1 1.17-.15 5 5 0 0 1 5 5 6 6 0 0 1 6 6z" fill="#2488ff"/><path d="m21 26h22a5.006 5.006 0 0 0 5-5v-14a5.006 5.006 0 0 0 -5-5h-22a5.006 5.006 0 0 0 -5 5v14a5.006 5.006 0 0 0 5 5zm2.278-2a1.983 1.983 0 0 1 3.444 0zm22.722-8.278a1.983 1.983 0 0 1 0-3.444zm-12.278-11.722a1.983 1.983 0 0 1 -3.444 0zm-12.722 0h7.142a3.981 3.981 0 0 0 7.716 0h7.142a3 3 0 0 1 3 3v3.142a3.981 3.981 0 0 0 0 7.716v3.142a3 3 0 0 1 -3 3h-14.142a3.981 3.981 0 0 0 -7.716 0h-.142a3 3 0 0 1 -3-3v-3.142a3.981 3.981 0 0 0 0-7.716v-3.142a3 3 0 0 1 3-3zm-3 11.722v-3.444a1.983 1.983 0 0 1 0 3.444z"/><path d="m24 17a3 3 0 1 0 3-3 3 3 0 0 0 -3 3zm4 0a1 1 0 1 1 -1-1 1 1 0 0 1 1 1z"/><path d="m35.994 23c.076 0 .153 0 .23-.009a3 3 0 0 0 1.733-5.265 2.947 2.947 0 0 0 -2.181-.717 3 3 0 0 0 .218 5.991zm-.752-3.652a.989.989 0 0 1 .684-.348h.076a1 1 0 0 1 .073 2 1 1 0 0 1 -.832-1.649z"/><path d="m37.994 14c.076 0 .153 0 .23-.009a2.981 2.981 0 1 0 -.23.009zm-.752-3.652a.989.989 0 0 1 .684-.348h.076a1 1 0 0 1 .073 2 1.007 1.007 0 0 1 -.726-.239 1 1 0 0 1 -.106-1.41z"/><path d="m24 11a3 3 0 1 0 -3-3 3 3 0 0 0 3 3zm0-4a1 1 0 1 1 -1 1 1 1 0 0 1 1-1z"/><path d="m61 52h-1.09a6.638 6.638 0 0 0 .09-1 7.013 7.013 0 0 0 -6.07-6.94 6.021 6.021 0 0 0 -5.93-5.06 5.9 5.9 0 0 0 -.91.08 9.973 9.973 0 0 0 -8.19-1.85 9.053 9.053 0 0 0 -6.9-3.23 8.94 8.94 0 0 0 -7.09 3.46 8.986 8.986 0 0 0 -13.7 5.66 6.13 6.13 0 0 0 -1.21-.12 5.978 5.978 0 0 0 -5.18 9h-1.82a1 1 0 0 0 -1 1v8a1 1 0 0 0 1 1h58a1 1 0 0 0 1-1v-8a1 1 0 0 0 -1-1zm-51.923-6.894a3.966 3.966 0 0 1 2.543.244.969.969 0 0 0 .92-.05 1.026 1.026 0 0 0 .49-.79 6.987 6.987 0 0 1 11.48-4.86 1.049 1.049 0 0 0 .8.22 1.017 1.017 0 0 0 .7-.47 6.939 6.939 0 0 1 5.99-3.4 7.037 7.037 0 0 1 5.7 2.94.982.982 0 0 0 1.09.38 7.973 7.973 0 0 1 7.345 1.552 1.077 1.077 0 0 0 .928.247 4.272 4.272 0 0 1 .937-.119 4 4 0 0 1 4 3.988 1.014 1.014 0 0 0 1 1.012 5.012 5.012 0 1 1 -2.6 9.307 5.138 5.138 0 0 1 -1.727-1.831 1 1 0 0 0 -1.789.2 2 2 0 0 1 -2.7 1.149 2.128 2.128 0 0 1 -1.184-1.884 1 1 0 0 0 -1-.941h-22a1 1 0 0 0 -1 1v3a1 1 0 0 1 -1 1 .949.949 0 0 1 -.71-.31.928.928 0 0 1 -.29-.69v-3a1 1 0 0 0 -1-1 1 1 0 0 0 -1 1v1a.949.949 0 0 1 -.31.71.928.928 0 0 1 -.69.29 1 1 0 0 1 -1-1v-1a1 1 0 0 0 -1-1h-4.61a3.922 3.922 0 0 1 -.267-5.74 3.813 3.813 0 0 1 1.954-1.154zm50.923 14.894h-56v-6h7a2.994 2.994 0 0 0 4.12 2.78 2.8 2.8 0 0 0 .75 1.33 2.971 2.971 0 0 0 2.13.89 3.009 3.009 0 0 0 3-3v-2h20.13a3.993 3.993 0 0 0 6.75 1.77 6.974 6.974 0 0 0 11.42-1.77h.7z"/><path d="m5 37a3 3 0 1 0 -3-3 3 3 0 0 0 3 3zm0-4a1 1 0 1 1 -1 1 1 1 0 0 1 1-1z"/><path d="m10 22h2v2h-2z"/><path d="m12 24h2v2h-2z"/><path d="m10 26h2v2h-2z"/><path d="m8 24h2v2h-2z"/><path d="m55 17h2v2h-2z"/><path d="m57 19h2v2h-2z"/><path d="m55 21h2v2h-2z"/><path d="m53 19h2v2h-2z"/><path d="m18 43h2v2h-2z"/><path d="m20 45h2v2h-2z"/><path d="m18 47h2v2h-2z"/><path d="m16 45h2v2h-2z"/><path d="m33 39h2v2h-2z"/><path d="m35 41h2v2h-2z"/><path d="m33 43h2v2h-2z"/><path d="m31 41h2v2h-2z"/><path d="m44 29a3 3 0 1 0 3 3 3 3 0 0 0 -3-3zm0 4a1 1 0 1 1 1-1 1 1 0 0 1 -1 1z"/></svg>