<svg height="511pt" viewBox="0 0 511.99998 511" width="511pt" xmlns="http://www.w3.org/2000/svg"><path d="m505.988281 511.148438h-499.980469c-4.421874 0-7.347656-4.648438-5.386718-8.621094 10.582031-21.453125 29.429687-38.453125 53.179687-46.332032l87.386719-28.988281 29.394531-9.761719c4.53125-1.5 8.601563-3.851562 12.082031-6.824218 7.488282-6.410156 12.199219-15.75 12.617188-25.972656.019531-.496094.03125-.988282.03125-1.492188v-42.316406h121.375v42.316406c0 .503906.011719.996094.03125 1.492188.417969 10.21875 5.128906 19.5625 12.617188 25.972656 3.480468 2.972656 7.550781 5.324218 12.082031 6.824218l29.398437 9.761719 87.382813 28.988281c23.75 7.878907 42.597656 24.878907 53.179687 46.332032 1.960938 3.972656-.964844 8.621094-5.390625 8.621094zm0 0" fill="#fedfc5"/><path d="m316.71875 384.648438-12.574219 11.410156c-9.082031 8.238281-20.914062 12.800781-33.183593 12.800781h-29.921876c-12.273437 0-24.101562-4.5625-33.183593-12.800781l-12.574219-11.410156c.019531-.492188.03125-.988282.03125-1.488282v-42.316406h121.375v42.316406c0 .5.011719.996094.03125 1.488282zm0 0" fill="#fecbaa"/><path d="m390.664062 254.558594c-4.128906 26.011718-17.011718 49.832031-36.511718 67.515625l-50.007813 45.355469c-9.089843 8.242187-20.914062 12.808593-33.179687 12.808593h-29.929688c-12.265625 0-24.09375-4.566406-33.179687-12.808593l-50.007813-45.355469c-19.5-17.683594-32.382812-41.503907-36.515625-67.515625l-7.929687-99.527344c-6.636719-83.285156 59.109375-154.53125 142.597656-154.53125 83.484375 0 149.234375 71.246094 142.59375 154.53125zm0 0" fill="#89b4c9"/><path d="m256 .5c-6.734375 0-13.347656.46875-19.824219 1.367188 73.796875 10.210937 128.878907 76.597656 122.777344 153.164062l-7.929687 99.527344c-4.132813 26.011718-17.015626 49.832031-36.515626 67.519531l-50.007812 45.351563c-7.878906 7.148437-17.824219 11.523437-28.324219 12.5625 1.609375.160156 3.230469.246093 4.859375.246093h29.929688c12.265625 0 24.089844-4.566406 33.179687-12.808593l50.007813-45.355469c19.5-17.683594 32.382812-41.503907 36.511718-67.515625l7.933594-99.527344c6.632813-83.285156-59.113281-154.53125-142.597656-154.53125zm0 0" fill="#71a2b5"/><path d="m398.597656 155.03125-2.292968 28.75c-5.589844-28.027344-19.410157-53.222656-38.921876-72.851562-25.824218-25.976563-61.589843-42.164063-101.382812-42.164063-69.882812 0-127.320312 49.917969-140.304688 115.015625l-2.296874-28.75c-6.628907-83.289062 59.113281-154.53125 142.601562-154.53125 39.792969 0 75.558594 16.1875 101.382812 42.152344 28.332032 28.503906 44.691407 68.800781 41.214844 112.378906zm0 0" fill="#fd82ac"/><path d="m256.140625.5c-6.734375 0-13.347656.46875-19.820313 1.367188 58.347657 8.070312 104.984376 51.269531 118.941407 106.84375.761719.734374 1.515625 1.472656 2.261719 2.222656 19.511718 19.625 33.332031 44.824218 38.921874 72.847656l2.292969-28.75c6.632813-83.285156-59.113281-154.53125-142.597656-154.53125zm0 0" fill="#fd6096"/><g fill="#fedfc5"><path d="m241.480469 183.78125c0-17.449219-19.933594-31.59375-44.519531-31.59375-24.585938 0-44.519532 14.144531-44.519532 31.59375s19.933594 31.59375 44.519532 31.59375c24.585937 0 44.519531-14.144531 44.519531-31.59375zm0 0"/><path d="m307.558594 290.234375c0-17.449219-23.082032-31.59375-51.558594-31.59375s-51.558594 14.144531-51.558594 31.59375 23.082032 31.59375 51.558594 31.59375 51.558594-14.144531 51.558594-31.59375zm0 0"/><path d="m359.554688 183.78125c0-17.449219-19.640626-31.59375-43.875-31.59375-24.230469 0-43.871094 14.144531-43.871094 31.59375s19.640625 31.59375 43.871094 31.59375c24.234374 0 43.875-14.144531 43.875-31.59375zm0 0"/></g><path d="m256.136719 301.199219c-.363281 0-.722657-.003907-1.089844-.007813-8.171875-.085937-16.335937-1.160156-24.265625-3.1875-4.207031-1.078125-6.746094-5.367187-5.671875-9.578125 1.078125-4.210937 5.363281-6.75 9.570313-5.675781 6.710937 1.71875 13.621093 2.628906 20.535156 2.699219 7.550781.070312 15.074218-.828125 22.386718-2.699219 4.210938-1.074219 8.492188 1.464844 9.570313 5.675781 1.074219 4.210938-1.464844 8.5-5.671875 9.578125-8.289062 2.121094-16.816406 3.195313-25.363281 3.195313zm0 0" fill="#ffae85"/><path d="m196.960938 192.613281c-.246094 0-.492188-.003906-.738282-.003906-5.535156-.058594-11.0625-.785156-16.425781-2.160156-4.210937-1.078125-6.75-5.363281-5.671875-9.578125 1.078125-4.210938 5.363281-6.75 9.570312-5.675782 4.148438 1.0625 8.417969 1.625 12.695313 1.671876 4.660156.054687 9.3125-.511719 13.835937-1.671876 4.207032-1.074218 8.492188 1.464844 9.570313 5.675782 1.074219 4.214844-1.464844 8.5-5.671875 9.578125-5.609375 1.4375-11.382812 2.164062-17.164062 2.164062zm0 0" fill="#ffae85"/><path d="m315.679688 192.613281c-.246094 0-.492188-.003906-.738282-.003906-5.535156-.058594-11.058594-.785156-16.425781-2.160156-4.207031-1.078125-6.746094-5.363281-5.671875-9.578125 1.078125-4.210938 5.363281-6.75 9.570312-5.675782 4.148438 1.0625 8.417969 1.625 12.695313 1.671876 4.667969.054687 9.316406-.511719 13.835937-1.671876 4.207032-1.074218 8.496094 1.464844 9.570313 5.675782 1.078125 4.214844-1.460937 8.5-5.671875 9.578125-5.609375 1.4375-11.378906 2.164062-17.164062 2.164062zm0 0" fill="#ffae85"/><path d="m233.40625 472.695312c-1.585938 0-3.1875-.476562-4.574219-1.472656-4.96875-3.5625-10.199219-5.71875-15.546875-6.414062-5.082031-.664063-8.980468.179687-13.492187 1.152344-5.140625 1.109374-10.96875 2.371093-18.6875 1.433593-8.277344-1-16.402344-4.308593-24.148438-9.839843-3.535156-2.527344-4.355469-7.441407-1.832031-10.980469 2.523438-3.539063 7.4375-4.359375 10.972656-1.835938 5.574219 3.984375 11.261719 6.347657 16.894532 7.027344 5.09375.617187 8.984374-.222656 13.484374-1.195313 5.1875-1.117187 11.066407-2.382812 18.835938-1.375 7.949219 1.035157 15.582031 4.140626 22.683594 9.226563 3.53125 2.53125 4.34375 7.449219 1.8125 10.984375-1.535156 2.148438-3.953125 3.289062-6.402344 3.289062zm0 0" fill="#fecbaa"/><path d="m278.59375 472.695312c-2.453125 0-4.867188-1.140624-6.402344-3.289062-2.53125-3.535156-1.71875-8.449219 1.8125-10.980469 7.101563-5.089843 14.734375-8.195312 22.683594-9.230469 7.769531-1.007812 13.648438.257813 18.835938 1.378907 4.5.96875 8.390624 1.808593 13.484374 1.195312 5.632813-.683593 11.316407-3.046875 16.894532-7.03125 3.539062-2.523437 8.449218-1.703125 10.972656 1.835938 2.523438 3.539062 1.703125 8.453125-1.832031 10.980469-7.746094 5.53125-15.871094 8.84375-24.148438 9.84375-7.714843.933593-13.542969-.324219-18.6875-1.433594-4.511719-.976563-8.410156-1.816406-13.492187-1.15625-5.347656.695312-10.578125 2.851562-15.546875 6.414062-1.390625.996094-2.992188 1.472656-4.574219 1.472656zm0 0" fill="#fecbaa"/></svg>