<svg id="Layer_1" enable-background="new 0 0 512 512" height="512" viewBox="0 0 512 512" width="512" xmlns="http://www.w3.org/2000/svg"><path d="m7.5 157.63h497v346.741h-497z" fill="#e2ecf6"/><path d="m124.139 116.118h263.722v429.766h-263.722z" fill="#c5d9ec" transform="matrix(0 1 -1 0 587.001 75.001)"/><path d="m167.353 354.214h-73.174v34.064h19.555v28.387h34.064v-28.387h19.555z" fill="#6987a0"/><path d="m292.587 354.214h-73.174v34.064h19.555v28.387h34.064v-28.387h19.555z" fill="#6987a0"/><path d="m417.821 354.214h-73.174v34.064h19.555v28.387h34.064v-28.387h19.555z" fill="#6987a0"/><path d="m112.229 283.797h37.075v37.075h-37.075z" fill="#6987a0"/><path d="m237.463 285.12h37.075v37.075h-37.075z" fill="#6987a0"/><path d="m362.697 286.443h37.075v37.075h-37.075z" fill="#6987a0"/><path d="m335 156.889h-30v-34.189c0-63.45 51.62-115.07 115.07-115.07h84.43v30h-84.43c-46.908 0-85.07 38.162-85.07 85.07z" fill="#ff8f75"/><path d="m398.153 157.385h-30v-15.871c0-40.189 32.696-72.886 72.885-72.886h63.462v30h-63.461c-23.647 0-42.885 19.238-42.885 42.886v15.871z" fill="#ff8f75"/><path d="m177 156.889h30v-34.189c0-63.45-51.62-115.07-115.07-115.07h-84.43v30h84.43c46.908 0 85.07 38.162 85.07 85.07z" fill="#ff8f75"/><path d="m113.847 157.385h30v-15.871c0-40.189-32.696-72.886-72.885-72.886h-63.462v30h63.461c23.647 0 42.885 19.238 42.885 42.886v15.871z" fill="#ff8f75"/><path d="m240.997 7.63h30v149.259h-30z" fill="#ff8f75"/><path d="m7.5 157.63h20v346.741h-20z" fill="#bed5e9"/><path d="m41.117 199.14h20v263.722h-20z" fill="#85b0d7"/><path d="m114.179 388.278v-34.064h-20v34.064h19.555v28.387h20v-28.387z" fill="#57758d"/><path d="m239.413 388.278v-34.064h-20v34.064h19.555v28.387h20v-28.387z" fill="#57758d"/><path d="m364.647 388.278v-34.064h-20v34.064h19.555v28.387h20v-28.387z" fill="#57758d"/><path d="m112.229 283.796h20v37.075h-20z" fill="#57758d"/><path d="m237.463 285.12h20v37.075h-20z" fill="#57758d"/><path d="m362.697 286.443h20v37.075h-20z" fill="#57758d"/><g fill="#d03582"><path d="m440.07 7.63h-20c-63.45 0-115.07 51.62-115.07 115.07v34.188h20v-34.188c0-63.45 51.62-115.07 115.07-115.07z"/><path d="m461.039 68.628h-20c-40.189 0-72.885 32.696-72.885 72.886v15.871h20v-15.871c-.001-40.19 32.696-72.886 72.885-72.886z"/><path d="m7.5 7.63h20v30h-20z"/><path d="m111.93 37.63h-20c46.908 0 85.07 38.162 85.07 85.07v34.188h20v-34.188c0-46.908-38.163-85.07-85.07-85.07z"/><path d="m7.5 68.628h20v30h-20z"/><path d="m90.961 98.628h-20c23.647 0 42.885 19.238 42.885 42.886v15.871h20v-15.871c.001-23.648-19.238-42.886-42.885-42.886z"/><path d="m240.997 7.63h20v149.259h-20z"/></g><path d="m462.67 165.13h34.33v331.74h-482v-331.74h432.67v-15h-447.67v361.74h512v-361.74h-49.33z"/><path d="m478.38 191.64h-444.76v278.72h53.06v-15h-38.06v-248.72h414.76v248.72h-361.7v15h376.7z"/><path d="m86.679 395.778h19.555v28.386h49.063v-28.386h19.555v-49.063h-88.173zm15-34.063h58.174v19.063h-19.555v28.386h-19.063v-28.386h-19.555v-19.063z"/><path d="m211.913 395.778h19.555v28.386h49.063v-28.386h19.555v-49.063h-88.174v49.063zm15-34.063h58.174v19.063h-19.555v28.386h-19.063v-28.386h-19.555v-19.063z"/><path d="m337.147 395.778h19.555v28.386h49.063v-28.386h19.555v-49.063h-88.174v49.063zm15-34.063h58.174v19.063h-19.555v28.386h-19.063v-28.386h-19.555v-19.063z"/><path d="m104.729 276.297v52.074h52.075v-52.074zm37.075 37.074h-22.075v-22.074h22.075z"/><path d="m229.962 277.62v52.074h52.075v-52.074zm37.076 37.074h-22.075v-22.074h22.075z"/><path d="m355.196 278.942v52.075h52.075v-52.075zm37.075 37.076h-22.075v-22.075h22.075z"/><path d="m420.07.13c-67.585 0-122.57 54.984-122.57 122.57v4.93h15v-4.93c0-59.314 48.256-107.57 107.57-107.57h76.93v15h-76.93c-51.043 0-92.57 41.527-92.57 92.57v4.93h15v-4.93c0-42.772 34.798-77.57 77.57-77.57h91.93v-45h-91.93z"/><path d="m362.117 126.204 14.727 2.852c5.938-30.667 32.937-52.926 64.197-52.926h55.959v15h-55.96c-21.525 0-40.684 13.69-47.674 34.066l14.188 4.867c4.911-14.315 18.368-23.934 33.486-23.934h70.96v-45h-70.96c-38.43.001-71.623 27.369-78.923 65.075z"/><path d="m169.5 122.7v4.93h15v-4.93c0-51.043-41.527-92.57-92.57-92.57h-76.93v-15h76.93c59.314 0 107.57 48.256 107.57 107.57v4.93h15v-4.93c0-67.586-54.984-122.57-122.57-122.57h-91.93v45h91.93c42.772 0 77.57 34.798 77.57 77.57z"/><path d="m104.446 130.063 14.188-4.867c-6.99-20.376-26.149-34.066-47.674-34.066h-55.96v-15h55.96c31.26 0 58.259 22.259 64.197 52.926l14.727-2.852c-7.301-37.706-40.494-65.074-78.924-65.074h-70.96v45h70.96c15.118 0 28.575 9.618 33.486 23.933z"/><path d="m248.5 15.13h15v112.5h15v-127.5h-45v127.5h15z"/><path d="m347.5 245.63h-123v-15h123zm-138 0h-15v-15h15zm-30 0h-15v-15h15z" fill="#fff"/></svg>