<svg id="Capa_1" enable-background="new 0 0 509.248 509.248" height="512" viewBox="0 0 509.248 509.248" width="512" xmlns="http://www.w3.org/2000/svg"><g><path d="m400.436 501.748h-291.625c-12.087 0-21.886-9.799-21.886-21.886v-296.948h335.397v296.948c0 12.087-9.799 21.886-21.886 21.886z" fill="#915041"/><path d="m392.322 182.914v296.948c0 12.087-9.799 21.886-21.886 21.886h30c12.087 0 21.886-9.799 21.886-21.886v-296.948z" fill="#784132"/><path d="m382.979 501.791h-256.711c-4.651 0-8.422-3.771-8.422-8.422v-32.259c0-50.135 40.643-90.778 90.778-90.778h91.998c50.135 0 90.778 40.643 90.778 90.778v32.259c.001 4.652-3.77 8.422-8.421 8.422z" fill="#dd552d"/><path d="m300.622 370.332h-30c50.135 0 90.778 40.643 90.778 90.778v32.259c0 4.651-3.771 8.422-8.422 8.422h30c4.651 0 8.422-3.771 8.422-8.422v-32.259c.001-50.135-40.642-90.778-90.778-90.778z" fill="#cf462a"/><ellipse cx="136.48" cy="209.951" fill="#f2d1a5" rx="36.971" ry="37.487"/><ellipse cx="372.767" cy="209.951" fill="#f2d1a5" rx="36.971" ry="37.487"/><path d="m255.551 403.598h-1.854c-17.074 0-30.916-13.841-30.916-30.916v-83.626h63.686v83.626c-.001 17.075-13.842 30.916-30.916 30.916z" fill="#f2c68c"/><path d="m279.502 344.573h-49.757c-51.509 0-93.265-41.756-93.265-93.265v-110.443c0-54.151 43.898-98.048 98.048-98.048h40.191c54.151 0 98.048 43.898 98.048 98.048v110.442c0 51.509-41.756 93.266-93.265 93.266z" fill="#f2d1a5"/><path d="m274.719 42.817h-30c54.151 0 98.048 43.898 98.048 98.048v110.442c0 51.509-41.756 93.265-93.265 93.265h30c51.509 0 93.265-41.756 93.265-93.265v-110.442c0-54.15-43.897-98.048-98.048-98.048z" fill="#f2c68c"/><path d="m422.322 213.879v-74.593c0-72.783-59.003-131.786-131.786-131.786h-71.824c-72.784 0-131.787 59.003-131.787 131.787v74.593l.563-.113c37.72-7.539 70.068-31.583 88.151-65.533l.661-1.241.343-.257c1.34-1.003 3.181-1.002 4.52.003 106.659 99.454 241.159 67.14 241.159 67.14z" fill="#915041"/><path d="m290.536 7.5h-30c72.783 0 131.786 59.003 131.786 131.786v74.593s-14.479 3.479-37.703 4.64c40.106 1.99 67.703-4.64 67.703-4.64v-74.593c0-72.783-59.003-131.786-131.786-131.786z" fill="#784132"/><g><path d="m273.003 274.593c-4.143 0-7.5 3.358-7.5 7.5 0 6.14-4.88 11.135-10.879 11.135s-10.879-4.995-10.879-11.135c0-4.142-3.357-7.5-7.5-7.5s-7.5 3.358-7.5 7.5c0 14.411 11.609 26.135 25.879 26.135s25.879-11.724 25.879-26.135c0-4.142-3.358-7.5-7.5-7.5z"/><path d="m290.536 0h-71.824c-76.803 0-139.286 62.484-139.286 139.287v150.424c0 4.142 3.357 7.5 7.5 7.5s7.5-3.358 7.5-7.5v-65.03c5.239 15.484 18.464 26.902 34.602 29.624 1.448 49.304 38.484 89.829 86.253 96.726v11.801h-6.656c-54.19 0-98.278 44.087-98.278 98.278v32.26c0 .296.028.585.044.878h-1.58c-7.933 0-14.386-6.454-14.386-14.386v-160.151c0-4.142-3.357-7.5-7.5-7.5s-7.5 3.358-7.5 7.5v160.151c0 16.204 13.183 29.386 29.386 29.386h291.625c16.203 0 29.386-13.182 29.386-29.386v-24.147c0-4.142-3.357-7.5-7.5-7.5s-7.5 3.358-7.5 7.5v24.147c0 7.932-6.453 14.386-14.386 14.386h-1.581c.016-.293.044-.582.044-.878v-32.26c0-54.191-44.087-98.278-98.277-98.278h-6.656v-11.802c47.768-6.897 84.805-47.422 86.253-96.725 16.14-2.721 29.364-14.138 34.603-29.622v201.032c0 4.142 3.357 7.5 7.5 7.5s7.5-3.358 7.5-7.5v-286.429c0-76.802-62.483-139.286-139.286-139.286zm-196.11 139.287c0-68.532 55.754-124.287 124.286-124.287h71.824c65.281 0 118.967 50.591 123.913 114.626-13.396 1.201-46.802 2.692-86.975-6.607-4.032-.932-8.064 1.58-8.998 5.615-.935 4.036 1.58 8.064 5.615 8.998 27.238 6.305 51.361 7.927 68.978 7.927 9.179 0 16.587-.441 21.752-.889v20.247c-8.805 1.263-27.418 3.251-51.394 1.997-30.87-1.615-77.242-9.098-122.846-35.575-3.584-2.081-8.172-.862-10.252 2.72-2.079 3.582-.861 8.172 2.721 10.252 48.378 28.088 97.449 36.128 130.109 37.609 12.319.559 43.985-.819 51.661-1.844v27.638c-11.382 1.989-38.656 5.615-72.941 2.371-41.523-3.929-102.226-19.061-155.603-68.832-.196-.182-.4-.354-.614-.514-1.991-1.494-4.378-2.24-6.765-2.24-4.444 0-7.852 2.398-9.879 6.209-15.732 29.534-42.614 50.938-74.595 59.714v-21.507-43.628zm13.182 76.709c7.432-2.616 14.578-5.852 21.371-9.666v32.632c-10.747-2.837-19.121-11.644-21.371-22.966zm122.673 136.077h48.686v20.61c0 12.911-10.504 23.416-23.416 23.416h-1.855c-12.911 0-23.415-10.504-23.415-23.416zm153.619 109.037v32.26c0 .432-.305.779-.707.878h-47.924v-11.625c0-4.142-3.357-7.5-7.5-7.5s-7.5 3.358-7.5 7.5v11.625h-131.292v-11.625c0-4.142-3.357-7.5-7.5-7.5s-7.5 3.358-7.5 7.5v11.625h-47.924c-.402-.099-.707-.446-.707-.878v-32.26c0-45.92 37.358-83.278 83.278-83.278h7.011c2.525 18.755 18.624 33.266 38.06 33.266h1.855c19.436 0 35.536-14.511 38.061-33.266h7.011c45.92 0 83.278 37.358 83.278 83.278zm-104.398-124.037h-49.757c-47.291 0-85.766-38.474-85.766-85.765v-54.761c14.461-10.866 26.746-24.637 36.018-40.71 55.665 49.936 118.064 65.251 161.05 69.236 8.554.793 16.657 1.182 24.22 1.292v24.943c0 47.29-38.474 85.765-85.765 85.765zm100.765-98.111v-12.741c6.641-.226 12.676-.647 17.997-1.155-3.892 6.83-10.342 11.876-17.997 13.896z"/><path d="m226.113 236.679c0-4.142-3.357-7.5-7.5-7.5h-24.175c-4.143 0-7.5 3.358-7.5 7.5s3.357 7.5 7.5 7.5h12.867c-.685 1.327-1.078 2.834-1.078 4.435 0 5.291 4.23 9.581 9.449 9.581s9.449-4.289 9.449-9.581c0-2.241-.765-4.297-2.036-5.928 1.833-1.367 3.024-3.545 3.024-6.007z"/><path d="m316.809 229.179h-24.176c-4.143 0-7.5 3.358-7.5 7.5 0 2.462 1.191 4.64 3.023 6.007-1.271 1.632-2.035 3.688-2.035 5.928 0 5.291 4.23 9.581 9.449 9.581s9.449-4.289 9.449-9.581c0-1.602-.393-3.108-1.078-4.435h12.868c4.143 0 7.5-3.358 7.5-7.5s-3.357-7.5-7.5-7.5z"/><path d="m279.014 451.508c0 4.142 3.357 7.5 7.5 7.5h25.01c4.143 0 7.5-3.358 7.5-7.5s-3.357-7.5-7.5-7.5h-25.01c-4.142 0-7.5 3.358-7.5 7.5z"/></g></g></svg>