<svg id="Capa_1" enable-background="new 0 0 512 512" height="512" viewBox="0 0 512 512" width="512" xmlns="http://www.w3.org/2000/svg"><g><ellipse cx="155.323" cy="378.719" fill="#fbf1cf" rx="47.207" ry="47.207" transform="matrix(.987 -.16 .16 .987 -58.658 29.77)"/><circle cx="90.66" cy="270.952" fill="#fbf1cf" r="38.906"/><path d="m51.754 270.952c0 21.487 17.419 38.906 38.906 38.906 11.509 0 21.846-5 28.969-12.943-29.132 1.472-53.953-31.664-40.4-63.159-15.909 4.883-27.475 19.687-27.475 37.196z" fill="#f5e2a2"/><path d="m445.052 410.08c2.027-5.525 3.054-11.531 2.848-17.806-.808-24.551-20.763-44.642-45.309-45.588-28.623-1.103-51.618 23.217-48.852 51.775-27.195-.087-48.651 22.51-47.38 49.477 1.141 24.21 20.875 43.852 45.09 44.887 8.258.353 16.067-1.424 22.934-4.819 3.041-1.504 6.681-1.07 9.338 1.04 8.624 6.847 19.694 10.744 31.69 10.157 24.043-1.177 43.566-20.672 44.774-44.714.69-13.729-4.492-26.249-13.251-35.282-2.34-2.413-3.039-5.974-1.882-9.127z" fill="#fbf1cf"/><path d="m393.262 423.196c-15.888-9.35-31.237-41.112-14.872-70.934-16.116 8.673-26.567 26.415-24.651 46.198-27.196-.087-48.652 22.511-47.38 49.479 1.142 24.209 20.875 43.851 45.09 44.885 8.258.353 16.067-1.424 22.934-4.819 3.055-1.51 6.699-1.05 9.37 1.066 8.619 6.831 19.676 10.718 31.657 10.131 11.107-.544 21.243-5.003 29.061-12.007-38.578 2.521-55.159-27.712-46.798-52.604 1.456-4.337-.468-9.074-4.411-11.395z" fill="#f5e2a2"/><path d="m276.675 227.392c-12.689 0-22.976-10.287-22.976-22.976v-115.919c0-36.081 29.355-65.435 65.435-65.435h39.755c12.689 0 22.976 10.287 22.976 22.976s-10.287 22.976-22.976 22.976h-39.755c-10.743 0-19.483 8.74-19.483 19.483v115.918c0 12.69-10.287 22.977-22.976 22.977z" fill="#4e5660"/><path d="m392.785 7.5h-41.569c-10.751 0-19.467 8.716-19.467 19.467v38.141c0 10.752 8.716 19.467 19.467 19.467h41.569c14.659 0 26.543-11.883 26.543-26.543v-23.99c-.001-14.659-11.884-26.542-26.543-26.542z" fill="#a2ddfd"/><path d="m321.726 433.69h-92.331c-21.35 0-40.52-13.081-48.305-32.961l-14.363-36.678c-8.48-21.655-9.5-45.519-2.9-67.819l36.789-124.292c5.466-18.466 22.429-31.136 41.688-31.136h66.514c19.258 0 36.222 12.67 41.688 31.136l36.789 124.292c6.6 22.3 5.58 46.164-2.9 67.819l-14.362 36.678c-7.787 19.88-26.957 32.961-48.307 32.961z" fill="#a2ddfd"/><path d="m364.869 410.611c-161.525-15.435-145.392-196.403-117.965-269.808h-4.6c-19.258 0-36.222 12.67-41.688 31.137l-36.789 124.292c-6.601 22.3-5.58 46.164 2.9 67.819l14.362 36.678c7.785 19.881 26.955 32.961 48.305 32.961h92.331c17.57 0 33.657-8.863 43.144-23.079z" fill="#7acdf9"/><path d="m275.56 248.931c33.021 0 49.112-31.816 90.175-25.533l-15.231-51.458c-5.466-18.467-22.429-31.137-41.688-31.137h-66.514c-19.258 0-36.222 12.67-41.688 31.137l-15.231 51.458c41.066-6.283 57.157 25.533 90.177 25.533z" fill="#8daee1"/><path d="m246.903 140.803h-4.6c-19.258 0-36.222 12.67-41.688 31.137l-15.231 51.458c18.555-2.839 32.007 2.106 44.231 8.375 1.395-35.232 8.8-68.251 17.288-90.97z" fill="#6a95d6"/><g><g fill="#fff"><ellipse cx="202.53" cy="327.882" rx="26.947" ry="21.459"/><ellipse cx="348.591" cy="327.882" rx="26.947" ry="21.459"/></g></g><path d="m325.418 467.177h-224.529v-24.309c0-23.563 19.102-42.665 42.665-42.665h139.199c23.563 0 42.665 19.102 42.665 42.665z" fill="#4e5660"/><path d="m171.554 400.203h-28.001c-23.563 0-42.665 19.102-42.665 42.665v24.309h80.129c-11.175-18.287-14.625-51.414-9.463-66.974z" fill="#383c43"/><path d="m337.25 467.177h-248.193c-9.211 0-16.678 7.467-16.678 16.678v9.898c0 5.935 4.812 10.747 10.747 10.747h260.056c5.935 0 10.747-4.811 10.747-10.747v-9.898c-.001-9.211-7.468-16.678-16.679-16.678z" fill="#8daee1"/><path d="m233.044 441.19h-39.782c-4.143 0-7.5-3.358-7.5-7.5 0-4.143 3.357-7.5 7.5-7.5h39.782c4.143 0 7.5 3.357 7.5 7.5 0 4.142-3.357 7.5-7.5 7.5z" fill="#fff"/><path d="m137.065 270.952c0-25.589-20.817-46.406-46.405-46.406-25.589 0-46.406 20.817-46.406 46.406s20.817 46.406 46.406 46.406c25.588 0 46.405-20.817 46.405-46.406zm-77.812 0c0-17.317 14.089-31.406 31.406-31.406s31.405 14.089 31.405 31.406-14.088 31.406-31.405 31.406-31.406-14.088-31.406-31.406zm236.348 30.29c-3.122-2.722-7.861-2.396-10.581.728-2.389 2.74-5.836 4.313-9.46 4.313-3.623 0-7.07-1.572-9.459-4.313-2.721-3.124-7.459-3.45-10.581-.728-3.123 2.721-3.449 7.458-.728 10.581 5.237 6.012 12.807 9.459 20.768 9.459 7.962 0 15.531-3.447 20.769-9.459 2.721-3.123 2.395-7.86-.728-10.581zm39.31-14.226c-10.836 0-19.652 8.816-19.652 19.652 0 4.142 3.357 7.5 7.5 7.5s7.5-3.358 7.5-7.5c0-2.565 2.087-4.652 4.652-4.652 2.566 0 4.653 2.087 4.653 4.652 0 4.142 3.357 7.5 7.5 7.5s7.5-3.358 7.5-7.5c0-10.836-8.816-19.652-19.653-19.652zm117.407 126.969c-.313-.322-.401-.841-.225-1.322 13.364-36.426-14.776-75.201-53.831-73.45 1.789-15.069.554-30.474-3.778-45.11l-36.788-124.292c-6.363-21.495-26.463-36.508-48.879-36.508h-1.667v-44.806c0-6.607 5.376-11.983 11.983-11.983h7.652c4.305 9.184 13.634 15.563 24.429 15.563h24.322c4.143 0 7.5-3.357 7.5-7.5s-3.357-7.5-7.5-7.5h-24.322c-6.599 0-11.968-5.369-11.968-11.968v-38.141c0-6.599 5.369-11.968 11.968-11.968h41.569c10.5 0 19.043 8.543 19.043 19.043v23.99c0 5.396-2.304 10.56-6.32 14.17-3.081 2.769-3.334 7.511-.565 10.591 2.767 3.08 7.51 3.336 10.591.565 7.179-6.45 11.295-15.682 11.295-25.326v-23.99c.001-18.772-15.271-34.043-34.042-34.043h-41.569c-10.795 0-20.124 6.378-24.429 15.561h-7.652c-40.217 0-72.936 32.719-72.936 72.936v44.806h-3.895c-22.418 0-42.518 15.013-48.879 36.508l-36.789 124.292c-2.892 9.771-4.387 19.885-4.544 30.012-40.843 2.392-64.887 47.595-43.574 82.896-9.325 9.114-15.129 21.817-15.129 35.856v16.81h-4.333c-13.332 0-24.178 10.847-24.178 24.179v9.897c0 10.062 8.186 18.247 18.247 18.247h9.352c4.143 0 7.5-3.357 7.5-7.5s-3.357-7.5-7.5-7.5h-9.352c-1.79 0-3.247-1.457-3.247-3.247v-9.897c0-5.062 4.117-9.179 9.178-9.179h248.194c5.061 0 9.179 4.117 9.179 9.179v9.897c0 1.79-1.457 3.247-3.247 3.247h-214.236c-4.143 0-7.5 3.357-7.5 7.5s3.357 7.5 7.5 7.5h214.235c7.89 0 14.606-5.043 17.147-12.066 6.051-.745 11.875-2.485 17.38-5.205.413-.205.945-.131 1.349.19 10.357 8.225 23.379 12.426 36.721 11.775 27.709-1.357 50.506-24.123 51.897-51.828.772-15.353-4.682-29.871-15.357-40.881zm-191.119-325.488c0-31.945 25.99-57.936 57.936-57.936h5.113v30.952h-5.113c-14.879 0-26.983 12.105-26.983 26.983v44.806h-30.952v-44.805zm-53.391 85.57c4.489-15.17 18.675-25.765 34.496-25.765h66.514c15.819 0 30.005 10.596 34.496 25.766l12.139 41.012c-35.913-.099-52.701 26.351-79.893 26.351-27.248 0-43.914-26.449-79.891-26.351zm-54.963 165.03c2.532 21.507 9.568 32.882 17.047 53.605h-26.339c-8.217 0-15.972 1.999-22.824 5.516-14.204-25.011 2.607-57.294 32.116-59.121zm165.073 120.58h-209.529v-16.81c0-19.39 15.774-35.165 35.164-35.165h139.199c19.39 0 35.165 15.775 35.165 35.165v16.81zm-35.165-66.975h-96.752l-12.29-31.387c-7.832-20-8.788-42.357-2.691-62.955l20.152-68.085c34.707-2.766 49.906 26.156 84.389 26.156 34.393 0 49.787-28.912 84.39-26.156l20.152 68.085c6.096 20.596 5.141 42.954-2.691 62.956l-14.363 36.678c-5.628 14.373-18.33 24.679-33.258 27.442-7.1-19.093-25.504-32.734-47.038-32.734zm169.941 61.41c-1.01 20.099-17.549 36.614-37.651 37.599-9.651.48-19.127-2.56-26.659-8.54-4.93-3.913-11.729-4.655-17.324-1.889-3.078 1.521-6.301 2.605-9.631 3.275v-.702c0-13.332-10.847-24.179-24.179-24.179h-4.332c-.027-17.106.06-17.005-.078-19.551 19.833-3.787 36.684-17.535 44.174-36.663 13.585-35.271 15.54-38.287 18.336-48.922 29.887-4.062 52.834 25.237 42.662 52.955-2.148 5.854-.76 12.499 3.537 16.931 7.747 7.991 11.705 18.534 11.145 29.686zm-234.459-165.138c-4.143 0-7.5 3.357-7.5 7.5v10.487c0 4.143 3.357 7.5 7.5 7.5s7.5-3.357 7.5-7.5v-10.487c0-4.143-3.358-7.5-7.5-7.5z"/></g></svg>