<?xml version="1.0" encoding="UTF-8"?>
<svg xmlns="http://www.w3.org/2000/svg" xmlns:xlink="http://www.w3.org/1999/xlink" width="512" height="512" viewBox="0 0 60 60" version="1.1"><!-- Generator: Sketch 51.3 (57544) - http://www.bohemiancoding.com/sketch --><title>012 - Battery</title><desc>Created with Sketch.</desc><defs/><g id="Page-1" stroke="none" stroke-width="1" fill="none" fill-rule="evenodd"><g id="012---Battery" fill-rule="nonzero"><polygon id="Shape" fill="#37474F" points="3 20 3 54 57 54 57 20"/><polygon id="Shape" fill="#545C60" points="3 20 3 54 54 54 54 20"/><path d="M11,4 C12.1045695,4 13,4.8954305 13,6 L13,9 L9,9 L9,6 C9,4.8954305 9.8954305,4 11,4 Z" id="Shape" fill="#BDC3C7"/><path d="M49,4 C50.1045695,4 51,4.8954305 51,6 L51,9 L47,9 L47,6 C47,4.8954305 47.8954305,4 49,4 Z" id="Shape" fill="#BDC3C7"/><path d="M41,6 L41,13 L38,13 L38,6 C38,4.67391755 37.4732158,3.40214799 36.5355339,2.46446609 C35.597852,1.5267842 34.3260824,1 33,1 L36,1 C37.3260824,1 38.597852,1.5267842 39.5355339,2.46446609 C40.4732158,3.40214799 41,4.67391755 41,6 Z" id="Shape" fill="#283593"/><path d="M38,6 L38,13 L37,13 L37,7 C36.9967052,5.89679813 36.1032019,5.0032948 35,5 L25,5 C23.8967981,5.0032948 23.0032948,5.89679813 23,7 L23,13 L19,13 L19,6 C19,3.23857625 21.2385763,1 24,1 L33,1 C34.3260824,1 35.597852,1.5267842 36.5355339,2.46446609 C37.4732158,3.40214799 38,4.67391755 38,6 Z" id="Shape" fill="#3F51B5"/><path d="M57,12 L57,17 L3,17 L3,12 C3,11.4477153 3.44771525,11 4,11 L56,11 C56.5522847,11 57,11.4477153 57,12 Z" id="Shape" fill="#545C60"/><path d="M54,12 L54,17 L3,17 L3,12 C3,11.4477153 3.44771525,11 4,11 L53,11 C53.5522847,11 54,11.4477153 54,12 Z" id="Shape" fill="#7F8E94"/><path d="M14,9 L14,17 L8,17 L8,9 C8,8.44771525 8.44771525,8 9,8 L13,8 C13.5522847,8 14,8.44771525 14,9 Z" id="Shape" fill="#C81E1E"/><path d="M11,9 L11,17 L8,17 L8,9 C8,8.44771525 8.44771525,8 9,8 L10,8 C10.5522847,8 11,8.44771525 11,9 Z" id="Shape" fill="#F44335"/><path d="M52,9 L52,17 L46,17 L46,9 C46,8.44771525 46.4477153,8 47,8 L51,8 C51.5522847,8 52,8.44771525 52,9 Z" id="Shape" fill="#0377BC"/><path d="M49,9 L49,17 L46,17 L46,9 C46,8.44771525 46.4477153,8 47,8 L48,8 C48.5522847,8 49,8.44771525 49,9 Z" id="Shape" fill="#02A9F4"/><rect id="Rectangle-path" fill="#283593" x="1" y="15" width="58" height="7" rx="2"/><rect id="Rectangle-path" fill="#283593" x="1" y="52" width="58" height="7" rx="2"/><rect id="Rectangle-path" fill="#3F51B5" x="1" y="15" width="55" height="7" rx="2"/><rect id="Rectangle-path" fill="#3F51B5" x="1" y="52" width="55" height="7" rx="2"/><path d="M18,31 L18,33 C18,33.5522847 17.5522847,34 17,34 L15,34 L15,36 C15,36.5522847 14.5522847,37 14,37 L12,37 C11.8236799,36.9998394 11.6507665,36.9514237 11.5,36.86 C11.1900312,36.6848908 10.9988209,36.3560092 11,36 L11,34 L9,34 C8.44771525,34 8,33.5522847 8,33 L8,31 C8,30.4477153 8.44771525,30 9,30 L11,30 L11,28 C10.9988209,27.6439908 11.1900312,27.3151092 11.5,27.14 C11.6507665,27.0485763 11.8236799,27.0001606 12,27 L14,27 C14.5522847,27 15,27.4477153 15,28 L15,30 L17,30 C17.5522847,30 18,30.4477153 18,31 Z" id="Shape" fill="#7F8E94"/><rect id="Rectangle-path" fill="#7F8E94" x="42" y="30" width="10" height="4" rx="1"/><path d="M35.63,36.64 L27,47 L30,38 L25.34,38 C25.0246453,37.9977864 24.7288121,37.8469446 24.5418065,37.5930107 C24.3548009,37.3390768 24.2985371,37.011808 24.39,36.71 L26.79,28.71 C26.9133177,28.2882505 27.300593,27.9988132 27.74,28 L31.66,28 C31.9753547,28.0022136 32.2711879,28.1530554 32.4581935,28.4069893 C32.6451991,28.6609232 32.7014629,28.988192 32.61,29.29 L31.29,33.71 C31.1985371,34.011808 31.2548009,34.3390768 31.4418065,34.5930107 C31.6288121,34.8469446 31.9246453,34.9977864 32.24,35 L34.86,35 C35.2482681,34.9993686 35.6018059,35.223541 35.7668198,35.5749992 C35.9318337,35.9264575 35.8784924,36.3416646 35.63,36.64 Z" id="Shape" fill="#FEC108"/><path d="M15,31 L15,33 C15,33.5522847 14.5522847,34 14,34 L14,36 L12,36 C12.0011791,36.3560092 11.8099688,36.6848908 11.5,36.86 C11.1900312,36.6848908 10.9988209,36.3560092 11,36 L11,34 L9,34 C8.44771525,34 8,33.5522847 8,33 L8,31 C8,30.4477153 8.44771525,30 9,30 L11,30 L11,28 C10.9988209,27.6439908 11.1900312,27.3151092 11.5,27.14 C11.8099688,27.3151092 12.0011791,27.6439908 12,28 L14,28 L14,30 C14.2652165,30 14.5195704,30.1053568 14.7071068,30.2928932 C14.8946432,30.4804296 15,30.7347835 15,31 Z" id="Shape" fill="#F5F5F5"/><rect id="Rectangle-path" fill="#F5F5F5" x="42" y="30" width="7" height="4" rx="1"/><path d="M32.63,36.64 L29,41 L30,38 L25.34,38 C25.0246453,37.9977864 24.7288121,37.8469446 24.5418065,37.5930107 C24.3548009,37.3390768 24.2985371,37.011808 24.39,36.71 L26.79,28.71 C26.9133177,28.2882505 27.300593,27.9988132 27.74,28 L28.66,28 C28.9753547,28.0022136 29.2711879,28.1530554 29.4581935,28.4069893 C29.6451991,28.6609232 29.7014629,28.988192 29.61,29.29 L28.29,33.71 C28.1985371,34.011808 28.2548009,34.3390768 28.4418065,34.5930107 C28.6288121,34.8469446 28.9246453,34.9977864 29.24,35 L31.86,35 C32.2482681,34.9993686 32.6018059,35.223541 32.7668198,35.5749992 C32.9318337,35.9264575 32.8784924,36.3416646 32.63,36.64 Z" id="Shape" fill="#FFDC00"/><path d="M9,49 L7,49 C6.44771525,49 6,48.5522847 6,48 C6,47.4477153 6.44771525,47 7,47 L9,47 C9.55228475,47 10,47.4477153 10,48 C10,48.5522847 9.55228475,49 9,49 Z" id="Shape" fill="#2C2F38"/><path d="M20,49 L13,49 C12.4477153,49 12,48.5522847 12,48 C12,47.4477153 12.4477153,47 13,47 L20,47 C20.5522847,47 21,47.4477153 21,48 C21,48.5522847 20.5522847,49 20,49 Z" id="Shape" fill="#2C2F38"/><path d="M57,53 L3,53 C2.44771525,53 2,52.5522847 2,52 L2,22 C2,21.4477153 2.44771525,21 3,21 L57,21 C57.5522847,21 58,21.4477153 58,22 L58,52 C58,52.5522847 57.5522847,53 57,53 Z M4,51 L56,51 L56,23 L4,23 L4,51 Z M27,48 C26.6785564,48.0000774 26.3766717,47.8456288 26.1886576,47.5849053 C26.0006435,47.3241819 25.9494238,46.9889726 26.051,46.684 L28.613,39 L25.344,39 C24.7118916,39.0000439 24.116968,38.7012626 23.7395336,38.1942081 C23.3620991,37.6871537 23.2465849,37.0315159 23.428,36.426 L25.828,28.426 C26.0781373,27.5772312 26.8591493,26.9959561 27.744,27 L31.656,27 C32.2881084,26.9999561 32.883032,27.2987374 33.2604664,27.8057919 C33.6379009,28.3128463 33.7534151,28.9684841 33.572,29.574 L32.244,34 L34.865,34 C35.6406323,34.0006784 36.3459333,34.4497545 36.6746989,35.1522636 C37.0034646,35.8547727 36.8964051,36.6840236 36.4,37.28 L27.768,47.64 C27.5780911,47.8680019 27.2967326,47.9998887 27,48 Z M30,37 C30.3214436,36.9999226 30.6233283,37.1543712 30.8113424,37.4150947 C30.9993565,37.6758181 31.0505762,38.0110274 30.949,38.316 L29.625,42.289 L34.865,36 L32.244,36 C31.6118916,36.0000439 31.016968,35.7012626 30.6395336,35.1942081 C30.2620991,34.6871537 30.1465849,34.0315159 30.328,33.426 L31.656,29 L27.744,29 L25.344,37 L30,37 Z" id="Shape" fill="#000000"/><path d="M46,12 L14,12 C13.4477153,12 13,11.5522847 13,11 C13,10.4477153 13.4477153,10 14,10 L46,10 C46.5522847,10 47,10.4477153 47,11 C47,11.5522847 46.5522847,12 46,12 Z" id="Shape" fill="#000000"/><path d="M57,16 L3,16 C2.44771525,16 2,15.5522847 2,15 L2,12 C2,10.8954305 2.8954305,10 4,10 L8,10 C8.55228475,10 9,10.4477153 9,11 C9,11.5522847 8.55228475,12 8,12 L4,12 L4,14 L56,14 L56,12 L52,12 C51.4477153,12 51,11.5522847 51,11 C51,10.4477153 51.4477153,10 52,10 L56,10 C57.1045695,10 58,10.8954305 58,12 L58,15 C58,15.5522847 57.5522847,16 57,16 Z" id="Shape" fill="#000000"/><path d="M57,60 L3,60 C1.34314575,60 2.02906125e-16,58.6568542 0,57 L0,54 C-2.02906125e-16,52.3431458 1.34314575,51 3,51 L57,51 C58.6568542,51 60,52.3431458 60,54 L60,57 C60,58.6568542 58.6568542,60 57,60 Z M3,53 C2.44771525,53 2,53.4477153 2,54 L2,57 C2,57.5522847 2.44771525,58 3,58 L57,58 C57.5522847,58 58,57.5522847 58,57 L58,54 C58,53.4477153 57.5522847,53 57,53 L3,53 Z" id="Shape" fill="#000000"/><path d="M57,23 L3,23 C1.34314575,23 2.02906125e-16,21.6568542 0,20 L0,17 C-2.02906125e-16,15.3431458 1.34314575,14 3,14 L57,14 C58.6568542,14 60,15.3431458 60,17 L60,20 C60,21.6568542 58.6568542,23 57,23 Z M3,16 C2.44771525,16 2,16.4477153 2,17 L2,20 C2,20.5522847 2.44771525,21 3,21 L57,21 C57.5522847,21 58,20.5522847 58,20 L58,17 C58,16.4477153 57.5522847,16 57,16 L3,16 Z" id="Shape" fill="#000000"/><path d="M41,12 L19,12 C18.4477153,12 18,11.5522847 18,11 L18,6 C18.0033074,2.68766243 20.6876624,0.00330737898 24,0 L36,0 C39.3123376,0.00330737898 41.9966926,2.68766243 42,6 L42,11 C42,11.5522847 41.5522847,12 41,12 Z M20,10 L40,10 L40,6 C40,3.790861 38.209139,2 36,2 L24,2 C21.790861,2 20,3.790861 20,6 L20,10 Z" id="Shape" fill="#000000"/><path d="M37,12 L23,12 C22.4477153,12 22,11.5522847 22,11 L22,7 C22,5.34314575 23.3431458,4 25,4 L35,4 C36.6568542,4 38,5.34314575 38,7 L38,11 C38,11.5522847 37.5522847,12 37,12 Z M24,10 L36,10 L36,7 C36,6.44771525 35.5522847,6 35,6 L25,6 C24.4477153,6 24,6.44771525 24,7 L24,10 Z" id="Shape" fill="#000000"/><path d="M14,16 L8,16 C7.44771525,16 7,15.5522847 7,15 L7,9 C7,7.8954305 7.8954305,7 9,7 L13,7 C14.1045695,7 15,7.8954305 15,9 L15,15 C15,15.5522847 14.5522847,16 14,16 Z M9,14 L13,14 L13,9 L9,9 L9,14 Z" id="Shape" fill="#000000"/><path d="M52,16 L46,16 C45.4477153,16 45,15.5522847 45,15 L45,9 C45,7.8954305 45.8954305,7 47,7 L51,7 C52.1045695,7 53,7.8954305 53,9 L53,15 C53,15.5522847 52.5522847,16 52,16 Z M47,14 L51,14 L51,9 L47,9 L47,14 Z" id="Shape" fill="#000000"/><path d="M13,9 L9,9 C8.44771525,9 8,8.55228475 8,8 L8,6 C8.00000003,4.34314578 9.34314578,3.00000006 11,3.00000006 C12.6568542,3.00000006 14,4.34314578 14,6 L14,8 C14,8.55228475 13.5522847,9 13,9 Z M10,7 L12,7 L12,6 C12,5.44771525 11.5522847,5 11,5 C10.4477153,5 10,5.44771525 10,6 L10,7 Z" id="Shape" fill="#000000"/><path d="M51,9 L47,9 C46.4477153,9 46,8.55228475 46,8 L46,6 C46,4.34314575 47.3431458,3 49,3 C50.6568542,3 52,4.34314575 52,6 L52,8 C52,8.55228475 51.5522847,9 51,9 Z M48,7 L50,7 L50,6 C50,5.44771525 49.5522847,5 49,5 C48.4477153,5 48,5.44771525 48,6 L48,7 Z" id="Shape" fill="#000000"/><path d="M14,38 L12,38 C10.8954305,38 10,37.1045695 10,36 L10,35 L9,35 C7.8954305,35 7,34.1045695 7,33 L7,31 C7,29.8954305 7.8954305,29 9,29 L10,29 L10,28 C10,26.8954305 10.8954305,26 12,26 L14,26 C15.1045695,26 16,26.8954305 16,28 L16,29 L17,29 C18.1045695,29 19,29.8954305 19,31 L19,33 C19,34.1045695 18.1045695,35 17,35 L16,35 L16,36 C16,37.1045695 15.1045695,38 14,38 Z M9,31 L9,33 L11,33 C11.5522847,33 12,33.4477153 12,34 L12,36 L14,36 L14,34 C14,33.4477153 14.4477153,33 15,33 L17,33 L17,31 L15,31 C14.4477153,31 14,30.5522847 14,30 L14,28 L12,28 L12,30 C12,30.5522847 11.5522847,31 11,31 L9,31 Z" id="Shape" fill="#000000"/><path d="M51,35 L43,35 C41.8954305,35 41,34.1045695 41,33 L41,31 C41,29.8954305 41.8954305,29 43,29 L51,29 C52.1045695,29 53,29.8954305 53,31 L53,33 C53,34.1045695 52.1045695,35 51,35 Z M43,31 L43,33 L51,33 L51,31 L43,31 Z" id="Shape" fill="#000000"/><path d="M27,48 C26.6785564,48.0000774 26.3766717,47.8456288 26.1886576,47.5849053 C26.0006435,47.3241819 25.9494238,46.9889726 26.051,46.684 L28.613,39 L25.344,39 C24.7118916,39.0000439 24.116968,38.7012626 23.7395336,38.1942081 C23.3620991,37.6871537 23.2465849,37.0315159 23.428,36.426 L25.828,28.426 C26.0781373,27.5772312 26.8591493,26.9959561 27.744,27 L31.656,27 C32.2881084,26.9999561 32.883032,27.2987374 33.2604664,27.8057919 C33.6379009,28.3128463 33.7534151,28.9684841 33.572,29.574 L32.244,34 L34.865,34 C35.6406323,34.0006784 36.3459333,34.4497545 36.6746989,35.1522636 C37.0034646,35.8547727 36.8964051,36.6840236 36.4,37.28 L27.768,47.64 C27.5780911,47.8680019 27.2967326,47.9998887 27,48 Z M30,37 C30.3214436,36.9999226 30.6233283,37.1543712 30.8113424,37.4150947 C30.9993565,37.6758181 31.0505762,38.0110274 30.949,38.316 L29.625,42.289 L34.865,36 L32.244,36 C31.6118916,36.0000439 31.016968,35.7012626 30.6395336,35.1942081 C30.2620991,34.6871537 30.1465849,34.0315159 30.328,33.426 L31.656,29 L27.744,29 L25.344,37 L30,37 Z" id="Shape" fill="#000000"/><path d="M9,49 L7,49 C6.44771525,49 6,48.5522847 6,48 C6,47.4477153 6.44771525,47 7,47 L9,47 C9.55228475,47 10,47.4477153 10,48 C10,48.5522847 9.55228475,49 9,49 Z" id="Shape" fill="#000000"/><path d="M20,49 L13,49 C12.4477153,49 12,48.5522847 12,48 C12,47.4477153 12.4477153,47 13,47 L20,47 C20.5522847,47 21,47.4477153 21,48 C21,48.5522847 20.5522847,49 20,49 Z" id="Shape" fill="#000000"/></g></g></svg>
