<svg id="Layer_1" enable-background="new 0 0 256 256" height="512" viewBox="0 0 256 256" width="512" xmlns="http://www.w3.org/2000/svg"><path d="m41.778 150.849v63.816c0 4.375 3.583 7.958 7.958 7.958h26.08c4.379 0 7.958-3.583 7.958-7.958v-63.816z" fill="#7fd57a"/><path d="m83.774 161.204v-10.355h-31.861-10.135v10.355 53.461c0 4.375 3.583 7.958 7.958 7.958h10.134c-4.376 0-7.958-3.583-7.958-7.958v-53.461z" fill="#1d966a"/><path d="m150.51 150.849v63.816c0 4.375 3.583 7.958 7.958 7.958h26.08c4.375 0 7.958-3.583 7.958-7.958v-63.816z" fill="#7fd57a"/><path d="m150.51 150.849h41.996v10.355h-41.996z" fill="#1d966a"/><path d="m83.774 150.849v63.816c0 4.375 3.582 7.958 7.957 7.958h50.821c4.375 0 7.957-3.583 7.957-7.958v-63.816z" fill="#c2cbe8"/><path d="m83.774 150.849h66.735v10.355h-66.735z" fill="#95a2c4"/><path d="m31.645 75.21c-.654 0-1.256-.357-1.57-.931l-4.671-8.543-8.543-4.671c-.574-.314-.931-.916-.931-1.57s.357-1.256.931-1.57l8.543-4.672 4.671-8.542c.314-.574.916-.931 1.57-.931s1.256.357 1.57.931l4.672 8.542 8.542 4.673c.574.313.931.916.931 1.569 0 .654-.357 1.256-.931 1.57l-8.542 4.671-4.672 8.543c-.314.575-.916.931-1.57.931z" fill="#b8dff4"/><path d="m31.645 45.569 4.923 9.002 9.002 4.924-9.002 4.923-4.923 9.003-4.923-9.003-9.003-4.923 9.003-4.924zm0-3.578c-1.308 0-2.512.714-3.139 1.861l-4.42 8.083-8.083 4.421c-1.147.627-1.861 1.832-1.861 3.139 0 1.308.714 2.512 1.861 3.139l8.084 4.42 4.42 8.083c.628 1.147 1.831 1.861 3.139 1.861s2.512-.714 3.139-1.861l4.42-8.083 8.083-4.42c1.147-.627 1.861-1.831 1.861-3.139s-.714-2.512-1.861-3.139l-8.083-4.421-4.42-8.083c-.628-1.147-1.832-1.861-3.14-1.861z" fill="#24202b"/><path d="m173.039 64.012c-.653 0-1.255-.356-1.569-.93l-3.556-6.493-6.488-3.548c-.573-.314-.931-.916-.931-1.57s.356-1.256.931-1.569l6.488-3.55 3.556-6.493c.314-.573.916-.93 1.569-.93h.001c.653 0 1.255.357 1.569.931l3.547 6.492 6.488 3.549c.574.313.931.916.931 1.569 0 .654-.357 1.256-.931 1.57l-6.488 3.547-3.547 6.492c-.314.576-.916.933-1.57.933z" fill="#b8dff4"/><path d="m173.039 40.72 3.799 6.952 6.948 3.801-6.948 3.799-3.799 6.952-3.808-6.952-6.947-3.799 6.947-3.801zm0-3.578c-1.307 0-2.51.713-3.139 1.859l-3.305 6.034-6.029 3.299c-1.146.627-1.86 1.831-1.86 3.139s.714 2.511 1.861 3.139l6.028 3.297 3.306 6.033c.628 1.147 1.831 1.859 3.138 1.859h.002c1.308-.001 2.511-.715 3.138-1.862l3.296-6.031 6.028-3.296c1.147-.627 1.861-1.831 1.861-3.139s-.714-2.512-1.861-3.14l-6.028-3.297-3.296-6.032c-.627-1.147-1.83-1.862-3.138-1.862-.001 0-.001 0-.002 0z" fill="#24202b"/><path d="m191.519 115.051s-.226-.094-.336-.155c-.107-.055-.317-.183-.317-.183-12.435-6.699-17.641-19.409-17.641-19.409l13.071-11.691 16.219 8.284.659.334 16.226 8.288-1.817 17.441s-13.344 3.238-26.064-2.909z" fill="#ffdc00"/><path d="m191.519 115.051s-.226-.094-.336-.155c-.107-.055-.317-.183-.317-.183-12.435-6.699-17.641-19.409-17.641-19.409l13.071-11.691 16.219 8.284.659.334 16.226 8.288-1.817 17.441s-13.344 3.238-26.064-2.909z" fill="#ffdc00"/><path d="m196.126 116.88c-1.53-.489-3.069-1.087-4.607-1.829 0 0-.226-.094-.336-.155-.107-.055-.317-.183-.317-.183-12.435-6.699-17.641-19.409-17.641-19.409l13.071-11.691 9.448 4.822-13.069 11.691c.001.001 4.026 9.827 13.451 16.754z" fill="#e0bb07"/><path d="m204.007 92.709-2.486-1.27-19.475-9.951 4.693-9.19s9.458-7.907 18.83-3.12l14.229-32.297s2.043-5.813 10.849-2.463c0 0 .9.311 1.297.54.412.187 1.189.73 1.189.73 7.881 5.172 4.367 10.239 4.367 10.239l-17.826 30.455c9.372 4.787 8.502 17.081 8.502 17.081l-4.693 9.193z" fill="#ff8b38"/><path d="m227.476 40.802-14.229 32.301c-9.372-4.787-18.83 3.12-18.83 3.12l-4.693 9.189-7.678-3.924 4.693-9.19s9.458-7.907 18.83-3.12l14.229-32.297s2.043-5.813 10.849-2.463c0 0 .9.311 1.297.54.412.187 1.189.73 1.189.73.94.614 1.702 1.228 2.34 1.826-6.404-1.22-7.997 3.288-7.997 3.288z" fill="#e57225"/><path d="m208.924 120.615c-5.072 0-11.661-.809-18.154-3.939-.111-.049-.337-.149-.463-.221-.083-.041-.374-.216-.374-.216-12.766-6.875-18.14-19.714-18.362-20.257-.287-.701-.102-1.507.463-2.012l13.071-11.691c.551-.493 1.35-.596 2.006-.26l33.104 16.906c.659.336 1.043 1.043.966 1.779l-1.817 17.441c-.078.752-.622 1.375-1.357 1.553-.29.071-3.894.917-9.083.917zm-33.516-24.863c1.571 3.163 6.721 12.221 16.307 17.385.091.053.212.127.285.167.103.053.196.091.204.094.031.013.063.027.094.042 9.84 4.755 20.169 3.604 23.643 3.018l1.554-14.904-30.919-15.79z" fill="#24202b"/><path d="m223.482 104.445c-.28 0-.56-.066-.813-.196l-19.476-9.947-21.962-11.221c-.879-.45-1.229-1.527-.778-2.407l4.693-9.19c.109-.214.261-.405.445-.559.399-.334 9.387-7.706 19.061-4.103l13.489-30.619c.194-.501 1.147-2.621 3.73-3.82 2.528-1.174 5.694-1.051 9.41.363.188.063.968.341 1.479.62.516.249 1.194.714 1.397.857 3.282 2.153 5.238 4.647 5.77 7.384.544 2.798-.616 4.815-.908 5.266l-16.899 28.871c8.589 5.728 7.877 17.326 7.84 17.845-.017.239-.082.473-.19.687l-4.693 9.193c-.216.422-.591.742-1.042.889-.181.059-.367.087-.553.087zm-18.662-13.329 17.883 9.133 3.7-7.248c.036-1.892-.17-11.26-7.543-15.026-.438-.224-.766-.619-.903-1.091-.139-.472-.076-.981.173-1.406l17.826-30.455c.023-.04.048-.078.074-.116.226-.352 2.171-3.753-3.879-7.724-.38-.264-.81-.534-.945-.596-.053-.024-.107-.052-.157-.081-.143-.082-.646-.281-.986-.398-6.813-2.588-8.424.977-8.587 1.392-.009.024-.03.078-.041.102l-14.229 32.297c-.198.451-.573.799-1.037.964-.464.166-.976.131-1.413-.092-7.406-3.784-15.088 1.544-16.603 2.69l-3.7 7.247z" fill="#24202b"/><path d="m181.742 107.654c-.48 0-.96-.193-1.312-.573-.671-.725-.628-1.856.097-2.528l15.542-14.4c.723-.671 1.856-.629 2.528.097.671.725.628 1.856-.097 2.528l-15.542 14.4c-.344.319-.78.476-1.216.476z" fill="#24202b"/><path d="m204.04 118.67c-.11 0-.222-.01-.334-.032-.971-.184-1.609-1.119-1.426-2.09l3.722-19.688c.183-.971 1.119-1.61 2.09-1.425.971.184 1.609 1.119 1.426 2.09l-3.722 19.688c-.162.858-.913 1.457-1.756 1.457z" fill="#24202b"/><path d="m199.391 142.891c0 4.376-3.581 7.958-7.958 7.958h-150.983c-4.376 0-7.958-3.581-7.958-7.958v-2.822c0-4.376 3.581-7.958 7.958-7.958h150.982c4.377 0 7.958 3.581 7.958 7.958v2.822z" fill="#c2cbe8"/><path d="m199.391 147.359c0 1.919-3.581 3.489-7.958 3.489h-150.983c-4.376 0-7.958-1.57-7.958-3.489s3.581-3.489 7.958-3.489h150.982c4.378 0 7.959 1.57 7.959 3.489z" fill="#95a2c4"/><path d="m191.433 152.638h-150.983c-5.374 0-9.747-4.373-9.747-9.747v-2.822c0-5.374 4.373-9.747 9.747-9.747h73.981c.988 0 1.789.801 1.789 1.789s-.801 1.789-1.789 1.789h-73.981c-3.401 0-6.168 2.767-6.168 6.168v2.822c0 3.401 2.767 6.168 6.168 6.168h150.982c3.401 0 6.169-2.767 6.169-6.168v-10.779c0-.988.801-1.789 1.789-1.789s1.789.801 1.789 1.789v10.779c.001 5.375-4.371 9.748-9.746 9.748z" fill="#24202b"/><path d="m41.778 150.849v63.816c0 4.375 3.583 7.958 7.958 7.958h26.08c4.379 0 7.958-3.583 7.958-7.958v-63.816z" fill="none"/><path d="m75.816 224.412h-26.08c-5.375 0-9.747-4.373-9.747-9.747v-63.816c0-.988.801-1.789 1.789-1.789h41.996c.988 0 1.789.801 1.789 1.789v63.816c0 5.374-4.372 9.747-9.747 9.747zm-32.249-71.774v62.027c0 3.401 2.768 6.168 6.169 6.168h26.08c3.401 0 6.169-2.767 6.169-6.168v-62.027z" fill="#24202b"/><path d="m150.51 150.849v63.816c0 4.375 3.583 7.958 7.958 7.958h26.08c4.375 0 7.958-3.583 7.958-7.958v-63.816z" fill="none"/><path d="m184.548 224.412h-26.08c-5.375 0-9.747-4.373-9.747-9.747v-63.816c0-.988.801-1.789 1.789-1.789h41.996c.988 0 1.789.801 1.789 1.789v63.816c0 5.374-4.372 9.747-9.747 9.747zm-32.249-71.774v62.027c0 3.401 2.768 6.168 6.169 6.168h26.08c3.401 0 6.169-2.767 6.169-6.168v-62.027z" fill="#24202b"/><path d="m83.774 150.849v63.816c0 4.375 3.582 7.958 7.957 7.958h50.821c4.375 0 7.957-3.583 7.957-7.958v-63.816z" fill="none"/><g fill="#24202b"><path d="m142.553 224.412h-50.821c-5.374 0-9.747-4.373-9.747-9.747v-63.816c0-.988.801-1.789 1.789-1.789h66.735c.988 0 1.789.801 1.789 1.789v63.816c.001 5.374-4.371 9.747-9.745 9.747zm-56.99-71.774v62.027c0 3.401 2.767 6.168 6.168 6.168h50.821c3.401 0 6.168-2.767 6.168-6.168v-62.027z"/><path d="m150.51 173.347h-66.736c-.988 0-1.789-.801-1.789-1.789s.801-1.789 1.789-1.789h66.735c.988 0 1.789.801 1.789 1.789s-.8 1.789-1.788 1.789z"/><path d="m104.484 161.441c0 2.063-1.671 3.734-3.73 3.734-2.06 0-3.73-1.671-3.73-3.734 0-2.06 1.67-3.73 3.73-3.73 2.059 0 3.73 1.67 3.73 3.73z"/><path d="m121.643 161.441c0 2.063-1.671 3.734-3.73 3.734s-3.73-1.671-3.73-3.734c0-2.06 1.671-3.73 3.73-3.73s3.73 1.67 3.73 3.73z"/><path d="m138.8 161.441c0 2.063-1.671 3.734-3.73 3.734-2.06 0-3.73-1.671-3.73-3.734 0-2.06 1.67-3.73 3.73-3.73 2.059 0 3.73 1.67 3.73 3.73z"/><path d="m83.774 173.347h-41.996c-.988 0-1.789-.801-1.789-1.789s.801-1.789 1.789-1.789h41.996c.988 0 1.789.801 1.789 1.789s-.801 1.789-1.789 1.789z"/><path d="m192.506 173.347h-41.996c-.988 0-1.789-.801-1.789-1.789s.801-1.789 1.789-1.789h41.996c.988 0 1.789.801 1.789 1.789s-.801 1.789-1.789 1.789z"/><path d="m62.777 224.412c-.988 0-1.789-.801-1.789-1.789v-51.064c0-.988.801-1.789 1.789-1.789s1.789.801 1.789 1.789v51.064c0 .988-.801 1.789-1.789 1.789z"/><path d="m171.509 224.412c-.988 0-1.789-.801-1.789-1.789v-51.064c0-.988.801-1.789 1.789-1.789s1.789.801 1.789 1.789v51.064c0 .988-.801 1.789-1.789 1.789z"/><path d="m65.193 163.727h-7.957c-.988 0-1.789-.801-1.789-1.789s.801-1.789 1.789-1.789h7.957c.988 0 1.789.801 1.789 1.789s-.801 1.789-1.789 1.789z"/><path d="m175.486 163.727h-7.958c-.988 0-1.789-.801-1.789-1.789s.801-1.789 1.789-1.789h7.958c.988 0 1.789.801 1.789 1.789s-.8 1.789-1.789 1.789z"/></g><path d="m44.343 103.266c-.039.502-.147.979-.147 1.493v13.606c0 5.347 2.129 10.172 5.56 13.747h30.871c3.427-3.575 5.563-8.4 5.563-13.747v-13.606c0-.513-.116-.991-.151-1.493z" fill="#c2cbe8"/><path d="m44.343 103.266c-.039.502-.147.979-.147 1.493v13.606c0 5.347 2.129 10.172 5.56 13.747h30.871c3.427-3.575 5.563-8.4 5.563-13.747v-13.606c0-.513-.116-.991-.151-1.493z" fill="#14a2ff"/><path d="m86.04 103.266h-31.82c-.038.502-.151.979-.151 1.493v2.277h26.41c.039.501.148.979.148 1.492v13.607c0 3.661-1.057 7.041-2.786 9.978h2.786c3.427-3.575 5.563-8.4 5.563-13.747v-13.606c0-.515-.116-.992-.15-1.494z" fill="#b8dff4"/><path d="m54.069 118.365v-11.329-2.277c0-.513.113-.991.151-1.493h-9.877c-.039.502-.147.979-.147 1.493v2.277 11.329c0 5.347 2.129 10.172 5.56 13.747h9.873c-3.427-3.575-5.56-8.401-5.56-13.747z" fill="#098dd6"/><path d="m80.627 133.901h-30.871c-.487 0-.954-.199-1.291-.55-3.907-4.071-6.059-9.393-6.059-14.986v-13.606c0-.431.051-.812.096-1.147.021-.16.044-.32.057-.483.072-.932.849-1.652 1.784-1.652h9.877c.988 0 1.789.801 1.789 1.789s-.801 1.789-1.789 1.789h-8.235v13.31c0 4.417 1.612 8.635 4.554 11.958h29.304c2.945-3.329 4.559-7.546 4.559-11.958v-13.606c0-.218-.034-.426-.063-.634-.034-.244-.066-.487-.083-.735-.068-.985.676-1.84 1.662-1.908.974-.073 1.84.675 1.908 1.662.012.165.036.327.058.489.045.329.097.701.097 1.126v13.606c0 5.586-2.152 10.908-6.061 14.985-.339.352-.805.551-1.293.551z" fill="#24202b"/><path d="m44.196 108.537h-9.415c-.988 0-1.789-.801-1.789-1.789s.801-1.789 1.789-1.789h9.415c.988 0 1.789.801 1.789 1.789s-.801 1.789-1.789 1.789z" fill="#24202b"/><path d="m95.602 108.537h-9.412c-.988 0-1.789-.801-1.789-1.789s.801-1.789 1.789-1.789h9.411c.988 0 1.789.801 1.789 1.789s-.801 1.789-1.788 1.789z" fill="#24202b"/><path d="m135.9 110.719c0 7.871-6.388 14.255-14.258 14.255-7.872 0-14.26-6.384-14.26-14.255 0-7.872 6.388-14.256 14.26-14.256 7.871 0 14.258 6.384 14.258 14.256z" fill="#c2cbe8"/><path d="m121.643 126.763c-8.849 0-16.049-7.197-16.049-16.044 0-8.848 7.2-16.045 16.049-16.045s16.047 7.198 16.047 16.045c-.001 8.847-7.199 16.044-16.047 16.044zm0-28.511c-6.876 0-12.471 5.593-12.471 12.467s5.594 12.466 12.471 12.466c6.875 0 12.469-5.592 12.469-12.466-.001-6.874-5.594-12.467-12.469-12.467z" fill="#24202b"/><path d="m121.643 98.252c-.988 0-1.789-.801-1.789-1.789v-10.942c0-.988.801-1.789 1.789-1.789s1.789.801 1.789 1.789v10.942c0 .988-.801 1.789-1.789 1.789z" fill="#24202b"/><path d="m126.949 80.217c0 2.929-2.379 5.304-5.306 5.304-2.929 0-5.308-2.374-5.308-5.304v-12.931c0-2.93 2.378-5.303 5.308-5.303 2.927 0 5.306 2.374 5.306 5.303z" fill="#c2cbe8"/><path d="m121.643 87.31c-3.913 0-7.097-3.182-7.097-7.093v-12.931c0-3.911 3.184-7.092 7.097-7.092 3.912 0 7.095 3.182 7.095 7.092v12.931c0 3.911-3.183 7.093-7.095 7.093zm0-23.539c-1.94 0-3.519 1.576-3.519 3.514v12.931c0 1.938 1.579 3.515 3.519 3.515 1.939 0 3.517-1.577 3.517-3.515v-12.93c0-1.938-1.578-3.515-3.517-3.515z" fill="#24202b"/><path d="m127.275 110.714c0 3.116-2.518 5.639-5.632 5.639-3.108 0-5.634-2.522-5.634-5.639 0-3.112 2.526-5.634 5.634-5.634 3.114 0 5.632 2.523 5.632 5.634z" fill="#95a2c4"/><path d="m155.32 85.695c8.284 0 15.023 6.738 15.023 15.022v31.395h-7.958v-6.131h-5.922v-7.958h5.922v-17.306c0-3.894-3.171-7.064-7.064-7.064s-7.064 3.17-7.064 7.064v6.862h-7.958v-6.862c0-8.284 6.738-15.022 15.021-15.022z" fill="#eee"/><path d="m170.343 133.901h-7.958c-.988 0-1.789-.801-1.789-1.789v-4.342h-4.133c-.988 0-1.789-.801-1.789-1.789v-7.958c0-.988.801-1.789 1.789-1.789h4.133v-15.517c0-2.909-2.366-5.275-5.275-5.275-2.908 0-5.274 2.366-5.274 5.275v6.862c0 .988-.801 1.789-1.789 1.789h-7.958c-.988 0-1.789-.801-1.789-1.789v-6.862c0-9.27 7.541-16.811 16.811-16.811s16.812 7.542 16.812 16.811v31.395c-.002.988-.803 1.789-1.791 1.789zm-6.169-3.578h4.38v-29.605c0-7.297-5.937-13.233-13.233-13.233s-13.232 5.936-13.232 13.233v5.073h4.38v-5.073c0-4.881 3.972-8.853 8.853-8.853 4.882 0 8.854 3.972 8.854 8.853v17.306c0 .988-.801 1.789-1.789 1.789h-4.133v4.379h4.133c.988 0 1.789.801 1.789 1.789v4.342z" fill="#24202b"/></svg>