<svg height="512pt" viewBox="-60 0 512 512" width="512pt" xmlns="http://www.w3.org/2000/svg"><path d="m230.550781 25.601562c.023438 4.527344-1.792969 8.867188-5.035156 12.03125-3.160156 3.242188-7.503906 5.058594-12.03125 5.035157h-34.472656c-9.285157-.207031-16.710938-7.78125-16.726563-17.066407-.023437-4.527343 1.792969-8.871093 5.035156-12.035156 3.160157-3.238281 7.503907-5.058594 12.03125-5.03125h34.132813c9.414063.027344 17.039063 7.652344 17.066406 17.066406zm0 0" fill="#673ab7"/><path d="m247.617188 358.398438-17.066407 119.46875h-68.265625l-17.066406-119.46875zm0 0" fill="#6a1b9a"/><path d="m222.019531 358.398438-17.066406 119.46875h-42.667969l-17.066406-119.46875zm0 0" fill="#9d27b0"/><path d="m324.417969 153.601562-85.332031 179.199219h-85.335938l-85.332031-179.199219 102.398437-110.933593h51.203125zm0 0" fill="#d84315"/><path d="m298.816406 153.601562-85.332031 179.199219h-59.734375l-85.332031-179.199219 102.398437-110.933593h25.601563zm0 0" fill="#ff5722"/><path d="m247.617188 136.535156-34.132813 196.265625h-34.132813l-34.132812-196.265625zm0 0" fill="#ff9801"/><path d="m179.351562 332.800781h-25.601562l-85.332031-179.199219 76.800781-17.066406zm0 0" fill="#ffdc00"/><path d="m179.351562 42.667969-34.132812 93.867187-76.800781 17.066406 102.398437-110.933593zm0 0" fill="#ffeb3a"/><path d="m247.617188 136.535156h-102.398438l34.132812-93.867187h34.132813zm0 0" fill="#ffdc00"/><path d="m324.417969 153.601562-76.800781-17.066406-34.132813-93.867187h8.535156zm0 0" fill="#ff9801"/><path d="m264.683594 349.867188c-.066406 9.398437-7.667969 17-17.066406 17.066406h-102.398438c-9.414062-.027344-17.039062-7.652344-17.066406-17.066406.066406-9.398438 7.667968-17 17.066406-17.066407h102.398438c9.414062.027344 17.039062 7.652344 17.066406 17.066407zm0 0" fill="#4527a0"/><path d="m239.085938 349.867188c-.070313 9.398437-7.671876 17-17.066407 17.066406h-76.800781c-9.414062-.027344-17.039062-7.652344-17.066406-17.066406.066406-9.398438 7.667968-17 17.066406-17.066407h76.800781c9.414063.027344 17.039063 7.652344 17.066407 17.066407zm0 0" fill="#673ab7"/><path d="m247.617188 486.398438c-.066407 9.398437-7.667969 17-17.066407 17.066406h-68.265625c-9.414062-.027344-17.039062-7.652344-17.066406-17.066406.066406-9.394532 7.667969-16.996094 17.066406-17.066407h68.265625c9.414063.027344 17.039063 7.652344 17.066407 17.066407zm0 0" fill="#4527a0"/><path d="m222.019531 486.398438c-.070312 9.398437-7.671875 17-17.066406 17.066406h-42.667969c-9.414062-.027344-17.039062-7.652344-17.066406-17.066406.066406-9.394532 7.667969-16.996094 17.066406-17.066407h42.667969c9.414063.027344 17.039063 7.652344 17.066406 17.066407zm0 0" fill="#673ab7"/><path d="m213.484375 51.199219h-34.132813c-14.140624 0-25.601562-11.460938-25.601562-25.597657 0-14.140624 11.460938-25.601562 25.601562-25.601562h34.132813c14.140625 0 25.601563 11.460938 25.601563 25.601562 0 14.136719-11.460938 25.597657-25.601563 25.597657zm-34.132813-34.132813c-4.714843 0-8.535156 3.820313-8.535156 8.535156 0 4.710938 3.820313 8.53125 8.535156 8.53125h34.132813c4.714844 0 8.535156-3.820312 8.535156-8.53125 0-4.714843-3.820312-8.535156-8.535156-8.535156zm0 0"/><path d="m68.417969 162.132812c-3.390625 0-6.457031-2.003906-7.816407-5.109374-1.359374-3.105469-.753906-6.71875 1.546876-9.210938l102.398437-110.933594c2.066406-2.242187 5.171875-3.207031 8.148437-2.539062 2.972657.671875 5.363282 2.878906 6.269532 5.789062.910156 2.910156.195312 6.085938-1.875 8.324219l-83.90625 90.902344 50.1875-11.152344c.605468-.136719 1.226562-.203125 1.847656-.203125h51.199219c4.710937 0 8.535156 3.820312 8.535156 8.535156 0 4.710938-3.824219 8.53125-8.535156 8.53125h-50.261719l-75.886719 16.863282c-.609375.136718-1.230469.203124-1.851562.203124zm0 0"/><path d="m213.484375 341.332031h-34.132813c-4.148437.003907-7.699218-2.980469-8.410156-7.070312l-34.132812-196.265625c-.253906-1.46875-.121094-2.976563.390625-4.378906l34.132812-93.867188c1.609375-4.429688 6.507813-6.714844 10.9375-5.105469 4.429688 1.613281 6.714844 6.507813 5.105469 10.9375l-33.359375 91.734375 32.515625 186.949219h19.773438l32.515624-186.953125-33.355468-91.730469c-1.613282-4.429687.671875-9.324219 5.101562-10.9375 4.429688-1.609375 9.328125.675781 10.941406 5.105469l34.132813 93.867188c.507813 1.402343.640625 2.910156.386719 4.378906l-34.132813 196.265625c-.710937 4.089843-4.261719 7.074219-8.410156 7.070312zm0 0"/><path d="m196.417969 341.332031h-42.667969c-3.289062 0-6.289062-1.890625-7.703125-4.863281l-85.332031-179.199219c-1.925782-4.238281-.101563-9.234375 4.101562-11.238281 4.203125-2 9.230469-.261719 11.304688 3.90625l83.015625 174.328125h37.28125c4.710937 0 8.535156 3.820313 8.535156 8.535156 0 4.710938-3.824219 8.53125-8.535156 8.53125zm0 0"/><path d="m239.085938 341.332031h-42.667969c-4.714844 0-8.535157-3.820312-8.535157-8.53125 0-4.714843 3.820313-8.535156 8.535157-8.535156h37.28125l83.015625-174.335937c1.277344-2.808594 3.96875-4.707032 7.042968-4.96875 3.070313-.265626 6.046876 1.152343 7.78125 3.703124 1.734376 2.550782 1.957032 5.839844.582032 8.601563l-85.332032 179.199219c-1.414062 2.972656-4.414062 4.867187-7.703124 4.867187zm0 0"/><path d="m324.417969 162.132812c-.621094 0-1.242188-.066406-1.851563-.203124l-75.886718-16.863282h-50.261719c-4.714844 0-8.535157-3.820312-8.535157-8.53125 0-4.714844 3.820313-8.535156 8.535157-8.535156h51.199219c.621093 0 1.242187.066406 1.851562.203125l50.1875 11.152344-83.910156-90.902344c-2.066406-2.238281-2.78125-5.414063-1.875-8.324219s3.296875-5.117187 6.273437-5.789062c2.972657-.667969 6.078125.296875 8.144531 2.539062l102.402344 110.933594c2.296875 2.492188 2.90625 6.105469 1.542969 9.210938-1.359375 3.105468-4.425781 5.109374-7.816406 5.109374zm0 0"/><path d="m247.617188 375.464844h-102.398438c-14.140625 0-25.601562-11.460938-25.601562-25.597656 0-14.140626 11.460937-25.601563 25.601562-25.601563h102.398438c14.140624 0 25.601562 11.460937 25.601562 25.601563 0 14.136718-11.460938 25.597656-25.601562 25.597656zm-102.398438-34.132813c-4.714844 0-8.535156 3.820313-8.535156 8.535157 0 4.710937 3.820312 8.53125 8.535156 8.53125h102.398438c4.714843 0 8.535156-3.820313 8.535156-8.53125 0-4.714844-3.820313-8.535157-8.535156-8.535157zm0 0"/><path d="m230.550781 512h-68.265625c-14.140625 0-25.601562-11.460938-25.601562-25.601562 0-14.136719 11.460937-25.597657 25.601562-25.597657h68.265625c14.140625 0 25.601563 11.460938 25.601563 25.597657 0 14.140624-11.460938 25.601562-25.601563 25.601562zm-68.265625-34.132812c-4.714844 0-8.535156 3.820312-8.535156 8.53125 0 4.714843 3.820312 8.535156 8.535156 8.535156h68.265625c4.714844 0 8.535157-3.820313 8.535157-8.535156 0-4.710938-3.820313-8.53125-8.535157-8.53125zm0 0"/><path d="m230.550781 477.867188h-68.265625c-4.171875 0-7.730468-3.015626-8.417968-7.128907l-17.066407-102.398437c-.414062-2.476563.285157-5.007813 1.90625-6.921875 1.621094-1.914063 4.003907-3.019531 6.511719-3.019531h102.398438c2.507812 0 4.890624 1.105468 6.511718 3.019531 1.621094 1.914062 2.316406 4.445312 1.90625 6.921875l-17.066406 102.398437c-.6875 4.113281-4.246094 7.128907-8.417969 7.128907zm-61.035156-17.066407h53.804687l14.222657-85.335937h-82.25zm0 0"/><path d="m153.75 426.667969h-10.507812c-17.980469.355469-35.03125-7.988281-45.785157-22.40625-8.519531-11.484375-13.183593-25.371094-13.3125-39.671875-.09375-6.730469-3.664062-12.9375-9.4375-16.402344-7.160156-4.601562-15.519531-6.988281-24.03125-6.855469-5.582031 0-33.457031 1.445313-33.457031 29.953125-1.15625 10.300782 3.195312 20.453125 11.457031 26.714844 3.785157 2.382812 8.558594 2.535156 12.488281.402344 2.75-1.285156 4.585938-3.953125 4.800782-6.980469-.015625-4.710937 3.789062-8.546875 8.503906-8.5625 4.710938-.015625 8.546875 3.792969 8.5625 8.503906-.097656 9.363281-5.425781 17.886719-13.800781 22.078125-9.457031 5.15625-20.988281 4.6875-29.996094-1.222656-13.140625-9.320312-20.390625-24.878906-19.082031-40.933594 0-32.304687 26.191406-47.019531 50.523437-47.019531 24.496094 0 50.53125 14.132813 50.53125 40.324219.15625 10.753906 3.710938 21.179687 10.152344 29.789062 7.613281 9.84375 19.445313 15.492188 31.882813 15.222656h10.507812c4.714844 0 8.535156 3.820313 8.535156 8.53125 0 4.714844-3.820312 8.535157-8.535156 8.535157zm0 0"/><path d="m249.59375 426.667969h-10.507812c-4.714844 0-8.535157-3.820313-8.535157-8.535157 0-4.710937 3.820313-8.53125 8.535157-8.53125h10.507812c12.4375.265626 24.265625-5.378906 31.878906-15.222656 6.441406-8.609375 9.996094-19.035156 10.152344-29.789062 0-26.191406 26.035156-40.324219 50.53125-40.324219 24.335938 0 50.527344 14.714844 50.527344 47.019531 1.308594 16.054688-5.941406 31.613282-19.082032 40.933594-9.007812 5.914062-20.539062 6.382812-29.996093 1.21875-8.359375-4.175781-13.683594-12.671875-13.800781-22.015625-.015626-4.710937 3.792968-8.546875 8.503906-8.5625 4.714844-.015625 8.546875 3.792969 8.5625 8.503906.199218 3.046875 2.039062 5.742188 4.800781 7.039063 3.929687 2.128906 8.703125 1.976562 12.488281-.398438 8.261719-6.265625 12.613282-16.414062 11.457032-26.71875.484374-8.683594-3.195313-17.082031-9.90625-22.613281-6.808594-5.011719-15.101563-7.59375-23.554688-7.339844-16.449219 0-33.460938 8.707031-33.460938 23.257813-.132812 14.300781-4.792968 28.1875-13.3125 39.671875-10.753906 14.417969-27.804687 22.761719-45.789062 22.40625zm0 0"/><path d="m204.953125 170.667969h-17.070313c-4.710937 0-8.53125-3.820313-8.53125-8.535157 0-4.710937 3.820313-8.53125 8.53125-8.53125h17.070313c4.710937 0 8.53125 3.820313 8.53125 8.53125 0 4.714844-3.820313 8.535157-8.53125 8.535157zm0 0"/></svg>