<svg height="512pt" viewBox="0 0 512 512" width="512pt" xmlns="http://www.w3.org/2000/svg"><path d="m386 194.5c-35.898438 0-65 29.101562-65 65v-88.5c0-35.898438-29.101562-65-65-65s-65 29.101562-65 65v48.5c0-35.898438-29.101562-65-65-65s-65 29.101562-65 65v285h390v-245c0-35.898438-29.101562-65-65-65zm0 0" fill="#ffbf9d"/><g fill="#ffd4bd"><path d="m126 154.5v165c0 66.75 16.367188 129.675781 45.28125 185h19.71875v-285c0-35.984375-29.242188-65-65-65zm0 0"/><path d="m405.007812 197.332031-19.007812-2.832031v125c0 66.75 16.367188 129.675781 45.28125 185h19.71875v-245c0-29.285156-19.367188-54.039062-45.992188-62.167969zm0 0"/><path d="m320.917969 167.785156c-.429688-8.851562-2.699219-17.648437-6.644531-25.589844-10.621094-21.441406-32.71875-36.195312-58.273438-36.195312v213.5c0 66.75 16.367188 129.675781 45.28125 185h19.71875v-333.5c0-1.078125-.027344-2.148438-.082031-3.214844-.015625-.367187.054687 1.066406 0 0zm0 0"/></g><path d="m91 239.5v-99.34375c0-19.109375 15.050781-35.195312 34.15625-35.644531 19.683594-.46875 35.84375 15.410156 35.84375 34.988281v100c0 11.046875-8.953125 20-20 20h-30c-11.046875 0-20-8.953125-20-20zm0 0" fill="#55dafe"/><path d="m156.675781 251.894531c2.699219-3.40625 4.324219-7.707031 4.324219-12.394531v-100c0-17.105469-12.335938-31.382812-28.574219-34.40625-4.980469 15.664062-7.675781 32.34375-7.675781 49.65625 0 36.371094 11.867188 69.96875 31.925781 97.144531zm0 0" fill="#b9f0ff"/><path d="m221 191v-99.34375c0-19.109375 15.050781-35.195312 34.15625-35.644531 19.683594-.46875 35.84375 15.410156 35.84375 34.988281v100c0 11.046875-8.953125 20-20 20h-30c-11.046875 0-20-8.953125-20-20zm0 0" fill="#b28ae4"/><path d="m286.675781 203.394531c2.699219-3.410156 4.324219-7.707031 4.324219-12.394531v-100c0-17.105469-12.335938-31.382812-28.574219-34.40625-4.980469 15.664062-7.675781 32.34375-7.675781 49.65625 0 36.371094 11.867188 69.96875 31.925781 97.144531zm0 0" fill="#c9aaf2"/><path d="m351 279.5v-99.34375c0-19.109375 15.050781-35.195312 34.15625-35.644531 19.683594-.46875 35.84375 15.410156 35.84375 34.988281v100c0 11.046875-8.953125 20-20 20h-30c-11.046875 0-20-8.953125-20-20zm0 0" fill="#ff8e9e"/><path d="m416.675781 291.894531c2.699219-3.40625 4.324219-7.707031 4.324219-12.394531v-100c0-17.105469-12.335938-31.382812-28.574219-34.40625-4.980469 15.664062-7.675781 32.34375-7.675781 49.65625 0 36.371094 11.867188 69.96875 31.925781 97.144531zm0 0" fill="#ffb5c0"/><path d="m428.5 200.785156v-21.285156c-.011719-11.351562-4.429688-22.011719-12.460938-30.039062-8.027343-8.03125-18.699218-12.449219-30.039062-12.460938-.28125 0-.660156 0-1.078125.011719h-.011719c-11.199218.308593-21.648437 4.976562-29.429687 13.148437-7.722657 8.121094-11.980469 18.769532-11.980469 30v20.625c-5.746094 4.15625-10.78125 9.054688-15 14.527344v-44.3125c0-23.425781-11.140625-45.074219-30-58.714844v-21.285156c-.011719-11.339844-4.429688-22.011719-12.460938-30.039062-8.027343-8.03125-18.699218-12.449219-30.039062-12.460938-.289062 0-.640625 0-1.011719.011719-.007812 0-.007812 0-.007812 0-11.230469.289062-21.699219 4.957031-29.5 13.148437-7.71875 8.109375-11.980469 18.769532-11.980469 30v20.625c-18.859375 13.640625-30 35.289063-30 58.714844v4.3125c-4.21875-5.472656-9.253906-10.371094-15-14.527344v-21.285156c-.011719-11.339844-4.429688-22.011719-12.460938-30.039062-8.027343-8.03125-18.699218-12.449219-30.039062-12.460938-.300781 0-.660156 0-1.070312.011719 0 0 0 0-.007813 0-11.203125.308593-21.660156 4.96875-29.441406 13.148437-7.71875 8.121094-11.980469 18.769532-11.980469 30v20.625c-18.859375 13.640625-30 35.289063-30 58.714844v285c0 4.144531 3.359375 7.5 7.5 7.5h390c4.144531 0 7.5-3.355469 7.5-7.5v-245c0-23.425781-11.140625-45.074219-30-58.714844zm15 296.214844h-115v-152.640625c0-4.144531-3.359375-7.5-7.5-7.5s-7.5 3.355469-7.5 7.5v152.640625h-115v-52.359375c0-4.144531-3.359375-7.5-7.5-7.5s-7.5 3.355469-7.5 7.5v52.359375h-115v-277.5c0-14.570312 5.4375-28.269531 15-38.726562v58.726562c0 7.351562 2.859375 14.25 8.058594 19.4375 5.191406 5.203125 12.089844 8.0625 19.441406 8.0625 4.140625 0 7.5-3.359375 7.5-7.5s-3.359375-7.5-7.5-7.5c-6.878906-.011719-12.488281-5.621094-12.5-12.5v-99.339844c0-15.21875 12.03125-27.851562 26.828125-28.148437h.050781c.171875-.011719.371094-.011719.621094-.011719 7.320312 0 14.21875 2.871094 19.429688 8.070312 5.199218 5.210938 8.070312 12.109376 8.070312 19.429688v100c-.011719 6.878906-5.621094 12.488281-12.5 12.5-4.140625 0-7.5 3.359375-7.5 7.5s3.359375 7.5 7.5 7.5h.011719c7.339843-.011719 14.25-2.871094 19.429687-8.0625 5.199219-5.1875 8.058594-12.089844 8.058594-19.4375v-58.726562c9.5625 10.457031 15 24.15625 15 38.726562v195.140625c0 4.144531 3.359375 7.5 7.5 7.5s7.5-3.355469 7.5-7.5v-243.640625c0-14.570312 5.4375-28.269531 15-38.726562v58.726562c0 7.351562 2.859375 14.25 8.058594 19.4375 5.191406 5.203125 12.089844 8.0625 19.441406 8.0625 4.140625 0 7.5-3.359375 7.5-7.5s-3.359375-7.5-7.5-7.5c-6.878906-.011719-12.488281-5.621094-12.5-12.5v-99.339844c-.011719-15.21875 12.03125-27.851562 26.828125-28.148437h.050781c.160156-.011719.351563-.011719.621094-.011719 7.320312 0 14.21875 2.871094 19.429688 8.058594 5.199218 5.222656 8.070312 12.121094 8.070312 19.441406v100c-.011719 6.878906-5.621094 12.488281-12.5 12.5-4.128906 0-7.5 3.359375-7.5 7.5s3.371094 7.5 7.5 7.5h.011719c7.339843-.011719 14.25-2.871094 19.429687-8.0625 5.199219-5.1875 8.058594-12.089844 8.058594-19.4375v-58.726562c9.5625 10.457031 15 24.15625 15 38.726562v143.359375c0 4.144531 3.359375 7.5 7.5 7.5s7.5-3.355469 7.5-7.5v-54.859375c0-14.566406 5.4375-28.269531 15-38.726562v58.726562c0 7.351562 2.859375 14.25 8.058594 19.4375 5.191406 5.203125 12.089844 8.0625 19.441406 8.0625 4.140625 0 7.5-3.359375 7.5-7.5s-3.359375-7.5-7.5-7.5c-6.878906-.011719-12.488281-5.621094-12.5-12.5v-99.339844c-.011719-15.222656 12.03125-27.851562 26.828125-28.148437h.0625c.140625-.011719.328125-.011719.609375-.011719 7.320312 0 14.21875 2.871094 19.429688 8.058594 5.199218 5.222656 8.070312 12.121094 8.070312 19.441406v100c-.011719 6.878906-5.621094 12.488281-12.5 12.5-4.140625 0-7.5 3.359375-7.5 7.5s3.359375 7.5 7.5 7.5h.011719c7.339843-.011719 14.25-2.871094 19.429687-8.0625 5.199219-5.1875 8.058594-12.089844 8.058594-19.4375v-58.726562c9.5625 10.457031 15 24.160156 15 38.726562zm0 0"/><path d="m156 397h-60c-4.140625 0-7.5 3.355469-7.5 7.5s3.359375 7.5 7.5 7.5h60c4.140625 0 7.5-3.355469 7.5-7.5s-3.359375-7.5-7.5-7.5zm0 0"/><path d="m148.5 427h-45c-4.140625 0-7.5 3.355469-7.5 7.5s3.359375 7.5 7.5 7.5h45c4.140625 0 7.5-3.355469 7.5-7.5s-3.359375-7.5-7.5-7.5zm0 0"/><path d="m286 348.5h-60c-4.140625 0-7.5 3.355469-7.5 7.5s3.359375 7.5 7.5 7.5h60c4.140625 0 7.5-3.355469 7.5-7.5s-3.359375-7.5-7.5-7.5zm0 0"/><path d="m278.5 378.5h-45c-4.140625 0-7.5 3.355469-7.5 7.5s3.359375 7.5 7.5 7.5h45c4.140625 0 7.5-3.355469 7.5-7.5s-3.359375-7.5-7.5-7.5zm0 0"/><path d="m416 437h-60c-4.144531 0-7.5 3.355469-7.5 7.5s3.355469 7.5 7.5 7.5h60c4.144531 0 7.5-3.355469 7.5-7.5s-3.355469-7.5-7.5-7.5zm0 0"/><path d="m408.5 467h-45c-4.144531 0-7.5 3.355469-7.5 7.5s3.355469 7.5 7.5 7.5h45c4.144531 0 7.5-3.355469 7.5-7.5s-3.355469-7.5-7.5-7.5zm0 0"/><path d="m311.507812 20.988281c4.140626 0 7.5-3.355469 7.5-7.5v-5.988281c0-4.140625-3.359374-7.5-7.5-7.5-4.144531 0-7.5 3.359375-7.5 7.5v5.988281c0 4.144531 3.355469 7.5 7.5 7.5zm0 0"/><path d="m289.527344 36.980469h5.992187c4.140625 0 7.5-3.359375 7.5-7.5 0-4.144531-3.359375-7.5-7.5-7.5h-5.992187c-4.140625 0-7.5 3.355469-7.5 7.5 0 4.140625 3.359375 7.5 7.5 7.5zm0 0"/><path d="m327.496094 36.980469h5.988281c4.144531 0 7.5-3.359375 7.5-7.5 0-4.144531-3.355469-7.5-7.5-7.5h-5.988281c-4.140625 0-7.5 3.355469-7.5 7.5 0 4.140625 3.359375 7.5 7.5 7.5zm0 0"/><path d="m311.507812 58.957031c4.140626 0 7.5-3.355469 7.5-7.5v-5.988281c0-4.144531-3.359374-7.5-7.5-7.5-4.144531 0-7.5 3.355469-7.5 7.5v5.988281c0 4.144531 3.355469 7.5 7.5 7.5zm0 0"/><path d="m482.519531 167.011719c-4.140625 0-7.5 3.355469-7.5 7.5v5.988281c0 4.144531 3.359375 7.5 7.5 7.5 4.144531 0 7.5-3.355469 7.5-7.5v-5.988281c0-4.144531-3.355469-7.5-7.5-7.5zm0 0"/><path d="m466.53125 188.988281h-5.992188c-4.140624 0-7.5 3.359375-7.5 7.5 0 4.144531 3.359376 7.5 7.5 7.5h5.992188c4.144531 0 7.5-3.355469 7.5-7.5 0-4.140625-3.355469-7.5-7.5-7.5zm0 0"/><path d="m504.5 188.988281h-5.988281c-4.144531 0-7.5 3.359375-7.5 7.5 0 4.144531 3.355469 7.5 7.5 7.5h5.988281c4.144531 0 7.5-3.355469 7.5-7.5 0-4.140625-3.355469-7.5-7.5-7.5zm0 0"/><path d="m482.519531 204.980469c-4.140625 0-7.5 3.355469-7.5 7.5v5.988281c0 4.144531 3.359375 7.5 7.5 7.5 4.144531 0 7.5-3.355469 7.5-7.5v-5.988281c0-4.144531-3.355469-7.5-7.5-7.5zm0 0"/><path d="m29.480469 122.011719c-4.144531 0-7.5 3.355469-7.5 7.5v5.988281c0 4.144531 3.355469 7.5 7.5 7.5 4.140625 0 7.5-3.355469 7.5-7.5v-5.988281c0-4.144531-3.359375-7.5-7.5-7.5zm0 0"/><path d="m13.488281 143.988281h-5.988281c-4.140625 0-7.5 3.359375-7.5 7.5 0 4.144531 3.359375 7.5 7.5 7.5h5.988281c4.144531 0 7.5-3.355469 7.5-7.5 0-4.140625-3.355469-7.5-7.5-7.5zm0 0"/><path d="m58.957031 151.488281c0-4.140625-3.355469-7.5-7.5-7.5h-5.988281c-4.144531 0-7.5 3.359375-7.5 7.5 0 4.144531 3.355469 7.5 7.5 7.5h5.988281c4.144531 0 7.5-3.355469 7.5-7.5zm0 0"/><path d="m29.480469 159.980469c-4.144531 0-7.5 3.355469-7.5 7.5v5.988281c0 4.144531 3.355469 7.5 7.5 7.5 4.140625 0 7.5-3.355469 7.5-7.5v-5.988281c0-4.144531-3.359375-7.5-7.5-7.5zm0 0"/></svg>