<svg height="512" viewBox="0 0 512 512" width="512" xmlns="http://www.w3.org/2000/svg"><g id="Filled_outline" data-name="Filled outline"><path d="m488 255c0 128.13-103.87 232-232 232a231.854 231.854 0 0 1 -232-232c0-128.13 103.87-232 232-232s232 103.87 232 232z" fill="#ebebe9"/><circle cx="256" cy="255" fill="#48add9" r="192"/><circle cx="256" cy="255" fill="#4db7e5" r="168"/><path d="m64.87 235-3.35 18.4c-1.35-5.13 1.9-12.27 3.35-18.4z" fill="#e0e0de"/><path d="m65.44 231.87a25.332 25.332 0 0 1 -.57 3.13z" fill="#e0e0de"/><path d="m131.25 450.64a233.022 233.022 0 0 1 -84.44-95.21l1.2-27.82 13.51-74.21a7.246 7.246 0 0 0 2.48 3.89l.02.02a191.466 191.466 0 0 0 61.13 138.2z" fill="#e0e0de"/><path d="m387.51 282.12-.15.04a15.578 15.578 0 0 1 -19.36-15.11v7.79a15.584 15.584 0 0 1 -11.8 15.11l-.84.21a15.578 15.578 0 0 1 -19.36-15.11v3.95a16 16 0 0 1 -32 0v-4a20 20 0 0 1 -40 0v-259h104l5.84 52.36 25.45 197.78a15.58 15.58 0 0 1 -11.78 15.98z" fill="#fec9a3"/><path d="m387.51 282.12-.15.04a15.578 15.578 0 0 1 -19.36-15.11v7.79a15.584 15.584 0 0 1 -11.8 15.11l-.84.21a15.578 15.578 0 0 1 -19.36-15.11v3.95a16 16 0 0 1 -32 0v-4a20 20 0 0 1 -40 0v-39c37.69-32.1 84.19-85.72 109.84-167.64l25.45 197.78a15.58 15.58 0 0 1 -11.78 15.98z" fill="#fec093"/><path d="m264 16v315a20 20 0 0 1 -40 0v4a16 16 0 0 1 -32 0v-3.95a15.578 15.578 0 0 1 -19.36 15.11l-.84-.21a15.584 15.584 0 0 1 -11.8-15.11v-7.79a15.578 15.578 0 0 1 -19.36 15.11l-.15-.04a15.58 15.58 0 0 1 -11.78-15.98l7.74-58.96 31.55-247.18z" fill="#fec9a3"/><path d="m264 139.51v191.49a20 20 0 0 1 -40 0v4a16 16 0 0 1 -32 0v-3.95a15.578 15.578 0 0 1 -19.36 15.11l-.84-.21a15.584 15.584 0 0 1 -11.8-15.11v-7.79a15.578 15.578 0 0 1 -19.36 15.11l-.15-.04a15.58 15.58 0 0 1 -11.78-15.98l7.74-58.96c40.15-22.16 89.17-60.09 127.55-123.67z" fill="#fec093"/><path d="m466.167 121.832a32 32 0 0 0 -10.554-18.021l-47.613-40.811h-34.75s7.3 59.428 10.628 85.252l-33.114-22.076a22.2 22.2 0 0 0 -26.932 35.177l52.168 45.647 32 64-24 216h104v-256z" fill="#fed9bf"/><g fill="#f59898"><path d="m301.726 345.98a13.255 13.255 0 0 0 0 26.509 32 32 0 0 0 22.627-9.372l3.882-3.883-3.882-3.882a32.006 32.006 0 0 0 -22.627-9.372z"/><path d="m314.98 332.726a13.255 13.255 0 0 1 26.509 0 32 32 0 0 1 -9.372 22.627l-3.883 3.882-3.882-3.882a32.006 32.006 0 0 1 -9.372-22.627z"/><path d="m354.745 372.491a13.255 13.255 0 1 0 0-26.509 32 32 0 0 0 -22.627 9.372l-3.883 3.882 3.883 3.883a32 32 0 0 0 22.627 9.372z"/><path d="m341.491 385.745a13.255 13.255 0 1 1 -26.509 0 32 32 0 0 1 9.372-22.627l3.882-3.883 3.883 3.883a32 32 0 0 1 9.372 22.627z"/><path d="m230.628 378.882a13.255 13.255 0 0 0 -18.745 18.745 32 32 0 0 0 22.627 9.373h5.49v-5.49a32.005 32.005 0 0 0 -9.372-22.628z"/><path d="m249.372 378.882a13.255 13.255 0 0 1 18.745 18.745 32 32 0 0 1 -22.627 9.373h-5.49v-5.49a32.005 32.005 0 0 1 9.372-22.628z"/><path d="m249.372 435.118a13.255 13.255 0 0 0 18.745-18.745 32 32 0 0 0 -22.627-9.373h-5.49v5.49a32.005 32.005 0 0 0 9.372 22.628z"/><path d="m230.628 435.118a13.255 13.255 0 0 1 -18.745-18.745 32 32 0 0 1 22.627-9.373h5.49v5.49a32.005 32.005 0 0 1 -9.372 22.628z"/></g><path d="m202.161 224.4a22.2 22.2 0 0 0 -32.925-10.226l-28.87 19.246 4.834-36.82 5.99-45.6h-39.19l-47.613 40.811a32 32 0 0 0 -10.554 18.021l-21.833 109.168-8 168h96l-8-128 16.877-33.754 15.123-30.246 52.168-45.647a22.2 22.2 0 0 0 5.993-24.953z" fill="#fed9bf"/><path d="m495.845 230.431-21.834-109.168a40.179 40.179 0 0 0 -13.191-22.526l-47.613-40.811a8.008 8.008 0 0 0 -5.207-1.926h-19.224c-2.956-1.978-6.083-3.945-9.448-5.943l-5.421-35.272-15.814 2.43 15.882 115.82-18.775-12.515a30.2 30.2 0 0 0 -36.638 47.854l50.984 44.61 19.811 39.616 1.943 15.186a7.679 7.679 0 0 1 -5.76 7.58q-.27.069-.534.156a7.636 7.636 0 0 1 -6.106-1.522 7.5 7.5 0 0 1 -2.9-5.923v-12.077h-16v19.84a7.621 7.621 0 0 1 -5.8 7.364c-.114.028-.227.06-.339.094l-.564.169a7.639 7.639 0 0 1 -6.397-1.467 7.5 7.5 0 0 1 -2.9-5.923v-20.077h-16v24a7.953 7.953 0 0 1 -6.994 7.9 9.865 9.865 0 0 1 -1.006.1 7.655 7.655 0 0 1 -5.546-2.3c-.051-.052-.1-.1-.156-.155a7.656 7.656 0 0 1 -2.298-5.545v-24h-16v20a11.7 11.7 0 0 1 -1.937 6.523l-.06.091a11.983 11.983 0 0 1 -22.003-6.614v-260h-16v316a12 12 0 0 1 -24 0v-20h-16v24a7.656 7.656 0 0 1 -2.3 5.546c-.053.051-.1.1-.156.155a7.655 7.655 0 0 1 -5.544 2.299 8.009 8.009 0 0 1 -8-8v-24h-16v20.08a7.5 7.5 0 0 1 -2.9 5.92 7.636 7.636 0 0 1 -6.4 1.464l-.564-.169c-.112-.034-.225-.066-.339-.094a7.621 7.621 0 0 1 -5.8-7.364v-19.837h-15.997v12.08a7.5 7.5 0 0 1 -2.9 5.92 7.635 7.635 0 0 1 -6.108 1.522c-.174-.057-.349-.109-.526-.154a7.611 7.611 0 0 1 -5.067-4.284l13.051-26.1 50.984-44.61a30.2 30.2 0 0 0 -36.634-47.854l-14.176 9.451 8.511-64.933 8.078-61.754 6.313-47.943 3.726-25.519-15.833-2.31-3.09 21.168a240.276 240.276 0 0 0 -134.142 281.592l-.032.159a8.065 8.065 0 0 0 -.146 1.188l-8 168a8 8 0 0 0 7.991 8.381h96a8 8 0 0 0 7.984-8.5l-1.852-29.644a240.113 240.113 0 0 0 252.685 4.348l-2.768 24.911a8 8 0 0 0 7.951 8.885h104a8 8 0 0 0 8-8v-256a8.026 8.026 0 0 0 -.155-1.569zm-358.028 116.255a41.849 41.849 0 0 0 6.585.97 23.448 23.448 0 0 0 11.413-2.971 23.681 23.681 0 0 0 13.876 9.983l.649.194a44.7 44.7 0 0 0 6.062.794 23.491 23.491 0 0 0 13.3-4.148 23.952 23.952 0 0 0 18.298 8.492 23.531 23.531 0 0 0 16.937-7.062c.078-.077.152-.158.229-.237a27.971 27.971 0 0 0 46.834-20.701v-30.669a28.155 28.155 0 0 0 30.855-4.608c.07.071.137.145.208.215a23.531 23.531 0 0 0 16.937 7.062 22.725 22.725 0 0 0 2.962-.219 23.824 23.824 0 0 0 15.326-8.279 23.487 23.487 0 0 0 13.31 4.154 53.67 53.67 0 0 0 6.711-.988 23.681 23.681 0 0 0 13.876-9.983 23.448 23.448 0 0 0 11.413 2.971 23.919 23.919 0 0 0 5.657-.683 8.041 8.041 0 0 0 .925-.286 23.482 23.482 0 0 0 8.166-4.241l-10.923 98.3a183.728 183.728 0 0 1 -111.256 54.154 21.225 21.225 0 0 0 -2.392-27.183 40.442 40.442 0 0 0 -4.282-3.717 40.537 40.537 0 0 0 4.281-3.716 21.255 21.255 0 1 0 -30.058-30.059 40.638 40.638 0 0 0 -3.716 4.281 40.638 40.638 0 0 0 -3.716-4.281 21.255 21.255 0 0 0 -30.059 30.058 40.442 40.442 0 0 0 4.282 3.717 40.537 40.537 0 0 0 -4.281 3.716 21.111 21.111 0 0 0 -6.226 15.029 21.375 21.375 0 0 0 .524 4.641 184.7 184.7 0 0 1 -79.171-49.99l-1.234-19.745 9.575-19.15a23.615 23.615 0 0 0 8.123 4.185zm78.183 42.569a5.257 5.257 0 0 1 8.971-3.716 23.818 23.818 0 0 1 6.885 14.316 23.807 23.807 0 0 1 -14.317-6.885 5.217 5.217 0 0 1 -1.539-3.715zm32.144 10.6a23.818 23.818 0 0 1 6.885-14.316 5.255 5.255 0 1 1 7.43 7.432 23.806 23.806 0 0 1 -14.315 6.884zm14.317 30.606a5.261 5.261 0 0 1 -7.432 0 23.818 23.818 0 0 1 -6.885-14.316 23.807 23.807 0 0 1 14.317 6.885 5.255 5.255 0 0 1 0 7.431zm-44.921-7.432a23.806 23.806 0 0 1 14.316-6.884 23.818 23.818 0 0 1 -6.885 14.316 5.255 5.255 0 1 1 -7.431-7.432zm22.46 14.465c.5.659 1.02 1.3 1.56 1.933-.965-.076-1.927-.174-2.89-.266q.689-.819 1.33-1.667zm-128-293.494a7.977 7.977 0 0 0 -2.12.287 184.9 184.9 0 0 1 39.226-37.956l-4.927 37.669zm-80 112a223.777 223.777 0 0 1 123.773-200.406l-3.918 29.754a200.477 200.477 0 0 0 -78.494 89.235l-14.18 12.154a40.174 40.174 0 0 0 -13.192 22.526l-13.183 65.912q-.806-9.522-.806-19.175zm.39 224 7.572-159.02 21.716-108.58a24.106 24.106 0 0 1 7.915-13.515l45.366-38.885h27.124l-9.143 69.759-17.378 11.585 8.875 13.312 49.236-32.824a14.2 14.2 0 0 1 17.227 22.5l-52.168 45.646a7.988 7.988 0 0 0 -1.887 2.443l-32 64a7.994 7.994 0 0 0 -.829 4.077l7.468 119.502zm223.61 0a221.7 221.7 0 0 1 -131.134-42.4l-2.025-32.395a200.566 200.566 0 0 0 133.159 50.795 199.627 199.627 0 0 0 128.723-46.954l-3.639 32.754a222.152 222.152 0 0 1 -125.084 38.2zm224 0h-87.062l23.013-207.116a7.994 7.994 0 0 0 -.8-4.462l-32-64a7.988 7.988 0 0 0 -1.887-2.443l-52.164-45.646a14.2 14.2 0 0 1 17.227-22.5l49.235 32.824 8.876-13.312-12.81-8.54-9.4-72.8h22.809l45.366 38.886a24.106 24.106 0 0 1 7.915 13.515l21.682 108.386z"/><path d="m301.726 381.49a40.484 40.484 0 0 0 5.655-.4 40.469 40.469 0 0 0 -.4 5.654 21.255 21.255 0 0 0 42.51 0 40.636 40.636 0 0 0 -.4-5.655 40.459 40.459 0 0 0 5.654.4 21.255 21.255 0 0 0 0-42.51 40.636 40.636 0 0 0 -5.655.4 40.469 40.469 0 0 0 .4-5.654 21.255 21.255 0 0 0 -42.51 0 40.622 40.622 0 0 0 .4 5.654 40.622 40.622 0 0 0 -5.654-.4 21.255 21.255 0 0 0 0 42.51zm31.764 5.255a5.255 5.255 0 1 1 -10.509 0 23.817 23.817 0 0 1 5.254-14.992 23.823 23.823 0 0 1 5.256 14.992zm26.51-26.51a5.26 5.26 0 0 1 -5.255 5.255 23.816 23.816 0 0 1 -14.992-5.255 23.822 23.822 0 0 1 14.992-5.255 5.261 5.261 0 0 1 5.255 5.255zm-31.765-31.764a5.26 5.26 0 0 1 5.255 5.255 23.816 23.816 0 0 1 -5.255 14.992 23.824 23.824 0 0 1 -5.255-14.992 5.261 5.261 0 0 1 5.255-5.255zm-26.509 26.509a23.824 23.824 0 0 1 14.992 5.255 23.808 23.808 0 0 1 -14.992 5.255 5.255 5.255 0 0 1 0-10.51z"/></g></svg>