<svg id="Capa_1" enable-background="new 0 0 511.899 511.899" height="512" viewBox="0 0 511.899 511.899" width="512" xmlns="http://www.w3.org/2000/svg"><path d="m427.89 34.502c-7.812-7.812-20.476-7.812-28.288 0l-269.408 269.408 56.576 56.576 241.12-241.12c23.434-23.435 23.434-61.43 0-84.864z" fill="#d5f0f7"/><path d="m442.045 56.932c-2.888-8.19-7.604-15.879-14.155-22.43-7.811-7.811-20.476-7.811-28.288 0l-269.408 269.408 28.288 28.288 269.408-269.408c3.908-3.909 9.032-5.861 14.155-5.858z" fill="#ebfaff"/><path d="m36.743 312.498c-39.057 39.057-39.057 102.382 0 141.439s102.382 39.057 141.439 0 39.057-102.382 0-141.439c-39.058-39.058-102.382-39.058-141.439 0zm113.151 113.151c-11.334 11.334-26.403 17.575-42.432 17.575s-31.098-6.242-42.432-17.575c-23.397-23.397-23.397-61.467 0-84.864 11.334-11.334 26.403-17.576 42.432-17.575 16.028 0 31.098 6.242 42.432 17.575 23.397 23.398 23.397 61.467 0 84.864z" fill="#8eafe2"/><path d="m116.924 453.937c-3.398-3.398-6.493-6.983-9.3-10.716-.054 0-.108.004-.162.004-16.028 0-31.098-6.242-42.432-17.575-23.397-23.398-23.397-61.467 0-84.864 11.334-11.334 26.403-17.576 42.432-17.575.054 0 .108.004.162.004 2.807-3.733 5.902-7.318 9.3-10.716 9.097-9.097 19.512-16.073 30.629-20.933-36.612-16.003-80.85-9.027-110.81 20.933-39.057 39.057-39.057 102.382 0 141.439 29.96 29.96 74.198 36.936 110.81 20.933-11.117-4.861-21.532-11.837-30.629-20.934z" fill="#6a96d7"/><path d="m381.704 303.973-65.877-65.877c.06-1.106.098-2.217.098-3.334 0-33.089-26.919-60.008-60.008-60.008-1.117 0-2.227.038-3.334.098l-140.286-140.287c-7.811-7.812-20.476-7.812-28.288 0-23.434 23.435-23.434 61.429 0 84.864l111.999 111.999c-.06 1.106-.098 2.217-.098 3.334 0 33.089 26.919 60.008 60.008 60.008 1.117 0 2.227-.038 3.334-.098l65.877 65.877z" fill="#ebfaff"/><path d="m287.54 266.384-63.244-63.244-111.999-111.999c-16.884-16.884-21.6-41.325-14.155-62.434-5.115.003-10.23 1.955-14.133 5.858-23.434 23.435-23.434 61.429 0 84.864l111.999 111.999c-.06 1.106-.098 2.217-.098 3.334 0 33.089 26.919 60.008 60.008 60.008 1.117 0 2.227-.038 3.334-.098l65.877 65.877 28.288-28.288z" fill="#d5f0f7"/><path d="m475.156 312.562c-39.057-39.057-102.382-39.057-141.439 0s-39.057 102.382 0 141.439 102.382 39.057 141.439 0 39.058-102.382 0-141.439zm-70.719 130.727c-16.029 0-31.098-6.242-42.432-17.575-23.397-23.397-23.397-61.467 0-84.864 11.334-11.333 26.403-17.576 42.432-17.575 16.028 0 31.098 6.242 42.432 17.575 23.397 23.397 23.397 61.467 0 84.864-11.335 11.333-26.404 17.575-42.432 17.575z" fill="#8eafe2"/><path d="m255.917 264.766c8.014 0 15.549-3.121 21.216-8.788 11.698-11.699 11.698-30.733 0-42.432-5.667-5.667-13.202-8.788-21.216-8.788s-15.549 3.121-21.216 8.788c-11.698 11.699-11.698 30.733 0 42.432 5.668 5.667 13.202 8.788 21.216 8.788z" fill="#8eafe2"/><path d="m254.704 255.978c-11.699-11.699-11.699-30.733 0-42.432 3.22-3.22 7.044-5.614 11.214-7.085-3.17-1.118-6.54-1.703-10.001-1.703-8.014 0-15.549 3.121-21.216 8.788-11.699 11.699-11.699 30.733 0 42.432 5.667 5.667 13.202 8.788 21.216 8.788 3.461 0 6.831-.585 10.001-1.702-4.17-1.471-7.994-3.866-11.214-7.086z" fill="#6a96d7"/><path d="m413.898 454.003c-3.398-3.398-6.493-6.983-9.3-10.716-.054 0-.108.004-.162.004-16.028 0-31.098-6.242-42.432-17.575-23.397-23.398-23.397-61.467 0-84.864 11.334-11.334 26.403-17.576 42.432-17.575.054 0 .108.004.162.004 2.807-3.733 5.902-7.318 9.299-10.716 9.097-9.097 19.512-16.073 30.629-20.933-36.612-16.003-80.85-9.028-110.81 20.933-39.057 39.057-39.057 102.382 0 141.439 29.96 29.96 74.198 36.936 110.81 20.933-11.116-4.861-21.53-11.837-30.628-20.934z" fill="#6a96d7"/><path d="m107.462 315.71c-18.032 0-34.984 7.021-47.735 19.772-26.321 26.321-26.321 69.149 0 95.471 12.75 12.75 29.703 19.772 47.735 19.772 18.031 0 34.984-7.022 47.735-19.772 26.321-26.321 26.321-69.149 0-95.471-12.751-12.751-29.704-19.772-47.735-19.772zm37.129 104.636c-9.918 9.917-23.104 15.379-37.128 15.379-14.025 0-27.211-5.462-37.128-15.379-20.472-20.473-20.472-53.785 0-74.258 9.917-9.917 23.104-15.378 37.128-15.378s27.21 5.461 37.128 15.378c20.472 20.473 20.472 53.785 0 74.258z"/><path d="m480.46 307.258c-29.867-29.867-73.077-38.447-110.618-25.754l-46.418-46.418c.001-.108.001-.216.001-.324 0-.106-.008-.211-.008-.318l109.777-109.776c26.321-26.321 26.321-69.149 0-95.47-10.724-10.723-28.17-10.724-38.896 0l-138.063 138.064c-.107 0-.211-.008-.318-.008-.108 0-.216 0-.325.001l-137.992-137.993c-10.724-10.724-28.172-10.724-38.895 0-26.321 26.321-26.321 69.149 0 95.47l58.183 58.183c2.929 2.929 7.678 2.929 10.606 0 2.929-2.929 2.929-7.678 0-10.606l-58.183-58.183c-20.472-20.473-20.472-53.785 0-74.257 2.361-2.361 5.501-3.662 8.841-3.662s6.479 1.3 8.841 3.662l140.287 140.287c1.506 1.506 3.576 2.31 5.71 2.186 1.08-.059 2.037-.087 2.927-.087 28.953 0 52.508 23.556 52.508 52.508 0 .905-.028 1.861-.087 2.923-.116 2.128.679 4.206 2.186 5.713l44.429 44.429c-9.561 4.948-18.531 11.421-26.539 19.43-8.008 8.008-14.481 16.978-19.43 26.539l-44.429-44.428c-1.507-1.506-3.576-2.31-5.71-2.186-1.074.058-2.032.086-2.927.086-28.953 0-52.508-23.556-52.508-52.508 0-.896.028-1.853.086-2.927.116-2.127-.679-4.204-2.186-5.71l-34.01-34.01c-2.928-2.93-7.677-2.929-10.606 0s-2.929 7.678 0 10.606l31.717 31.718c0 .108-.001.216-.001.324 0 .112.008.222.008.334-.059.055-.122.104-.179.162l-46.131 46.131c-11.011-3.735-22.678-5.685-34.646-5.685-28.718 0-55.716 11.184-76.023 31.49-41.919 41.919-41.919 110.126 0 152.046 20.306 20.307 47.305 31.49 76.023 31.49s55.716-11.183 76.023-31.49c29.867-29.867 38.446-73.077 25.754-110.618l46.361-46.361c.106 0 .211.008.318.008s.215 0 .324-.001l46.418 46.418c-12.693 37.541-4.113 80.751 25.754 110.617 20.96 20.959 48.492 31.439 76.023 31.439 27.532 0 55.063-10.48 76.023-31.439 41.919-41.918 41.919-110.126 0-152.045zm-205.699-137.307 130.145-130.146c4.874-4.875 12.809-4.874 17.681 0 20.474 20.473 20.474 53.785 0 74.257l-101.858 101.857c-6.435-22.094-23.874-39.534-45.968-45.968zm-101.882 278.683c-17.474 17.473-40.706 27.096-65.417 27.096s-47.943-9.623-65.417-27.096c-36.07-36.071-36.07-94.762 0-130.833 17.474-17.474 40.706-27.097 65.417-27.097s47.943 9.623 65.417 27.097c36.07 36.071 36.07 94.762 0 130.833zm30.036-114.9c-4.948-9.561-11.422-18.531-19.43-26.539-7.916-7.917-16.853-14.439-26.509-19.46l34.13-34.13c6.435 22.095 23.874 39.535 45.969 45.969zm266.938 114.964c-36.07 36.07-94.762 36.07-130.832 0-36.071-36.071-36.071-94.762 0-130.833 18.035-18.035 41.726-27.053 65.416-27.053s47.381 9.018 65.416 27.053c36.071 36.07 36.071 94.762 0 130.833z"/><path d="m452.171 335.546c-12.75-12.75-29.703-19.772-47.734-19.772s-34.984 7.022-47.735 19.772c-22.146 22.146-26.197 56.268-9.852 82.978 2.164 3.534 6.781 4.644 10.313 2.482 3.533-2.162 4.645-6.779 2.482-10.312-12.714-20.775-9.563-47.315 7.663-64.542 9.918-9.917 23.104-15.379 37.129-15.379s27.211 5.462 37.128 15.379c20.474 20.473 20.474 53.785.001 74.258-9.918 9.917-23.104 15.379-37.129 15.378-9.757 0-19.249-2.669-27.451-7.72-3.526-2.17-8.146-1.073-10.319 2.454-2.172 3.527-1.073 8.147 2.454 10.319 10.568 6.508 22.78 9.948 35.316 9.947h.002c18.03 0 34.982-7.022 47.733-19.772 26.321-26.321 26.321-69.149-.001-95.47z"/><path d="m255.917 272.266c10.018 0 19.436-3.901 26.52-10.984 14.622-14.623 14.622-38.416 0-53.039-7.084-7.083-16.502-10.985-26.52-10.985-10.017 0-19.435 3.901-26.519 10.985-14.623 14.623-14.623 38.416 0 53.039 7.085 7.083 16.502 10.984 26.519 10.984zm-15.912-53.417c4.25-4.25 9.901-6.591 15.912-6.591s11.662 2.341 15.912 6.591c8.774 8.774 8.774 23.051.001 31.825-4.251 4.25-9.902 6.591-15.913 6.591-6.01 0-11.662-2.341-15.912-6.591-8.774-8.773-8.774-23.05 0-31.825z"/></svg>