<svg id="Layer_1" enable-background="new 0 0 256 256" height="512" viewBox="0 0 256 256" width="512" xmlns="http://www.w3.org/2000/svg"><path d="m211.802 167.75c-1.243-7.887-7.846-13.925-15.868-13.925h-104.067c-8.024 0-14.626 6.038-15.869 13.925z" fill="#fa759e"/><path d="m106.29 153.825h-14.423c-8.024 0-14.626 6.038-15.869 13.925h14.423c1.244-7.887 7.846-13.925 15.869-13.925z" fill="#dd5e8c"/><path d="m196.612 153.825v-21.884c0-10.988-2.932-19.894-13.919-19.894h-77.586c-10.986 0-13.963 8.906-13.963 19.894v21.884z" fill="#fa759e"/><path d="m116.204 112.047h-11.097c-10.986 0-13.963 8.906-13.963 19.894v21.884h5.166v-21.884c.001-10.988 8.908-19.894 19.894-19.894z" fill="#dd5e8c"/><path d="m213.685 171.729c0-2.188-1.791-3.979-3.979-3.979h-131.611c-2.187 0-3.979 1.792-3.979 3.979v26.526c0 2.188 1.386 3.979 3.078 3.979 1.694 0 3.079 1.792 3.079 3.979v6.808c0 2.187 1.791 3.979 3.979 3.979h1.99c2.188 0 4.291-1.764 4.674-3.917l1.234-6.932c.383-2.152 2.487-3.917 4.674-3.917h96.176c2.188 0 4.292 1.765 4.675 3.917l1.233 6.932c.383 2.152 2.487 3.917 4.674 3.917h1.99c2.188 0 3.979-1.792 3.979-3.979v-6.808c0-2.188.931-3.979 2.067-3.979 1.137 0 2.067-1.791 2.067-3.979z" fill="#14a2ff"/><path d="m193 202.234c2.188 0 4.292 1.765 4.675 3.917l1.233 6.932c.383 2.152 2.487 3.917 4.674 3.917h1.99c2.188 0 3.979-1.792 3.979-3.979v-6.808c0-1.022.218-1.935.548-2.643-.872-.804-1.997-1.337-3.173-1.337h-13.926z" fill="#098dd6"/><path d="m209.706 167.75h-117.685-13.926c-2.187 0-3.979 1.792-3.979 3.979v5.595 20.931c0 2.188 1.386 3.979 3.078 3.979 1.694 0 3.079 1.792 3.079 3.979v6.808c0 2.187 1.791 3.979 3.979 3.979h1.99c2.188 0 4.291-1.764 4.674-3.917l1.234-6.932c.163-.913.676-1.721 1.332-2.386-.565-.91-1.395-1.532-2.362-1.532-1.692 0-3.077-1.791-3.077-3.979v-16.953h121.664c2.188 0 3.979-1.79 3.979-3.979v-5.595c-.001-2.185-1.792-3.977-3.98-3.977z" fill="#098dd6"/><g fill="#24202b"><path d="m205.572 218.789h-1.99c-3.071 0-5.898-2.369-6.436-5.392l-1.233-6.932c-.231-1.301-1.593-2.442-2.914-2.442h-96.176c-1.32 0-2.682 1.141-2.913 2.442l-1.234 6.932c-.538 3.023-3.364 5.392-6.435 5.392h-1.99c-3.18 0-5.768-2.587-5.768-5.768v-6.808c0-1.233-.693-2.19-1.29-2.19-2.684 0-4.867-2.587-4.867-5.768v-26.526c0-3.181 2.587-5.768 5.768-5.768h131.611c3.181 0 5.768 2.587 5.768 5.768v26.526c0 3.158-1.529 5.569-3.597 5.756-.194.256-.537 1.008-.537 2.202v6.808c.001 3.18-2.587 5.768-5.767 5.768zm-108.749-18.344h96.177c3.071 0 5.899 2.369 6.437 5.393l1.233 6.932c.231 1.3 1.593 2.441 2.913 2.441h1.99c1.208 0 2.189-.982 2.189-2.189v-6.808c0-3.158 1.529-5.571 3.598-5.757.194-.256.536-1.007.536-2.201v-26.526c0-1.208-.982-2.19-2.19-2.19h-131.611c-1.208 0-2.19.982-2.19 2.19v26.526c0 1.233.693 2.189 1.289 2.189 2.684 0 4.868 2.588 4.868 5.769v6.808c0 1.208.982 2.189 2.189 2.189h1.99c1.32 0 2.681-1.141 2.913-2.441l1.234-6.932c.537-3.024 3.364-5.393 6.435-5.393z"/><path d="m211.802 169.539h-135.803c-.523 0-1.02-.229-1.36-.626-.34-.398-.489-.924-.407-1.441 1.41-8.944 8.827-15.436 17.636-15.436h104.067c8.809 0 16.226 6.492 17.635 15.436.082.517-.067 1.043-.407 1.441-.341.397-.838.626-1.361.626zm-133.564-3.578h131.325c-1.842-6.105-7.286-10.347-13.629-10.347h-104.067c-6.343 0-11.787 4.242-13.629 10.347z"/><path d="m196.612 155.614h-105.467c-.988 0-1.789-.801-1.789-1.789v-21.884c0-14.388 5.3-21.683 15.752-21.683h50.771c.988 0 1.789.801 1.789 1.789s-.801 1.789-1.789 1.789h-50.771c-5.226 0-12.174 1.877-12.174 18.105v20.095h101.89v-8.143c0-.988.801-1.789 1.789-1.789s1.789.801 1.789 1.789v9.932c-.001.988-.801 1.789-1.79 1.789z"/><path d="m143.9 204.023c-.988 0-1.789-.801-1.789-1.789v-90.187c0-.988.801-1.789 1.789-1.789s1.789.801 1.789 1.789v90.187c0 .988-.8 1.789-1.789 1.789z"/><path d="m120.58 131.756h-8.75c-.988 0-1.789-.801-1.789-1.789s.801-1.789 1.789-1.789h8.75c.988 0 1.789.801 1.789 1.789s-.801 1.789-1.789 1.789z"/><path d="m178.272 131.756h-8.75c-.988 0-1.789-.801-1.789-1.789s.801-1.789 1.789-1.789h8.75c.988 0 1.789.801 1.789 1.789s-.8 1.789-1.789 1.789z"/></g><path d="m30.784 83.89c-.654 0-1.256-.357-1.57-.931l-4.671-8.543-8.543-4.671c-.574-.314-.931-.916-.931-1.57s.357-1.256.931-1.57l8.543-4.671 4.671-8.543c.314-.574.916-.931 1.57-.931s1.256.357 1.57.931l4.671 8.543 8.543 4.671c.574.314.931.916.931 1.57s-.357 1.256-.931 1.57l-8.543 4.671-4.671 8.543c-.314.574-.916.931-1.57.931z" fill="#b8dff4"/><path d="m30.784 54.25 4.923 9.003 9.003 4.922-9.003 4.923-4.923 9.003-4.923-9.003-9.003-4.923 9.003-4.922zm0-3.579c-1.308 0-2.512.714-3.139 1.862l-4.42 8.083-8.083 4.42c-1.148.627-1.862 1.831-1.862 3.139s.714 2.512 1.861 3.139l8.083 4.42 4.42 8.083c.627 1.148 1.831 1.862 3.139 1.862 1.308 0 2.512-.714 3.139-1.862l4.42-8.083 8.083-4.42c1.147-.628 1.861-1.831 1.861-3.139s-.714-2.512-1.862-3.139l-8.083-4.42-4.419-8.083c-.626-1.148-1.83-1.862-3.138-1.862z" fill="#24202b"/><path d="m172.176 72.692c-.654 0-1.256-.356-1.57-.93l-3.552-6.492-6.489-3.548c-.574-.314-.931-.916-.931-1.57s.357-1.256.931-1.569l6.489-3.549 3.552-6.492c.314-.574.916-.931 1.569-.931h.001c.654 0 1.256.357 1.569.931l3.548 6.492 6.491 3.549c.574.314.931.916.931 1.57s-.357 1.256-.931 1.57l-6.491 3.548-3.548 6.491c-.313.573-.915.93-1.569.93z" fill="#b8dff4"/><path d="m172.176 49.399 3.8 6.952 6.952 3.8-6.952 3.799-3.8 6.952-3.803-6.952-6.948-3.799 6.948-3.8zm0-3.578c-1.308 0-2.511.713-3.139 1.861l-3.3 6.033-6.029 3.297c-1.147.628-1.861 1.832-1.861 3.14s.714 2.511 1.861 3.139l6.029 3.297 3.3 6.032c.628 1.147 1.831 1.861 3.139 1.861h.001c1.308-.001 2.512-.714 3.139-1.862l3.296-6.031 6.031-3.296c1.148-.627 1.862-1.832 1.862-3.139 0-1.309-.714-2.513-1.862-3.14l-6.031-3.297-3.297-6.032c-.627-1.148-1.831-1.862-3.139-1.863z" fill="#24202b"/><path d="m192.381 118.187s-.226-.094-.335-.155c-.112-.056-.322-.183-.322-.183-12.434-6.7-17.637-19.409-17.637-19.409l13.071-11.691 16.218 8.283.661.335 16.222 8.288-1.815 17.443c0-.001-13.345 3.234-26.063-2.911z" fill="#ffdc00"/><path d="m192.381 118.187s-.226-.094-.335-.155c-.112-.056-.322-.183-.322-.183-12.434-6.7-17.637-19.409-17.637-19.409l13.071-11.691 16.218 8.283.661.335 16.222 8.288-1.815 17.443c0-.001-13.345 3.234-26.063-2.911z" fill="#ffdc00"/><path d="m196.985 120.017c-1.527-.49-3.066-1.088-4.604-1.83 0 0-.226-.094-.335-.155-.112-.056-.322-.183-.322-.183-12.434-6.7-17.637-19.409-17.637-19.409l13.071-11.691 9.445 4.822-13.071 11.692c.001-.001 4.031 9.826 13.453 16.754z" fill="#e0bb07"/><path d="m204.869 95.844-2.487-1.27-19.474-9.951 4.694-9.189s9.453-7.908 18.829-3.121l14.225-32.296s2.044-5.812 10.852-2.463c0 0 .898.311 1.294.539.416.187 1.193.73 1.193.73 7.876 5.172 4.368 10.239 4.368 10.239l-17.831 30.456c9.372 4.786 8.505 17.081 8.505 17.081l-4.694 9.192z" fill="#ff8b38"/><path d="m228.333 43.938-14.225 32.301c-9.376-4.788-18.83 3.12-18.83 3.12l-4.694 9.189-7.678-3.924 4.694-9.189s9.453-7.908 18.829-3.121l14.225-32.296s2.044-5.812 10.852-2.463c0 0 .898.311 1.294.539.416.187 1.193.73 1.193.73.937.614 1.698 1.228 2.339 1.827-6.405-1.221-7.999 3.287-7.999 3.287z" fill="#e57225"/><path d="m209.788 123.75c-5.074 0-11.664-.808-18.159-3.94-.111-.048-.336-.15-.463-.221-.072-.033-.368-.209-.368-.209-12.773-6.88-18.144-19.719-18.367-20.262-.287-.701-.102-1.506.463-2.011l13.071-11.691c.551-.492 1.349-.596 2.006-.26l33.101 16.906c.658.336 1.042 1.043.965 1.778l-1.815 17.443c-.078.753-.622 1.375-1.358 1.554-.286.068-3.888.913-9.076.913zm-33.518-24.862c1.57 3.162 6.717 12.22 16.303 17.386.083.048.2.119.273.157.124.064.221.104.221.104.036.015.057.024.092.041 9.803 4.738 20.159 3.599 23.643 3.016l1.551-14.903-30.916-15.79z" fill="#24202b"/><path d="m224.343 107.58c-.28 0-.56-.066-.814-.196l-19.474-9.947-21.961-11.221c-.88-.45-1.229-1.527-.779-2.407l4.694-9.189c.109-.214.261-.404.445-.558.399-.334 9.383-7.705 19.06-4.104l13.486-30.618c.195-.5 1.148-2.621 3.731-3.82 2.527-1.174 5.694-1.052 9.413.362.188.064.963.34 1.473.617.521.25 1.201.716 1.404.859 3.28 2.153 5.235 4.647 5.768 7.383.544 2.798-.615 4.815-.906 5.266l-16.905 28.873c8.587 5.727 7.88 17.325 7.843 17.845-.017.24-.082.474-.191.688l-4.694 9.192c-.216.423-.591.742-1.042.889-.18.057-.366.086-.551.086zm-39.029-23.736 20.368 10.407 17.88 9.133 3.701-7.247c.036-1.893-.172-11.261-7.545-15.026-.438-.224-.766-.619-.904-1.091s-.075-.981.173-1.406l17.831-30.456c.023-.039.047-.078.073-.115.226-.352 2.168-3.754-3.879-7.725-.377-.263-.806-.532-.943-.594-.054-.024-.111-.053-.162-.083-.13-.075-.6-.264-.985-.398-2.793-1.061-5.088-1.221-6.686-.479-1.423.661-1.889 1.834-1.894 1.845-.015.043-.032.086-.05.128l-14.225 32.296c-.198.45-.574.799-1.037.964-.464.165-.975.132-1.414-.092-7.41-3.783-15.088 1.545-16.601 2.691z" fill="#24202b"/><path d="m182.601 110.789c-.481 0-.96-.193-1.313-.573-.671-.725-.628-1.856.097-2.528l15.542-14.399c.725-.671 1.856-.628 2.528.097.671.725.628 1.856-.097 2.528l-15.542 14.399c-.344.318-.78.476-1.215.476z" fill="#24202b"/><path d="m204.898 121.806c-.11 0-.222-.01-.334-.032-.971-.184-1.609-1.12-1.425-2.09l3.727-19.689c.184-.971 1.117-1.612 2.09-1.425.971.184 1.609 1.12 1.425 2.09l-3.727 19.689c-.163.859-.913 1.457-1.756 1.457z" fill="#24202b"/><path d="m64.155 198.255c0 2.188-1.791 3.979-3.978 3.979h-30.836c-2.187 0-3.978-1.791-3.978-3.979v-40.452c0-2.189 1.791-3.979 3.978-3.979h30.836c2.188 0 3.978 1.79 3.978 3.979z" fill="#7fd57a"/><path d="m34.314 198.255c0 2.188-1.791 3.979-3.979 3.979h-.994c-2.187 0-3.978-1.791-3.978-3.979v-40.452c0-2.189 1.791-3.979 3.978-3.979h.994c2.188 0 3.979 1.79 3.979 3.979z" fill="#1d966a"/><path d="m60.177 204.023h-30.836c-3.18 0-5.768-2.587-5.768-5.768v-40.452c0-3.181 2.587-5.768 5.768-5.768h30.836c3.18 0 5.768 2.587 5.768 5.768v40.452c-.001 3.181-2.588 5.768-5.768 5.768zm-30.836-48.409c-1.208 0-2.189.982-2.189 2.19v40.452c0 1.208.982 2.189 2.189 2.189h30.836c1.208 0 2.189-.982 2.189-2.189v-40.452c0-1.208-.982-2.19-2.189-2.19z" fill="#24202b"/><path d="m25.362 221.275c-.988 0-1.789-.801-1.789-1.789v-27.113c0-.988.801-1.789 1.789-1.789s1.789.801 1.789 1.789v27.113c0 .989-.8 1.789-1.789 1.789z" fill="#24202b"/><path d="m64.155 221.275c-.988 0-1.789-.801-1.789-1.789v-27.113c0-.988.801-1.789 1.789-1.789s1.789.801 1.789 1.789v27.113c0 .989-.8 1.789-1.789 1.789z" fill="#24202b"/><path d="m64.155 179.816h-38.793c-.988 0-1.789-.801-1.789-1.789s.801-1.789 1.789-1.789h38.793c.988 0 1.789.801 1.789 1.789s-.801 1.789-1.789 1.789z" fill="#24202b"/><path d="m49.032 169.539h-8.749c-.988 0-1.789-.801-1.789-1.789s.801-1.789 1.789-1.789h8.749c.988 0 1.789.801 1.789 1.789s-.8 1.789-1.789 1.789z" fill="#24202b"/><path d="m59.371 108.838c.359 2.156-1.137 3.924-3.324 3.924h-24.137c-2.188 0-3.684-1.768-3.325-3.924l1.945-11.677c.358-2.156 2.446-3.924 4.633-3.924h17.628c2.188 0 4.274 1.768 4.634 3.924z" fill="#e0bb07"/><path d="m56.047 114.551h-24.137c-1.569 0-3.021-.651-3.982-1.786s-1.365-2.673-1.107-4.221l1.945-11.677c.505-3.039 3.315-5.419 6.398-5.419h17.628c3.081 0 5.891 2.38 6.398 5.418l1.945 11.677c.258 1.548-.146 3.087-1.107 4.222-.962 1.135-2.412 1.786-3.981 1.786zm-20.883-19.525c-1.313 0-2.653 1.135-2.869 2.428l-1.945 11.677c-.086.516.023.984.308 1.32.285.335.729.521 1.252.521h24.137c.522 0 .967-.185 1.251-.52.285-.336.394-.805.308-1.321l-1.945-11.677c-.216-1.293-1.557-2.429-2.869-2.429h-17.628z" fill="#24202b"/><path d="m49.639 130.448c-2.188 0-4.737 0-5.662 0s-3.473 0-5.661 0h-6.483c-2.188 0-3.342 1.676-2.563 3.719l6.07 15.939c.778 2.043 2.661 3.718 4.187 3.718h4.45s2.928 0 4.451 0c1.525 0 3.408-1.675 4.187-3.718l6.068-15.939c.779-2.043-.375-3.719-2.562-3.719z" fill="#e57225"/><path d="m48.429 155.614h-8.901c-2.282 0-4.8-2.094-5.858-4.871l-6.07-15.939c-.584-1.531-.45-3.09.367-4.277.818-1.187 2.228-1.868 3.868-1.868h24.289c1.64 0 3.049.681 3.867 1.868.817 1.187.951 2.746.367 4.278l-6.068 15.938c-1.062 2.777-3.581 4.871-5.861 4.871zm-16.596-23.377c-.439 0-.783.12-.921.319s-.126.563.029.973l6.071 15.94c.606 1.592 1.973 2.566 2.515 2.566h8.901c.542 0 1.908-.975 2.516-2.567l6.068-15.938c.157-.411.167-.774.03-.974-.138-.2-.482-.319-.92-.319z" fill="#24202b"/><path d="m43.978 128.533c-3.8 0-6.891-3.089-6.891-6.889 0-3.799 3.091-6.893 6.891-6.893 3.801 0 6.891 3.094 6.891 6.893 0 3.8-3.091 6.889-6.891 6.889z" fill="#ffdc00"/><path d="m43.978 130.322c-4.786 0-8.68-3.893-8.68-8.678 0-4.787 3.894-8.682 8.68-8.682s8.68 3.895 8.68 8.682c0 4.785-3.894 8.678-8.68 8.678zm0-13.782c-2.813 0-5.102 2.29-5.102 5.104 0 2.812 2.289 5.1 5.102 5.1s5.102-2.288 5.102-5.1c0-2.814-2.289-5.104-5.102-5.104z" fill="#24202b"/></svg>