<svg id="Filled" height="512" viewBox="0 0 512 512" width="512" xmlns="http://www.w3.org/2000/svg"><path d="m480 176-152-48v-96h-144v96l-144 48h-16v32h464v-32z" fill="#ced8dc"/><path d="m24 384h464v96h-464z" fill="#7e8589"/><path d="m192 416h128v32h-128z" fill="#ced8dc"/><g fill="#414649"><circle cx="80" cy="432" r="16"/><circle cx="144" cy="432" r="16"/><circle cx="368" cy="432" r="16"/><circle cx="432" cy="432" r="16"/></g><path d="m480 176h-440l144-48h144z" fill="#7e8589"/><path d="m488 376h-24v-24a8 8 0 0 0 -8-8h-32a8 8 0 0 0 0 16h24v16h-48v-8a8 8 0 0 0 -16 0v8h-48v-16h24a8 8 0 0 0 0-16h-32a8 8 0 0 0 -8 8v24h-128v-24a8 8 0 0 0 -8-8h-32a8 8 0 0 0 0 16h24v16h-48v-8a8 8 0 0 0 -16 0v8h-48v-16h24a8 8 0 0 0 0-16h-32a8 8 0 0 0 -8 8v24h-24a8 8 0 0 0 -8 8v96a8 8 0 0 0 8 8h464a8 8 0 0 0 8-8v-96a8 8 0 0 0 -8-8zm-8 96h-448v-80h448z"/><path d="m192 456h128a8 8 0 0 0 8-8v-32a8 8 0 0 0 -8-8h-128a8 8 0 0 0 -8 8v32a8 8 0 0 0 8 8zm8-32h112v16h-112z"/><path d="m80 456a24 24 0 1 0 -24-24 24.027 24.027 0 0 0 24 24zm0-32a8 8 0 1 1 -8 8 8.008 8.008 0 0 1 8-8z"/><path d="m144 456a24 24 0 1 0 -24-24 24.027 24.027 0 0 0 24 24zm0-32a8 8 0 1 1 -8 8 8.008 8.008 0 0 1 8-8z"/><path d="m368 456a24 24 0 1 0 -24-24 24.027 24.027 0 0 0 24 24zm0-32a8 8 0 1 1 -8 8 8.008 8.008 0 0 1 8-8z"/><path d="m432 456a24 24 0 1 0 -24-24 24.027 24.027 0 0 0 24 24zm0-32a8 8 0 1 1 -8 8 8.008 8.008 0 0 1 8-8z"/><path d="m488 168h-6.769l-145.231-45.862v-90.138a8 8 0 0 0 -8-8h-144a8 8 0 0 0 -8 8v90.233l-137.3 45.767h-14.7a8 8 0 0 0 -8 8v32a8 8 0 0 0 8 8h464a8 8 0 0 0 8-8v-32a8 8 0 0 0 -8-8zm-296-128h128v80h-128zm-6.7 96h141.466l101.334 32h-338.8zm294.7 64h-448v-16h448z"/></svg>