<?xml version="1.0" encoding="iso-8859-1"?>
<!-- Generator: Adobe Illustrator 19.0.0, SVG Export Plug-In . SVG Version: 6.00 Build 0)  -->
<svg version="1.1" id="Capa_1" xmlns="http://www.w3.org/2000/svg" xmlns:xlink="http://www.w3.org/1999/xlink" x="0px" y="0px"
	 viewBox="0 0 512 512" style="enable-background:new 0 0 512 512;" xml:space="preserve">
<g>
	<path style="fill:#FFCB47;" d="M256.001,76.404L256.001,76.404c-8.656,0-15.672-7.016-15.672-15.672V15.672
		C240.328,7.016,247.345,0,256.001,0l0,0c8.656,0,15.672,7.016,15.672,15.672v45.058C271.673,69.386,264.656,76.404,256.001,76.404z
		"/>
	<path style="fill:#FFCB47;" d="M256.001,512L256.001,512c-8.656,0-15.672-7.016-15.672-15.672v-45.058
		c0-8.656,7.016-15.672,15.672-15.672l0,0c8.656,0,15.672,7.016,15.672,15.672v45.058C271.673,504.983,264.656,512,256.001,512z"/>
	<path style="fill:#FFCB47;" d="M382.994,129.006L382.994,129.006c-6.121-6.121-6.121-16.044,0-22.164l31.861-31.861
		c6.121-6.121,16.044-6.121,22.164,0l0,0c6.121,6.121,6.121,16.044,0,22.164l-31.861,31.861
		C399.039,135.127,389.115,135.127,382.994,129.006z"/>
	<path style="fill:#FFCB47;" d="M74.981,437.019L74.981,437.019c-6.121-6.121-6.121-16.044,0-22.164l31.861-31.861
		c6.121-6.121,16.044-6.121,22.164,0l0,0c6.121,6.121,6.121,16.044,0,22.164l-31.861,31.861
		C91.025,443.14,81.101,443.14,74.981,437.019z"/>
	<path style="fill:#FFCB47;" d="M435.597,256L435.597,256c0-8.656,7.016-15.672,15.672-15.672h45.058
		c8.656,0,15.672,7.016,15.672,15.672l0,0c0,8.656-7.016,15.672-15.672,15.672h-45.058C442.614,271.672,435.597,264.656,435.597,256
		z"/>
	<path style="fill:#FFCB47;" d="M0.001,256L0.001,256c0-8.656,7.016-15.672,15.672-15.672h45.058
		c8.656,0,15.672,7.016,15.672,15.672l0,0c0,8.656-7.016,15.672-15.672,15.672H15.673C7.017,271.672,0.001,264.656,0.001,256z"/>
	<path style="fill:#FFCB47;" d="M382.994,382.994L382.994,382.994c6.121-6.121,16.044-6.121,22.164,0l31.861,31.861
		c6.121,6.121,6.121,16.044,0,22.164l0,0c-6.121,6.121-16.044,6.121-22.164,0l-31.861-31.861
		C376.873,399.038,376.873,389.115,382.994,382.994z"/>
	<path style="fill:#FFCB47;" d="M74.981,74.981L74.981,74.981c6.121-6.121,16.044-6.121,22.164,0l31.861,31.861
		c6.121,6.121,6.121,16.044,0,22.164l0,0c-6.121,6.121-16.044,6.121-22.164,0L74.981,97.145
		C68.86,91.024,68.86,81.101,74.981,74.981z"/>
</g>
<circle style="fill:#FF9A47;" cx="256.001" cy="256" r="143.266"/>
<g>
</g>
<g>
</g>
<g>
</g>
<g>
</g>
<g>
</g>
<g>
</g>
<g>
</g>
<g>
</g>
<g>
</g>
<g>
</g>
<g>
</g>
<g>
</g>
<g>
</g>
<g>
</g>
<g>
</g>
</svg>
