<svg id="Capa_1" enable-background="new 0 0 511.999 511.999" height="512" viewBox="0 0 511.999 511.999" width="512" xmlns="http://www.w3.org/2000/svg"><g><path d="m329.738 394.467h-147.477l9.97 65.25h127.537z" fill="#4e5660"/><path d="m186.41 421.621h139.179l4.149-27.154h-147.477z" fill="#383c43"/><path d="m350.303 504.499h-188.607c-7.824 0-13.634-7.249-11.931-14.885l3.271-14.662c1.986-8.903 9.886-15.235 19.008-15.235h167.911c9.122 0 17.022 6.332 19.008 15.235l3.271 14.662c1.703 7.637-4.107 14.885-11.931 14.885z" fill="#8daee1"/><path d="m19.352 339.33v-203.692c0-30.451 24.685-55.137 55.137-55.137h363.022c30.451 0 55.137 24.686 55.137 55.137v203.692c0 30.451-24.686 55.137-55.137 55.137h-363.022c-30.451 0-55.137-24.685-55.137-55.137z" fill="#8daee1"/><path d="m171.865 80.501h-97.376c-30.451 0-55.137 24.686-55.137 55.137v203.692c0 30.451 24.685 55.137 55.137 55.137h129.039c-49.705-56.357-56.636-210.03-31.663-313.966z" fill="#6a95d6"/><path d="m434.863 320.26h-357.727c-8.462 0-15.322-6.86-15.322-15.322v-166.654c0-8.462 6.86-15.322 15.322-15.322h357.727c8.462 0 15.322 6.86 15.322 15.322v166.654c0 8.462-6.86 15.322-15.322 15.322z" fill="#f6ee86"/><path d="m163.808 122.962h-86.672c-8.462 0-15.322 6.86-15.322 15.322v166.654c0 8.462 6.86 15.322 15.322 15.322h92.624c-14.008-57.787-15.334-132.477-5.952-197.298z" fill="#eed076"/><g><path d="m189.71 256.444c-.053 17.048-17.451 30.814-38.859 30.746-21.408-.067-38.719-13.941-38.665-30.989.053-17.048 17.451-30.814 38.859-30.747 21.407.067 38.718 13.941 38.665 30.99z" fill="#eda1ab"/><path d="m322.289 256.859c-.053 17.048 17.258 30.922 38.665 30.989 21.408.067 38.805-13.698 38.859-30.746.053-17.048-17.258-30.923-38.665-30.99-21.408-.067-38.806 13.699-38.859 30.747z" fill="#eda1ab"/><path d="m287.325 233.032c.061-19.314-13.926-21.173-31.186-21.227s-31.257 1.717-31.318 21.031c-.06 19.314 13.882 35.014 31.142 35.068 17.261.055 31.302-15.559 31.362-34.872z" fill="#4e5660"/></g><g fill="#fff"><path d="m113.986 364.864h-20.131c-4.142 0-7.5-3.357-7.5-7.5s3.358-7.5 7.5-7.5h20.131c4.142 0 7.5 3.357 7.5 7.5 0 4.142-3.358 7.5-7.5 7.5z"/><path d="m172.225 364.864h-20.132c-4.142 0-7.5-3.357-7.5-7.5s3.358-7.5 7.5-7.5h20.132c4.142 0 7.5 3.357 7.5 7.5 0 4.142-3.358 7.5-7.5 7.5z"/></g><circle cx="256.074" cy="357.364" fill="#fff" r="7.396"/><path d="m437.51 73.001h-163.403l60.198-60.198c2.929-2.93 2.929-7.678 0-10.607-2.93-2.928-7.678-2.928-10.608 0l-67.697 67.699-67.698-67.699c-2.928-2.928-7.677-2.928-10.607 0-2.929 2.93-2.929 7.678 0 10.607l60.198 60.198h-104.449c-4.142 0-7.5 3.357-7.5 7.5s3.358 7.5 7.5 7.5h304.066c26.267 0 47.637 21.37 47.637 47.637v203.692c0 19.702-11.841 37.104-30.165 44.333-3.854 1.52-5.745 5.876-4.225 9.729 1.512 3.834 5.858 5.752 9.729 4.225 24.093-9.504 39.661-32.383 39.661-58.286v-203.693c0-34.538-28.098-62.637-62.637-62.637zm-15.749 313.966h-347.272c-26.267 0-47.637-21.37-47.637-47.637v-203.692c0-26.267 21.37-47.637 47.637-47.637h23.087c4.142 0 7.5-3.357 7.5-7.5s-3.358-7.5-7.5-7.5h-23.087c-34.538 0-62.637 28.099-62.637 62.637v203.692c0 34.538 28.099 62.637 62.637 62.637h101.331l7.678 50.25h-11.454c-12.73 0-23.557 8.677-26.328 21.102l-3.271 14.662c-2.751 12.335 6.639 24.019 19.251 24.019h188.606c12.64 0 21.998-11.709 19.251-24.019l-3.27-14.662c-2.773-12.425-13.599-21.102-26.328-21.102h-11.455l7.679-50.25h85.582c4.143 0 7.5-3.357 7.5-7.5 0-4.142-3.357-7.5-7.5-7.5zm-100.756 15-7.679 50.25h-114.654l-7.678-50.25zm18.95 65.25c5.651 0 10.457 3.852 11.688 9.367l3.271 14.663c.658 2.949-1.576 5.752-4.61 5.752h-188.608c-3.028 0-5.27-2.798-4.61-5.753l3.27-14.662c1.23-5.516 6.036-9.367 11.688-9.367 14.651.001 146.193 0 167.911 0zm-166.315-270.364c-14.303 0-25.902 11.553-25.947 25.868-.013 4.143 3.335 7.511 7.477 7.523h.024c4.131 0 7.487-3.343 7.499-7.476.019-5.912 4.773-10.915 10.983-10.915 6.051.018 10.935 4.931 10.916 10.984-.013 4.142 3.334 7.511 7.476 7.523h.024c4.131 0 7.486-3.342 7.499-7.477.048-14.364-11.565-26.03-25.951-26.03zm82.523 7.452c-12.582-.033-38.752-.121-38.841 28.508-.073 23.417 17.251 42.524 38.619 42.592h.112c21.316 0 38.7-18.973 38.773-42.35.088-28.627-26.084-28.71-38.663-28.75zm-.11 56.1c-.021 0-.043 0-.065 0-13.097-.041-23.713-12.399-23.666-27.545.032-10.133 3.413-13.556 23.243-13.556.182 0 .366 0 .551.001 20.319.064 23.741 3.477 23.71 13.703-.047 15.122-10.706 27.397-23.773 27.397zm201.632 44.533v-166.653c0-12.584-10.238-22.822-22.822-22.822h-357.727c-12.584 0-22.822 10.238-22.822 22.822v166.653c0 12.584 10.238 22.822 22.822 22.822h357.727c12.584 0 22.822-10.238 22.822-22.822zm-15 0c0 4.313-3.509 7.822-7.822 7.822h-357.727c-4.313 0-7.822-3.509-7.822-7.822v-166.653c0-4.313 3.509-7.822 7.822-7.822h357.727c4.314 0 7.822 3.509 7.822 7.822zm-104.121-107.568c-14.271 0-25.903 11.587-25.948 25.868-.013 4.142 3.334 7.511 7.477 7.523h.024c4.131 0 7.486-3.342 7.499-7.477.018-5.966 4.826-10.915 10.984-10.915 6.037.02 10.935 4.946 10.915 10.984-.013 4.142 3.334 7.511 7.477 7.523h.023c4.132 0 7.487-3.342 7.5-7.477.045-14.362-11.564-26.029-25.951-26.029z"/></g></svg>