<svg height="512pt" viewBox="0 -40 512.00065 512" width="512pt" xmlns="http://www.w3.org/2000/svg"><path d="m504.429688 288.410156c5.957031 7.324219 6.710937 14.347656 7.035156 15.328125 1.699218-11.574219-.640625-23.855469-7.035156-33.46875-112.742188-169.472656-322.085938-169.425781-434.796876 0-5.363281 8.0625-7.863281 18-7.53125 27.824219 109.738282-147.355469 326.484376-152.03125 442.328126-9.683594zm0 0" fill="#ffcdbe"/><path d="m304.800781 143.875c-86.308593-6.691406-174.660156 35.441406-235.167969 126.394531-5.363281 8.058594-7.863281 18-7.527343 27.824219 22.160156-29.761719 48.695312-53.695312 77.875-71.78125 47.578125-50.371094 105.71875-77.851562 164.820312-82.4375zm0 0" fill="#f7c1b3"/><path d="m504.429688 286.714844c-116.265626-141.199219-333.546876-135.574219-442.480469 9.742187-5.054688 6.746094-5.054688 15.964844 0 22.707031 108.957031 145.359376 326.242187 150.910157 442.480469 9.742188 10.09375-12.257812 10.089843-29.933594 0-42.191406zm0 0" fill="#dde4f7"/><path d="m97.472656 319.164062c-5.054687-6.746093-5.054687-15.960937 0-22.707031 52.035156-69.414062 128.789063-106.925781 207.449219-111.816406-90.546875-5.6875-183.117187 31.96875-242.972656 111.816406-5.054688 6.746094-5.054688 15.964844 0 22.707031 59.863281 79.863282 152.425781 117.507813 242.964843 111.820313-78.652343-4.890625-155.402343-42.394531-207.441406-111.820313zm0 0" fill="#ccd7f2"/><path d="m7.617188 111.121094c-2.171876 0-4.332032-.925782-5.835938-2.722656-2.703125-3.21875-2.28125-8.019532.9375-10.722657l.824219-.6875c3.226562-2.691406 8.027343-2.257812 10.71875.972657 2.695312 3.230468 2.257812 8.03125-.972657 10.722656l-.785156.65625c-1.425781 1.195312-3.160156 1.78125-4.886718 1.78125zm487.121093-13.835938c-1.605469 0-3.21875-.503906-4.59375-1.550781-1.328125-1.003906-2.65625-2.003906-3.992187-2.992187-3.378906-2.5-4.089844-7.269532-1.585938-10.644532 2.503906-3.378906 7.269532-4.089844 10.648438-1.585937 1.378906 1.019531 2.753906 2.054687 4.128906 3.09375 3.351562 2.542969 4.003906 7.316406 1.464844 10.667969-1.496094 1.972656-3.769532 3.011718-6.070313 3.011718zm-458.179687-8.503906c-2.386719 0-4.734375-1.117188-6.21875-3.210938-2.429688-3.429687-1.621094-8.179687 1.808594-10.609374 1.40625-.996094 2.816406-1.984376 4.230468-2.960938 3.457032-2.394531 8.199219-1.527344 10.589844 1.929688 2.390625 3.457031 1.527344 8.199218-1.929688 10.589843-1.367187.945313-2.730468 1.898438-4.085937 2.859375-1.335937.949219-2.871094 1.402344-4.394531 1.402344zm424.75-14.503906c-1.371094 0-2.757813-.371094-4.007813-1.148438-1.414062-.875-2.832031-1.746094-4.25-2.601562-3.597656-2.175782-4.75-6.855469-2.578125-10.453125 2.175782-3.597657 6.855469-4.753907 10.453125-2.578125 1.472657.890625 2.941407 1.792968 4.40625 2.703125 3.570313 2.21875 4.667969 6.910156 2.449219 10.480469-1.441406 2.320312-3.929688 3.597656-6.472656 3.597656zm-390.578125-7.375c-2.632813 0-5.195313-1.371094-6.605469-3.820313-2.09375-3.644531-.839844-8.296875 2.804688-10.390625 1.496093-.863281 2.996093-1.710937 4.496093-2.550781 3.671875-2.050781 8.308594-.738281 10.359375 2.933594 2.050782 3.671875.734375 8.308593-2.933594 10.355469-1.445312.8125-2.890624 1.628906-4.335937 2.457031-1.191406.6875-2.496094 1.015625-3.785156 1.015625zm355.097656-12.335938c-1.128906 0-2.273437-.253906-3.355469-.785156-1.496094-.738281-2.992187-1.464844-4.492187-2.179688-3.796875-1.808593-5.40625-6.351562-3.59375-10.144531 1.808593-3.796875 6.351562-5.40625 10.144531-3.597656 1.558594.746094 3.113281 1.5 4.667969 2.261719 3.769531 1.859375 5.324219 6.421875 3.464843 10.195312-1.324218 2.6875-4.027343 4.25-6.835937 4.25zm-318.960937-6.117187c-2.90625 0-5.683594-1.675781-6.949219-4.5-1.71875-3.835938-.003907-8.339844 3.832031-10.0625 1.566406-.703125 3.140625-1.394531 4.714844-2.078125 3.855468-1.671875 8.335937.101562 10.007812 3.957031 1.671875 3.859375-.097656 8.339844-3.957031 10.011719-1.511719.65625-3.027344 1.324218-4.539063 2.003906-1.007812.453125-2.066406.667969-3.109374.667969zm281.675781-9.9375c-.878907 0-1.773438-.152344-2.644531-.476563-1.558594-.578125-3.121094-1.144531-4.683594-1.699218-3.964844-1.40625-6.035156-5.761719-4.625-9.722657 1.40625-3.960937 5.757812-6.03125 9.71875-4.625 1.628906.578125 3.253906 1.167969 4.875 1.769531 3.945312 1.460938 5.957031 5.839844 4.496094 9.78125-1.136719 3.070313-4.042969 4.972657-7.136719 4.972657zm-243.871094-4.726563c-3.199219 0-6.179687-2.03125-7.230469-5.238281-1.3125-3.992187.859375-8.292969 4.855469-9.605469 1.636719-.539062 3.277344-1.066406 4.917969-1.578125 4.011718-1.257812 8.28125.972657 9.539062 4.980469 1.257813 4.011719-.972656 8.285156-4.984375 9.542969-1.574219.496093-3.148437 1-4.71875 1.515625-.792969.261718-1.59375.382812-2.378906.382812zm205.113281-7.328125c-.617187 0-1.246094-.078125-1.871094-.234375-1.613281-.40625-3.222656-.804687-4.835937-1.1875-4.089844-.976562-6.613281-5.082031-5.640625-9.171875.976562-4.085937 5.078125-6.617187 9.167969-5.640625 1.683593.402344 3.363281.816406 5.039062 1.238282 4.078125 1.03125 6.542969 5.171874 5.515625 9.246093-.875 3.449219-3.972656 5.75-7.375 5.75zm-165.964844-3.242187c-3.519531 0-6.679687-2.453125-7.441406-6.03125-.871094-4.109375 1.75-8.152344 5.863282-9.027344 1.6875-.359375 3.375-.707031 5.066406-1.039062 4.125-.820313 8.128906 1.863281 8.945312 5.984374.820313 4.125-1.863281 8.128907-5.984375 8.949219-1.621093.320313-3.242187.652344-4.859375.996094-.535156.113281-1.066406.167969-1.589844.167969zm126.136719-4.546875c-.351562 0-.703125-.027344-1.058593-.074219-1.640626-.226562-3.285157-.445312-4.929688-.648438-4.171875-.523437-7.132812-4.328124-6.609375-8.5.519531-4.167968 4.320313-7.128906 8.496094-6.609374 1.714843.214843 3.425781.441406 5.140625.679687 4.164062.578125 7.070312 4.421875 6.492187 8.585937-.53125 3.808594-3.792969 6.566407-7.53125 6.566407zm-86.0625-1.691407c-3.867187 0-7.175781-2.933593-7.566406-6.863281-.414063-4.183593 2.640625-7.910156 6.824219-8.324219 1.71875-.171874 3.433594-.328124 5.152344-.476562 4.1875-.363281 7.875 2.75 8.230468 6.9375.359375 4.191406-2.746094 7.875-6.9375 8.234375-1.648437.140625-3.296875.292969-4.945312.453125-.253906.027344-.507813.039062-.757813.039062zm45.617188-1.652343c-.070313 0-.140625 0-.207031-.003907-1.65625-.042968-3.3125-.074218-4.96875-.097656-4.203126-.050781-7.566407-3.503906-7.515626-7.707031.054688-4.203125 3.480469-7.546875 7.710938-7.515625 1.726562.0234375 3.453125.0546875 5.179688.101562 4.203124.113282 7.515624 3.609376 7.40625 7.8125-.113282 4.132813-3.496094 7.410157-7.605469 7.410157zm0 0" fill="#ff5155"/><path d="m381.15625 279.546875c0-38.46875-19.75-72.316406-49.65625-91.984375-45.183594-7.148438-91.742188-3.304688-135.253906 11.402344-21.605469 20.085937-35.125 48.753906-35.125 80.582031 0 60.761719 49.253906 110.019531 110.015625 110.019531s110.019531-49.257812 110.019531-110.019531zm0 0" fill="#9ad3f6"/><path d="m196.640625 279.546875c0-.882813.011719-1.765625.03125-2.644531 1.046875-44.238282 33.988281-81.195313 77.597656-88.699219 10.117188-1.742187 20.320313-2.929687 30.554688-3.570313-36.628907-2.289062-73.585938 2.503907-108.578125 14.328126-21.605469 20.089843-35.128906 48.757812-35.128906 80.585937 0 60.761719 49.257812 110.019531 110.019531 110.019531 6.046875 0 11.976562-.496094 17.761719-1.433594-52.3125-8.496093-92.257813-53.871093-92.257813-108.585937zm0 0" fill="#78cbf4"/><path d="m324.019531 256.636719c-3.941406 6.246093-10.902343 10.398437-18.832031 10.398437-12.292969 0-22.257812-9.964844-22.257812-22.253906 0-7.535156 3.75-14.191406 9.476562-18.21875-6.585938-2.597656-13.757812-4.039062-21.269531-4.039062-32.058594 0-58.046875 25.988281-58.046875 58.050781 0 32.058593 25.988281 58.046875 58.046875 58.046875 32.058593 0 58.046875-25.988282 58.046875-58.046875 0-8.539063-1.855469-16.636719-5.164063-23.9375zm0 0" fill="#495766"/><path d="m248.613281 280.574219c0-25.851563 16.902344-47.746094 40.253907-55.261719-5.59375-1.796875-11.542969-2.789062-17.730469-2.789062-32.058594 0-58.046875 25.988281-58.046875 58.046874 0 32.058594 25.988281 58.050782 58.046875 58.050782 6.195312 0 12.160156-.984375 17.761719-2.78125-23.367188-7.503906-40.285157-29.40625-40.285157-55.265625zm0 0" fill="#2f3a48"/><path d="m492.9375 131.167969c-64.894531-51.886719-223.988281-140.089844-451.613281-7.460938-10.6875 6.222657-13.507813 20.394531-5.949219 30.183594l12.84375 16.636719c6.84375 8.867187 19.542969 10.566406 28.488281 3.816406 50.152344-37.859375 214.785157-140.667969 411.128907-35.464844 5 2.683594 9.535156-4.167968 5.101562-7.710937zm0 0" fill="#495766"/><path d="m70.894531 153.890625c-7.554687-9.789063-4.734375-23.960937 5.949219-30.183594 80.5-46.90625 152.425781-66.183593 214.648438-69.226562-69.828126-3.46875-153.863282 13.113281-250.167969 69.226562-10.6875 6.222657-13.507813 20.394531-5.949219 30.183594l12.84375 16.636719c6.84375 8.867187 19.542969 10.566406 28.488281 3.816406 1.949219-1.46875 4.070313-3.039062 6.359375-4.691406zm0 0" fill="#2f3a48"/><path d="m305.1875 222.015625c-12.554688 0-22.765625 10.214844-22.765625 22.765625s10.210937 22.761719 22.765625 22.761719c12.550781 0 22.761719-10.210938 22.761719-22.761719s-10.210938-22.765625-22.761719-22.765625zm0 0" fill="#b9e1fb"/><path d="m314.054688 244.78125c0-6.410156 2.667968-12.207031 6.949218-16.351562-4.097656-3.964844-9.675781-6.414063-15.816406-6.414063-12.550781 0-22.765625 10.214844-22.765625 22.765625s10.214844 22.761719 22.765625 22.761719c6.140625 0 11.71875-2.445313 15.816406-6.414063-4.28125-4.140625-6.949218-9.9375-6.949218-16.347656zm0 0" fill="#9ad3f6"/></svg>