<?xml version="1.0"?>
<svg xmlns="http://www.w3.org/2000/svg" height="512px" viewBox="0 -2 489.334 489" width="512px" class=""><g><path d="m361.132812 454.867188h-235.597656c-19.902344 0-36.039062-16.132813-36.039062-36.035157v-357.296875c0-19.902344 16.136718-36.035156 36.039062-36.035156h235.597656c19.902344 0 36.035157 16.132812 36.035157 36.035156v357.296875c0 19.902344-16.132813 36.035157-36.035157 36.035157zm0 0" fill="#a4c9ff" data-original="#A4C9FF" class=""/><path d="m120.265625 454.867188h246.136719v13.410156c0 6.566406-5.324219 11.886718-11.882813 11.886718h-222.371093c-6.5625 0-11.882813-5.324218-11.882813-11.886718zm0 0" fill="#f9a7a7" data-original="#F9A7A7" class=""/><path d="m280.09375 223.523438h-73.523438c-10.625 0-19.238281-8.613282-19.238281-19.242188v-178.78125h112v178.785156c0 10.625-8.613281 19.238282-19.238281 19.238282zm0 0" fill="#f9cfcf" data-original="#F9CFCF" class=""/><path d="m223.332031 171.277344v-145.777344h40v145.78125c0 10.625-8.613281 19.238281-19.238281 19.238281h-1.523438c-10.625 0-19.238281-8.613281-19.238281-19.242187zm0 0" fill="#e0ebfc" data-original="#E0EBFC" class="" data-old_color="#e0ebfc" style="fill:#FFFFFF"/><path d="m269.332031 284.164062h-52c-4.417969 0-8-3.582031-8-8v-18c0-4.417968 3.582031-8 8-8h52c4.417969 0 8 3.582032 8 8v18c0 4.417969-3.578125 8-8 8zm0 0" fill="#4671c6" data-original="#4671C6" class="" style="fill:#4671C6"/><path d="m37.058594 79.015625c-6.742188-14.738281-17.929688-27.015625-31.851563-35.128906-2.5-1.457031-2.5-4.988281 0-6.441407 13.921875-8.113281 25.109375-20.390624 31.851563-35.128906 1.3125-2.867187 5.390625-2.867187 6.703125 0 6.746093 14.738282 17.929687 27.015625 31.855469 35.128906 2.496093 1.457032 2.496093 4.988282 0 6.441407-13.925782 8.113281-25.109376 20.390625-31.855469 35.128906-1.308594 2.867187-5.390625 2.867187-6.703125 0zm0 0" fill="#ffea92" data-original="#FFEA92" class="active-path" data-old_color="#ffea92" style="fill:#FFFFFF"/><path d="m57.191406 146.339844c-4.722656-10.316406-12.554687-18.914063-22.300781-24.59375-1.746094-1.015625-1.746094-3.492188 0-4.507813 9.746094-5.679687 17.578125-14.273437 22.300781-24.59375.917969-2.003906 3.773438-2.003906 4.6875 0 4.722656 10.320313 12.550782 18.914063 22.300782 24.59375 1.746093 1.015625 1.746093 3.488281 0 4.507813-9.75 5.679687-17.578126 14.273437-22.300782 24.59375-.914062 2.003906-3.773437 2.003906-4.6875 0zm0 0" fill="#ffea92" data-original="#FFEA92" class="active-path" data-old_color="#ffea92" style="fill:#FFFFFF"/><g fill="#e0ebfc"><path d="m464.996094 192.832031c-6.835938 0-10.613282-3.296875-13.117188-5.480469-1.980468-1.730468-2.886718-2.519531-5.222656-2.519531-2.332031 0-3.234375.789063-5.214844 2.519531-2.5 2.183594-6.277344 5.480469-13.109375 5.480469-6.835937 0-10.613281-3.296875-13.113281-5.480469-1.980469-1.730468-2.886719-2.519531-5.21875-2.519531-3.3125 0-6-2.6875-6-6 0-3.316406 2.6875-6 6-6 6.835938 0 10.613281 3.296875 13.113281 5.480469 1.980469 1.726562 2.886719 2.519531 5.21875 2.519531 2.328125 0 3.234375-.792969 5.214844-2.519531 2.5-2.183594 6.277344-5.480469 13.109375-5.480469 6.835938 0 10.613281 3.296875 13.117188 5.476563 1.984374 1.730468 2.886718 2.523437 5.222656 2.523437 2.332031 0 3.238281-.792969 5.222656-2.523437 2.5-2.179688 6.28125-5.476563 13.117188-5.476563 3.3125 0 6 2.683594 6 6 0 3.3125-2.6875 6-6 6-2.339844 0-3.242188.789063-5.226563 2.519531-2.503906 2.183594-6.28125 5.480469-13.113281 5.480469zm0 0" data-original="#E0EBFC" class="" data-old_color="#E0EBFC" style="fill:#FFFFFF"/><path d="m464.996094 256.832031c-6.835938 0-10.613282-3.296875-13.117188-5.480469-1.980468-1.730468-2.886718-2.519531-5.222656-2.519531-2.332031 0-3.234375.789063-5.214844 2.519531-2.5 2.183594-6.277344 5.480469-13.109375 5.480469-6.835937 0-10.613281-3.296875-13.113281-5.480469-1.980469-1.730468-2.886719-2.519531-5.21875-2.519531-3.3125 0-6-2.6875-6-6 0-3.316406 2.6875-6 6-6 6.835938 0 10.613281 3.296875 13.113281 5.480469 1.980469 1.726562 2.886719 2.519531 5.21875 2.519531 2.328125 0 3.234375-.792969 5.214844-2.519531 2.5-2.183594 6.277344-5.480469 13.109375-5.480469 6.835938 0 10.613281 3.296875 13.117188 5.476563 1.984374 1.730468 2.886718 2.523437 5.222656 2.523437 2.332031 0 3.238281-.792969 5.222656-2.523437 2.5-2.179688 6.28125-5.476563 13.117188-5.476563 3.3125 0 6 2.683594 6 6 0 3.3125-2.6875 6-6 6-2.339844 0-3.242188.789063-5.226563 2.519531-2.503906 2.183594-6.28125 5.480469-13.113281 5.480469zm0 0" data-original="#E0EBFC" class="" data-old_color="#E0EBFC" style="fill:#FFFFFF"/><path d="m464.996094 320.832031c-6.835938 0-10.613282-3.296875-13.117188-5.480469-1.980468-1.730468-2.886718-2.519531-5.222656-2.519531-2.332031 0-3.234375.789063-5.214844 2.519531-2.5 2.183594-6.277344 5.480469-13.109375 5.480469-6.835937 0-10.613281-3.296875-13.113281-5.480469-1.980469-1.730468-2.886719-2.519531-5.21875-2.519531-3.3125 0-6-2.6875-6-6 0-3.316406 2.6875-6 6-6 6.835938 0 10.613281 3.296875 13.113281 5.480469 1.980469 1.726562 2.886719 2.519531 5.21875 2.519531 2.328125 0 3.234375-.792969 5.214844-2.519531 2.5-2.183594 6.277344-5.480469 13.109375-5.480469 6.835938 0 10.613281 3.296875 13.117188 5.476563 1.984374 1.730468 2.886718 2.523437 5.222656 2.523437 2.332031 0 3.238281-.792969 5.222656-2.523437 2.5-2.179688 6.28125-5.476563 13.117188-5.476563 3.3125 0 6 2.683594 6 6 0 3.3125-2.6875 6-6 6-2.339844 0-3.242188.789063-5.226563 2.519531-2.503906 2.183594-6.28125 5.480469-13.113281 5.480469zm0 0" data-original="#E0EBFC" class="" data-old_color="#E0EBFC" style="fill:#FFFFFF"/><path d="m60.996094 192.832031c-6.835938 0-10.613282-3.296875-13.117188-5.480469-1.980468-1.730468-2.886718-2.519531-5.222656-2.519531-2.332031 0-3.234375.789063-5.214844 2.519531-2.5 2.183594-6.277344 5.480469-13.109375 5.480469-6.835937 0-10.613281-3.296875-13.113281-5.480469-1.980469-1.730468-2.886719-2.519531-5.21875-2.519531-3.3125 0-6-2.6875-6-6 0-3.316406 2.6875-6 6-6 6.835938 0 10.613281 3.296875 13.113281 5.480469 1.980469 1.726562 2.886719 2.519531 5.21875 2.519531 2.328125 0 3.234375-.792969 5.214844-2.519531 2.5-2.183594 6.277344-5.480469 13.109375-5.480469 6.835938 0 10.613281 3.296875 13.117188 5.476563 1.984374 1.730468 2.886718 2.523437 5.222656 2.523437 2.332031 0 3.238281-.792969 5.222656-2.523437 2.5-2.179688 6.28125-5.476563 13.117188-5.476563 3.3125 0 6 2.683594 6 6 0 3.3125-2.6875 6-6 6-2.339844 0-3.242188.789063-5.226563 2.519531-2.503906 2.183594-6.28125 5.480469-13.113281 5.480469zm0 0" data-original="#E0EBFC" class="" data-old_color="#E0EBFC" style="fill:#FFFFFF"/><path d="m60.996094 256.832031c-6.835938 0-10.613282-3.296875-13.117188-5.480469-1.980468-1.730468-2.886718-2.519531-5.222656-2.519531-2.332031 0-3.234375.789063-5.214844 2.519531-2.5 2.183594-6.277344 5.480469-13.109375 5.480469-6.835937 0-10.613281-3.296875-13.113281-5.480469-1.980469-1.730468-2.886719-2.519531-5.21875-2.519531-3.3125 0-6-2.6875-6-6 0-3.316406 2.6875-6 6-6 6.835938 0 10.613281 3.296875 13.113281 5.480469 1.980469 1.726562 2.886719 2.519531 5.21875 2.519531 2.328125 0 3.234375-.792969 5.214844-2.519531 2.5-2.183594 6.277344-5.480469 13.109375-5.480469 6.835938 0 10.613281 3.296875 13.117188 5.476563 1.984374 1.730468 2.886718 2.523437 5.222656 2.523437 2.332031 0 3.238281-.792969 5.222656-2.523437 2.5-2.179688 6.28125-5.476563 13.117188-5.476563 3.3125 0 6 2.683594 6 6 0 3.3125-2.6875 6-6 6-2.339844 0-3.242188.789063-5.226563 2.519531-2.503906 2.183594-6.28125 5.480469-13.113281 5.480469zm0 0" data-original="#E0EBFC" class="" data-old_color="#E0EBFC" style="fill:#FFFFFF"/><path d="m60.996094 320.832031c-6.835938 0-10.613282-3.296875-13.117188-5.480469-1.980468-1.730468-2.886718-2.519531-5.222656-2.519531-2.332031 0-3.234375.789063-5.214844 2.519531-2.5 2.183594-6.277344 5.480469-13.109375 5.480469-6.835937 0-10.613281-3.296875-13.113281-5.480469-1.980469-1.730468-2.886719-2.519531-5.21875-2.519531-3.3125 0-6-2.6875-6-6 0-3.316406 2.6875-6 6-6 6.835938 0 10.613281 3.296875 13.113281 5.480469 1.980469 1.726562 2.886719 2.519531 5.21875 2.519531 2.328125 0 3.234375-.792969 5.214844-2.519531 2.5-2.183594 6.277344-5.480469 13.109375-5.480469 6.835938 0 10.613281 3.296875 13.117188 5.476563 1.984374 1.730468 2.886718 2.523437 5.222656 2.523437 2.332031 0 3.238281-.792969 5.222656-2.523437 2.5-2.179688 6.28125-5.476563 13.117188-5.476563 3.3125 0 6 2.683594 6 6 0 3.3125-2.6875 6-6 6-2.339844 0-3.242188.789063-5.226563 2.519531-2.503906 2.183594-6.28125 5.480469-13.113281 5.480469zm0 0" data-original="#E0EBFC" class="" data-old_color="#E0EBFC" style="fill:#FFFFFF"/></g><path d="m449.605469 401.3125c6.746093 14.738281 17.929687 27.015625 31.855469 35.128906 2.496093 1.457032 2.496093 4.988282 0 6.445313-13.925782 8.109375-25.109376 20.390625-31.855469 35.128906-1.308594 2.863281-5.390625 2.863281-6.703125 0-6.742188-14.738281-17.929688-27.019531-31.851563-35.128906-2.5-1.457031-2.5-4.988281 0-6.445313 13.921875-8.113281 25.109375-20.390625 31.851563-35.128906 1.3125-2.863281 5.390625-2.863281 6.703125 0zm0 0" fill="#ffea92" data-original="#FFEA92" class="active-path" data-old_color="#ffea92" style="fill:#FFFFFF"/><path d="m429.476562 333.992188c4.71875 10.316406 12.550782 18.910156 22.296876 24.589843 1.75 1.019531 1.75 3.492188 0 4.511719-9.746094 5.675781-17.578126 14.273438-22.296876 24.589844-.917968 2.003906-3.773437 2.003906-4.691406 0-4.71875-10.316406-12.550781-18.910156-22.296875-24.589844-1.75-1.019531-1.75-3.492188 0-4.511719 9.746094-5.679687 17.578125-14.273437 22.296875-24.589843.917969-2.003907 3.773438-2.003907 4.691406 0zm0 0" fill="#ffea92" data-original="#FFEA92" class="active-path" data-old_color="#ffea92" style="fill:#FFFFFF"/><path d="m361.132812 458.867188h-235.601562c-22.074219 0-40.035156-17.957032-40.035156-40.035157v-357.296875c0-22.074218 17.957031-40.035156 40.035156-40.035156h235.601562c22.074219 0 40.035157 17.957031 40.035157 40.035156v357.296875c0 22.078125-17.960938 40.035157-40.035157 40.035157zm-235.597656-429.367188c-17.664062 0-32.039062 14.371094-32.039062 32.035156v357.296875c0 17.664063 14.375 32.035157 32.039062 32.035157h235.597656c17.664063 0 32.039063-14.371094 32.039063-32.035157v-357.296875c0-17.664062-14.375-32.035156-32.039063-32.035156zm0 0" fill="#3762cc" data-original="#3762CC" class="" style="fill:#000000" data-old_color="#3762cc"/><path d="m354.515625 484.164062h-222.367187c-8.757813 0-15.882813-7.125-15.882813-15.882812v-13.414062c0-2.207032 1.792969-4 4-4h246.132813c2.210937 0 4 1.792968 4 4v13.414062c0 8.757812-7.121094 15.882812-15.882813 15.882812zm-230.25-25.296874v9.414062c0 4.347656 3.539063 7.882812 7.882813 7.882812h222.367187c4.347656 0 7.882813-3.535156 7.882813-7.882812v-9.414062zm0 0" fill="#3762cc" data-original="#3762CC" class="" style="fill:#000000" data-old_color="#3762cc"/></g> </svg>
