<svg enable-background="new 0 0 100 100" height="512" viewBox="0 0 100 100" width="512" xmlns="http://www.w3.org/2000/svg"><path d="m79.7379532 5s-31.6436272 15.6506462-32.7334671 19.8543129 1.245533 9.9642487 4.9821243 19.9285011c3.7365952 9.9642487 8.5630264 18.9138031 8.7187195 26.1158829 0 0-.3443298 6.9496689 1.1063118 11.0598145 1.4506416 4.1101532-.3223648 4.9966507-1.0476837 7.1726151-.7253227 2.1759567-1.5312347 3.9562149-.2417755 5.4032288s3.3042374-.8095322 3.7877846-2.2601776c.4835434-1.4506378 1.611824-2.4983215 2.3371429-3.2236404.7253189-.7253265 1.5312347-3.1430588 1.8535995-7.0114365.3223648-3.8683701 1.6924133-4.4325104 3.0624619-5.3190155 1.3700485-.8864975 3.7877808-2.9818649 2.3371429-5.2384186s-4.1101456-1.611824-4.4325104-6.4472961c-.3223648-4.8354645-1.1282806-23.1296539-5.8025665-29.4157639l-1.934185-5.0772438 17.283123-2.9252014z" fill="#f4c85b"/><path d="m48.0513229 23.2936726s-2.9708099 2.613327-3.8138504 11.0342579c-.7195282 7.1872292-4.0327721 25.2048264-6.5532913 29.9936867-2.1004295 3.990715-4.1133003 8.4192352-7.1326618 12.4829178-1.042963 1.4037018-1.9418125 2.9003067-2.6427975 4.5024185-.1944656.4444504-.4304943.8981476-.7094975 1.2940521-.959856 1.3624878-4.7066135 2.2295914-6.4407272 3.5300674-1.7340298 1.3004761 1.5173397 3.5610733 2.9726696 3.4680557 1.4553299-.0930099 2.1675797-.2786942 2.1675797-.2786942s.8670139-.0310059 1.6101818-.4333801c.7430801-.4027176.80509-.8050919 2.1984978-1.1457977 1.3934059-.3407059 5.8214054-4.9232178 7.6792812-5.8213196 1.8578758-.8981094 4.4045105-1.7598495 5.7359962-2.3172455 1.3315697-.5570526 2.9726677-2.4769363 1.9508018-4.2731476l-.2552071-.9520416s-1.9469299-3.1859131-.7964783-5.0444794c1.1504478-1.8582153 8.0099983-16.1745071 9.580307-20.4324989 1.5703049-4.2583351 9.0041313-13.2848587 9.0041313-13.2848587l16.1950111-2.1238289.8521347-25.850069c.0000002 0-24.0326955 7.489378-31.6020811 15.6519051z" fill="#feda6f"/><path d="m52.6893196 44.3713799-7.8241119-.3315163c-.3780632-.015976-.7059135.2506027-.7605782.6250648-.2880478 1.971035-1.2479706 7.9901962-2.8029709 12.3360596-.1596718.4462128.1175766.9225426.5874863.9853897 1.2708168.1694221 3.6569061.5040817 5.8073807.8953056.3531876.0644188.6993027-.1322403.8239517-.4689941l4.8297844-13.0478058c.173809-.4695167-.1605873-.9722938-.6609421-.9935035z" fill="#fff"/><path d="m56.0063286 40.9883842h-33.8731728c-.4361973 0-.7897758.353775-.7897758.7895126 0 .4365234.3535786.7897758.7897758.7897758h13.2445259v1.6863937c0 .8725243.7074203 1.5798149 1.5799446 1.5798149h19.0485687c.8724594 0 1.5797501-.7072906 1.5797501-1.5798149v-1.6861305c0-.8725241-.7072258-1.5795516-1.5796165-1.5795516z" fill="#de594e"/></svg>